Junicode-width.glyphspackage
{
glyphname = exclam;
kernLeft = KO_exclam;
layers = (
{
layerId = master01;
shapes = (
{
closed = 1;
nodes = (
(137,205,o),
(143,208,o),
(143,213,cs),
(149,280,o),
(154,361,o),
(164,456,cs),
(174,551,o),
(179,608,o),
(179,629,cs),
(179,665,o),
(163,683,o),
(129,683,cs),
(103,683,o),
(81,657,o),
(81,623,cs),
(81,604,o),
(85,548,o),
(94,453,cs),
(103,357,o),
(111,278,o),
(111,213,cs),
(111,208,o),
(117,205,o),
(127,205,cs)
);
},
{
closed = 1;
nodes = (
(162,-12,o),
(186,12,o),
(186,45,cs),
(186,79,o),
(162,103,o),
(127,103,cs),
(92,103,o),
(68,79,o),
(68,45,cs),
(68,12,o),
(92,-12,o),
(127,-12,cs)
);
}
);
width = 254;
},
{
layerId = "75918100-ED89-42A8-B0FE-888EB9C86810";
shapes = (
{
closed = 1;
nodes = (
(144,205,o),
(152,208,o),
(152,215,cs),
(152,266,o),
(164,319,o),
(176,429,cs),
(188,538,o),
(196,586,o),
(196,625,cs),
(196,659,o),
(171,683,o),
(129,683,cs),
(88,683,o),
(63,659,o),
(63,625,cs),
(63,586,o),
(69,538,o),
(82,429,cs),
(95,319,o),
(102,248,o),
(102,215,cs),
(102,208,o),
(111,205,o),
(127,205,cs)
);
},
{
closed = 1;
nodes = (
(172,-13,o),
(204,18,o),
(204,62,cs),
(204,105,o),
(172,136,o),
(127,136,cs),
(83,136,o),
(51,105,o),
(51,62,cs),
(51,18,o),
(83,-13,o),
(127,-13,cs)
);
}
);
width = 253;
},
{
layerId = "6ABD9449-5E80-4451-809E-12ADEB9E9AB4";
shapes = (
{
closed = 1;
nodes = (
(135,205,o),
(140,208,o),
(140,212,cs),
(145,285,o),
(151,375,o),
(160,465,cs),
(169,555,o),
(174,616,o),
(174,630,cs),
(174,667,o),
(160,683,o),
(129,683,cs),
(108,683,o),
(87,656,o),
(87,622,cs),
(87,610,o),
(91,551,o),
(98,460,cs),
(105,370,o),
(110,288,o),
(114,212,cs),
(114,208,o),
(118,205,o),
(127,205,cs)
);
},
{
closed = 1;
nodes = (
(158,-12,o),
(180,10,o),
(180,40,cs),
(180,70,o),
(158,92,o),
(127,92,cs),
(96,92,o),
(74,70,o),
(74,40,cs),
(74,10,o),
(96,-12,o),
(127,-12,cs)
);
}
);
width = 254;
},
{
layerId = "70B83247-6FA0-4662-9656-C86DD2A17D3B";
shapes = (
{
closed = 1;
nodes = (
(117,205,o),
(122,208,o),
(122,213,cs),
(125,273,o),
(132,355,o),
(140,448,cs),
(148,536,o),
(154,604,o),
(154,628,cs),
(154,663,o),
(138,683,o),
(108,683,cs),
(83,683,o),
(64,657,o),
(64,624,cs),
(64,602,o),
(69,532,o),
(77,445,cs),
(86,333,o),
(91,273,o),
(91,213,cs),
(91,208,o),
(97,205,o),
(107,205,cs)
);
},
{
closed = 1;
nodes = (
(142,-12,o),
(167,12,o),
(167,45,cs),
(167,79,o),
(142,103,o),
(107,103,cs),
(73,103,o),
(48,79,o),
(48,45,cs),
(48,12,o),
(73,-12,o),
(107,-12,cs)
);
}
);
width = 214;
},
{
layerId = "9E6FDE2E-55A6-44A9-9556-F1822294BF26";
shapes = (
{
closed = 1;
nodes = (
(157,205,o),
(164,208,o),
(164,212,cs),
(173,286,o),
(176,366,o),
(188,464,cs),
(201,566,o),
(205,613,o),
(205,630,cs),
(205,667,o),
(188,683,o),
(149,683,cs),
(123,683,o),
(98,656,o),
(98,622,cs),
(98,607,o),
(102,563,o),
(112,460,cs),
(120,381,o),
(130,282,o),
(130,212,cs),
(130,207,o),
(137,205,o),
(147,205,cs)
);
},
{
closed = 1;
nodes = (
(181,-12,o),
(206,12,o),
(206,45,cs),
(206,79,o),
(181,103,o),
(146,103,cs),
(112,103,o),
(87,79,o),
(87,45,cs),
(87,12,o),
(112,-12,o),
(146,-12,cs)
);
}
);
width = 294;
},
{
layerId = "00F4936D-6309-4DEC-83B3-42806ED1A477";
shapes = (
{
closed = 1;
nodes = (
(137,205,o),
(143,208,o),
(143,213,cs),
(149,280,o),
(154,361,o),
(164,456,cs),
(174,551,o),
(179,608,o),
(179,629,cs),
(179,665,o),
(163,683,o),
(129,683,cs),
(103,683,o),
(81,657,o),
(81,623,cs),
(81,604,o),
(85,548,o),
(94,453,cs),
(103,357,o),
(111,278,o),
(111,213,cs),
(111,208,o),
(117,205,o),
(127,205,cs)
);
},
{
closed = 1;
nodes = (
(162,-12,o),
(186,12,o),
(186,45,cs),
(186,79,o),
(162,103,o),
(127,103,cs),
(92,103,o),
(68,79,o),
(68,45,cs),
(68,12,o),
(92,-12,o),
(127,-12,cs)
);
}
);
width = 254;
}
);
unicode = 33;
userData = {
KernOnSpecialSpacing = {
L = "spaced-off";
R = NoKerning;
};
};
}
{
glyphname = six;
kernLeft = six.osf;
kernRight = six.osf;
layers = (
{
layerId = master01;
shapes = (
{
closed = 1;
nodes = (
(354,-11,o),
(433,89,o),
(433,190,cs),
(433,297,o),
(366,370,o),
(269,370,cs),
(226,370,o),
(190,351,o),
(155,314,c),
(147,318,l),
(215,475,o),
(312,560,o),
(463,616,cs),
(473,620,o),
(466,640,o),
(456,637,cs),
(327,599,o),
(241,553,o),
(155,466,cs),
(88,398,o),
(46,295,o),
(46,214,cs),
(46,81,o),
(107,-11,o),
(226,-11,cs)
);
},
{
closed = 1;
nodes = (
(170,22,o),
(122,102,o),
(122,179,cs),
(122,253,o),
(171,315,o),
(250,315,cs),
(320,315,o),
(357,235,o),
(357,162,cs),
(357,84,o),
(318,22,o),
(254,22,cs)
);
}
);
width = 488;
},
{
layerId = "75918100-ED89-42A8-B0FE-888EB9C86810";
shapes = (
{
closed = 1;
nodes = (
(375,-11,o),
(470,80,o),
(470,197,cs),
(470,308,o),
(388,370,o),
(288,370,cs),
(261,370,o),
(234,362,o),
(210,345,c),
(203,351,l),
(251,463,o),
(356,568,o),
(486,610,cs),
(496,613,o),
(487,641,o),
(475,638,cs),
(353,606,o),
(254,562,o),
(163,473,cs),
(92,404,o),
(47,298,o),
(47,219,cs),
(47,99,o),
(100,-11,o),
(245,-11,cs)
);
},
{
closed = 1;
nodes = (
(197,32,o),
(159,108,o),
(159,177,cs),
(159,239,o),
(197,307,o),
(269,307,cs),
(328,307,o),
(358,235,o),
(358,170,cs),
(358,95,o),
(324,32,o),
(273,32,cs)
);
}
);
width = 515;
},
{
layerId = "6ABD9449-5E80-4451-809E-12ADEB9E9AB4";
shapes = (
{
closed = 1;
nodes = (
(361,-11,o),
(434,93,o),
(434,188,cs),
(434,294,o),
(371,370,o),
(276,370,cs),
(231,370,o),
(190,350,o),
(154,309,c),
(145,313,l),
(218,481,o),
(313,558,o),
(469,618,cs),
(476,621,o),
(470,639,o),
(463,637,cs),
(331,597,o),
(249,551,o),
(165,464,cs),
(100,397,o),
(59,294,o),
(59,212,cs),
(59,75,o),
(122,-11,o),
(233,-11,cs)
);
},
{
closed = 1;
nodes = (
(175,19,o),
(123,99,o),
(123,179,cs),
(123,257,o),
(176,317,o),
(257,317,cs),
(331,317,o),
(370,235,o),
(370,160,cs),
(370,81,o),
(330,19,o),
(261,19,cs)
);
}
);
width = 492;
},
{
layerId = "70B83247-6FA0-4662-9656-C86DD2A17D3B";
shapes = (
{
closed = 1;
nodes = (
(297,-11,o),
(366,87,o),
(366,192,cs),
(366,301,o),
(307,370,o),
(229,370,cs),
(198,370,o),
(174,353,o),
(150,325,c),
(143,330,l),
(193,473,o),
(272,561,o),
(387,615,cs),
(395,619,o),
(387,640,o),
(377,637,cs),
(265,596,o),
(197,549,o),
(134,468,cs),
(80,398,o),
(45,295,o),
(45,215,cs),
(45,86,o),
(91,-11,o),
(194,-11,cs)
);
},
{
closed = 1;
nodes = (
(152,25,o),
(117,104,o),
(117,178,cs),
(117,249,o),
(153,313,o),
(213,313,cs),
(266,313,o),
(294,235,o),
(294,165,cs),
(294,87,o),
(264,25,o),
(217,25,cs)
);
}
);
width = 405;
},
{
layerId = "9E6FDE2E-55A6-44A9-9556-F1822294BF26";
shapes = (
{
closed = 1;
nodes = (
(412,-11,o),
(500,92,o),
(500,188,cs),
(500,294,o),
(425,370,o),
(310,370,cs),
(257,370,o),
(209,351,o),
(165,309,c),
(157,314,l),
(242,478,o),
(356,558,o),
(541,619,cs),
(550,622,o),
(545,639,o),
(535,637,cs),
(389,601,o),
(283,557,o),
(176,465,cs),
(97,397,o),
(48,294,o),
(48,212,cs),
(48,75,o),
(123,-11,o),
(258,-11,cs)
);
},
{
closed = 1;
nodes = (
(189,19,o),
(127,100,o),
(127,179,cs),
(127,256,o),
(190,317,o),
(287,317,cs),
(375,317,o),
(421,235,o),
(421,160,cs),
(421,81,o),
(373,19,o),
(292,19,cs)
);
}
);
width = 571;
},
{
layerId = "00F4936D-6309-4DEC-83B3-42806ED1A477";
shapes = (
{
closed = 1;
nodes = (
(354,-11,o),
(433,89,o),
(433,190,cs),
(433,297,o),
(366,370,o),
(269,370,cs),
(226,370,o),
(190,351,o),
(155,314,c),
(147,318,l),
(215,475,o),
(312,560,o),
(463,616,cs),
(473,620,o),
(466,640,o),
(456,637,cs),
(327,599,o),
(241,553,o),
(155,466,cs),
(88,398,o),
(46,295,o),
(46,214,cs),
(46,81,o),
(107,-11,o),
(226,-11,cs)
);
},
{
closed = 1;
nodes = (
(170,22,o),
(122,102,o),
(122,179,cs),
(122,253,o),
(171,315,o),
(250,315,cs),
(320,315,o),
(357,235,o),
(357,162,cs),
(357,84,o),
(318,22,o),
(254,22,cs)
);
}
);
width = 488;
}
);
unicode = 54;
userData = {
KernOnSpecialSpacing = {
L = NoKerning;
R = NoKerning;
};
};
}
{
glyphname = J;
kernLeft = KO_U;
kernRight = KO_J;
layers = (
{
anchors = (
{
name = bottom;
pos = (162,-190);
},
{
name = bottom_right;
pos = (259,0);
},
{
name = center;
pos = (183,320);
},
{
name = ogonek_above;
pos = (185,653);
},
{
name = top;
pos = (181,663);
},
{
name = zzcurly;
pos = (134,655);
}
);
layerId = master01;
shapes = (
{
closed = 1;
nodes = (
(96,-205,o),
(159,-155,o),
(186,-90,cs),
(211,-29,o),
(221,77,o),
(221,310,cs),
(221,572,ls),
(221,610,o),
(252,628,o),
(314,628,cs),
(324,628,o),
(324,666,o),
(314,666,c),
(271,664,o),
(226,663,o),
(182,663,cs),
(138,663,o),
(94,664,o),
(50,666,c),
(40,666,o),
(41,628,o),
(50,628,cs),
(112,628,o),
(143,610,o),
(143,572,cs),
(143,127,ls),
(143,-32,o),
(142,-159,o),
(57,-159,c),
(72,-177,l),
(92,-141,o),
(58,-105,o),
(14,-105,cs),
(-21,-105,o),
(-47,-126,o),
(-47,-152,cs),
(-47,-183,o),
(-12,-205,o),
(32,-205,c)
);
}
);
width = 350;
},
{
anchors = (
{
name = bottom;
pos = (162,-190);
},
{
name = bottom_right;
pos = (298,0);
},
{
name = center;
pos = (183,315);
},
{
name = ogonek_above;
pos = (189,653);
},
{
name = top;
pos = (181,663);
},
{
name = zzcurly;
pos = (139,655);
}
);
layerId = "75918100-ED89-42A8-B0FE-888EB9C86810";
shapes = (
{
closed = 1;
nodes = (
(110,-206,o),
(162,-166,o),
(198,-78,cs),
(232,4,o),
(245,137,o),
(245,307,cs),
(245,563,ls),
(245,601,o),
(273,620,o),
(329,620,cs),
(339,620,o),
(338,666,o),
(329,666,c),
(281,664,o),
(233,663,o),
(186,663,cs),
(138,663,o),
(90,664,o),
(42,666,c),
(32,666,o),
(33,620,o),
(42,620,cs),
(97,620,o),
(125,601,o),
(125,563,cs),
(125,124,ls),
(125,-19,o),
(125,-151,o),
(58,-151,c),
(76,-175,l),
(105,-127,o),
(66,-77,o),
(9,-77,cs),
(-30,-77,o),
(-64,-101,o),
(-64,-139,cs),
(-64,-179,o),
(-27,-206,o),
(36,-206,c)
);
}
);
width = 359;
},
{
anchors = (
{
name = bottom;
pos = (162,-190);
},
{
name = bottom_right;
pos = (239,0);
},
{
name = center;
pos = (183,321);
},
{
name = ogonek_above;
pos = (182,653);
},
{
name = top;
pos = (181,663);
},
{
name = zzcurly;
pos = (144,655);
}
);
layerId = "6ABD9449-5E80-4451-809E-12ADEB9E9AB4";
shapes = (
{
closed = 1;
nodes = (
(93,-205,o),
(154,-155,o),
(181,-93,cs),
(210,-26,o),
(212,32,o),
(212,311,cs),
(212,575,ls),
(212,613,o),
(245,631,o),
(310,631,cs),
(319,631,o),
(319,666,o),
(310,666,c),
(267,664,o),
(224,663,o),
(181,663,cs),
(138,663,o),
(95,664,o),
(52,666,c),
(42,666,o),
(43,631,o),
(52,631,cs),
(117,631,o),
(148,613,o),
(148,575,cs),
(148,128,ls),
(148,-34,o),
(148,-165,o),
(57,-165,c),
(71,-180,l),
(87,-146,o),
(57,-115,o),
(15,-115,cs),
(-16,-115,o),
(-42,-132,o),
(-42,-158,cs),
(-42,-185,o),
(-11,-205,o),
(30,-205,c)
);
}
);
width = 348;
},
{
anchors = (
{
name = bottom;
pos = (134,-191);
},
{
name = bottom_right;
pos = (229,0);
},
{
name = center;
pos = (151,320);
},
{
name = ogonek_above;
pos = (155,653);
},
{
name = top;
pos = (149,663);
},
{
name = zzcurly;
pos = (114,655);
}
);
layerId = "70B83247-6FA0-4662-9656-C86DD2A17D3B";
shapes = (
{
closed = 1;
nodes = (
(86,-205,o),
(134,-158,o),
(157,-87,cs),
(181,-17,o),
(189,106,o),
(189,309,cs),
(189,572,ls),
(189,609,o),
(213,628,o),
(261,628,cs),
(269,628,o),
(268,666,o),
(261,666,c),
(225,664,o),
(188,663,o),
(152,663,cs),
(115,663,o),
(79,664,o),
(42,666,c),
(35,666,o),
(35,628,o),
(42,628,cs),
(90,628,o),
(114,609,o),
(114,572,cs),
(114,126,ls),
(114,-21,o),
(114,-157,o),
(51,-157,c),
(64,-178,l),
(82,-142,o),
(53,-105,o),
(13,-105,cs),
(-16,-105,o),
(-38,-124,o),
(-38,-151,cs),
(-38,-184,o),
(-9,-205,o),
(30,-205,cs)
);
}
);
width = 290;
},
{
anchors = (
{
name = bottom;
pos = (189,-188);
},
{
name = bottom_right;
pos = (289,0);
},
{
name = center;
pos = (215,320);
},
{
name = ogonek_above;
pos = (217,653);
},
{
name = top;
pos = (212,663);
},
{
name = zzcurly;
pos = (153,655);
}
);
layerId = "9E6FDE2E-55A6-44A9-9556-F1822294BF26";
shapes = (
{
closed = 1;
nodes = (
(105,-205,o),
(183,-152,o),
(215,-93,cs),
(242,-42,o),
(252,47,o),
(252,311,cs),
(252,573,ls),
(252,610,o),
(291,628,o),
(368,628,cs),
(380,628,o),
(379,666,o),
(368,666,c),
(316,664,o),
(264,663,o),
(212,663,cs),
(161,663,o),
(108,664,o),
(57,666,c),
(45,666,o),
(46,628,o),
(57,628,cs),
(134,628,o),
(171,610,o),
(171,573,cs),
(171,128,ls),
(171,-58,o),
(171,-162,o),
(42,-162,c),
(71,-175,l),
(89,-140,o),
(55,-105,o),
(14,-105,cs),
(-21,-105,o),
(-47,-130,o),
(-47,-153,cs),
(-47,-181,o),
(-9,-205,o),
(35,-205,cs)
);
}
);
width = 410;
},
{
anchors = (
{
name = bottom;
pos = (162,-190);
},
{
name = bottom_right;
pos = (259,0);
},
{
name = center;
pos = (183,320);
},
{
name = ogonek_above;
pos = (186,653);
},
{
name = top;
pos = (181,663);
},
{
name = zzcurly;
pos = (134,655);
}
);
layerId = "00F4936D-6309-4DEC-83B3-42806ED1A477";
shapes = (
{
closed = 1;
nodes = (
(96,-205,o),
(159,-155,o),
(186,-90,cs),
(211,-29,o),
(221,77,o),
(221,310,cs),
(221,572,ls),
(221,610,o),
(252,628,o),
(314,628,cs),
(324,628,o),
(324,666,o),
(314,666,c),
(271,664,o),
(226,663,o),
(182,663,cs),
(138,663,o),
(94,664,o),
(50,666,c),
(40,666,o),
(41,628,o),
(50,628,cs),
(112,628,o),
(143,610,o),
(143,572,cs),
(143,127,ls),
(143,-32,o),
(142,-159,o),
(57,-159,c),
(72,-177,l),
(92,-141,o),
(58,-105,o),
(14,-105,cs),
(-21,-105,o),
(-47,-126,o),
(-47,-152,cs),
(-47,-183,o),
(-12,-205,o),
(32,-205,c)
);
}
);
width = 350;
}
);
unicode = 74;
userData = {
KernOnName = J;
};
}
{
glyphname = Aring;
kernLeft = KO_A;
kernRight = KO_A;
layers = (
{
anchors = (
{
name = bottom;
pos = (325,0);
},
{
name = ogonek;
pos = (604,0);
},
{
name = top;
pos = (345,823);
},
{
name = top_low;
pos = (555,707);
}
);
layerId = master01;
shapes = (
{
closed = 1;
nodes = (
(40,-1,o),
(74,0,o),
(109,0,cs),
(143,0,o),
(178,-1,o),
(212,-3,c),
(222,-3,o),
(222,34,o),
(212,34,cs),
(148,34,o),
(127,43,o),
(143,89,cs),
(204,259,l),
(433,259,l),
(487,91,ls),
(500,51,o),
(490,34,o),
(443,34,cs),
(434,34,o),
(433,-3,o),
(443,-3,c),
(480,-1,o),
(518,0,o),
(556,0,cs),
(593,0,o),
(630,-1,o),
(668,-3,c),
(677,-3,o),
(677,34,o),
(668,34,cs),
(618,34,o),
(587,53,o),
(574,91,cs),
(386,655,l),
(418,670,o),
(444,701,o),
(444,743,cs),
(444,793,o),
(402,837,o),
(345,837,cs),
(292,837,o),
(245,801,o),
(245,743,cs),
(245,700,o),
(270,665,o),
(311,652,c),
(100,98,ls),
(79,42,o),
(63,34,o),
(5,34,cs),
(-4,34,o),
(-5,-3,o),
(5,-3,c)
);
},
{
closed = 1;
nodes = (
(322,581,l),
(330,581,l),
(422,293,l),
(215,293,l)
);
},
{
closed = 1;
nodes = (
(315,681,o),
(292,705,o),
(292,743,cs),
(292,772,o),
(310,805,o),
(345,805,cs),
(375,805,o),
(397,781,o),
(397,743,cs),
(397,712,o),
(381,681,o),
(345,681,cs)
);
}
);
width = 683;
},
{
anchors = (
{
name = bottom;
pos = (315,0);
},
{
name = ogonek;
pos = (618,0);
},
{
name = top;
pos = (336,838);
},
{
name = top_low;
pos = (584,707);
}
);
layerId = "75918100-ED89-42A8-B0FE-888EB9C86810";
shapes = (
{
closed = 1;
nodes = (
(24,-1,o),
(62,0,o),
(100,0,cs),
(137,0,o),
(174,-1,o),
(212,-3,c),
(221,-3,o),
(221,42,o),
(212,42,cs),
(148,42,o),
(130,56,o),
(146,98,cs),
(204,255,l),
(409,255,l),
(461,99,ls),
(477,52,o),
(466,42,o),
(419,42,cs),
(409,42,o),
(409,-3,o),
(419,-3,c),
(463,-1,o),
(507,0,o),
(551,0,cs),
(595,0,o),
(639,-1,o),
(683,-3,c),
(694,-3,o),
(694,42,o),
(683,42,cs),
(628,42,o),
(599,57,o),
(584,99,cs),
(390,650,l),
(428,667,o),
(456,703,o),
(456,748,cs),
(456,808,o),
(408,857,o),
(336,857,cs),
(267,857,o),
(216,812,o),
(216,748,cs),
(216,702,o),
(244,662,o),
(290,646,c),
(85,106,ls),
(64,50,o),
(36,42,o),
(-13,42,cs),
(-23,42,o),
(-23,-3,o),
(-13,-3,c)
);
},
{
closed = 1;
nodes = (
(305,532,l),
(313,532,l),
(394,296,l),
(219,296,l)
);
},
{
closed = 1;
nodes = (
(305,680,o),
(283,706,o),
(283,748,cs),
(283,782,o),
(301,818,o),
(336,818,cs),
(368,818,o),
(389,786,o),
(389,748,cs),
(389,716,o),
(375,680,o),
(336,680,cs)
);
}
);
width = 698;
},
{
anchors = (
{
name = bottom;
pos = (329,0);
},
{
name = ogonek;
pos = (599,0);
},
{
name = top;
pos = (348,818);
},
{
name = top_low;
pos = (555,707);
}
);
layerId = "6ABD9449-5E80-4451-809E-12ADEB9E9AB4";
shapes = (
{
closed = 1;
nodes = (
(44,-1,o),
(78,0,o),
(112,0,cs),
(145,0,o),
(179,-1,o),
(212,-3,c),
(222,-3,o),
(223,31,o),
(212,31,cs),
(147,31,o),
(130,39,o),
(142,86,c),
(205,261,l),
(441,261,l),
(496,88,ls),
(510,44,o),
(498,31,o),
(451,31,cs),
(442,31,o),
(441,-3,o),
(451,-3,c),
(486,-1,o),
(521,0,o),
(557,0,cs),
(592,0,o),
(628,-1,o),
(663,-3,c),
(671,-3,o),
(671,31,o),
(663,31,cs),
(615,31,o),
(585,45,o),
(571,88,cs),
(384,657,l),
(416,671,o),
(440,701,o),
(440,741,cs),
(440,789,o),
(400,831,o),
(348,831,cs),
(301,831,o),
(254,797,o),
(254,741,cs),
(254,700,o),
(278,665,o),
(318,654,c),
(105,96,ls),
(83,39,o),
(71,31,o),
(11,31,cs),
(2,31,o),
(1,-3,o),
(11,-3,c)
);
},
{
closed = 1;
nodes = (
(327,595,l),
(336,595,l),
(431,292,l),
(214,292,l)
);
},
{
closed = 1;
nodes = (
(319,681,o),
(294,704,o),
(294,741,cs),
(294,769,o),
(313,800,o),
(348,800,cs),
(377,800,o),
(400,780,o),
(400,741,cs),
(400,710,o),
(383,681,o),
(348,681,cs)
);
}
);
width = 678;
},
{
anchors = (
{
name = bottom;
pos = (263,0);
},
{
name = ogonek;
pos = (493,0);
},
{
name = top;
pos = (279,827);
},
{
name = top_low;
pos = (462,707);
}
);
layerId = "70B83247-6FA0-4662-9656-C86DD2A17D3B";
shapes = (
{
closed = 1;
nodes = (
(33,-1,o),
(61,0,o),
(90,0,cs),
(118,0,o),
(147,-1,o),
(175,-3,c),
(183,-3,o),
(183,34,o),
(175,34,cs),
(122,34,o),
(108,47,o),
(121,92,cs),
(168,258,l),
(345,258,l),
(387,93,ls),
(399,48,o),
(395,34,o),
(353,34,cs),
(345,34,o),
(345,-3,o),
(353,-3,cs),
(384,-1,o),
(417,0,o),
(448,0,cs),
(480,0,o),
(512,-1,o),
(544,-3,c),
(552,-3,o),
(552,34,o),
(544,34,cs),
(503,34,o),
(480,48,o),
(468,93,cs),
(314,653,l),
(344,669,o),
(364,702,o),
(364,744,cs),
(364,798,o),
(329,843,o),
(279,843,cs),
(232,843,o),
(192,804,o),
(192,744,cs),
(192,701,o),
(214,665,o),
(249,650,c),
(81,101,ls),
(64,47,o),
(47,34,o),
(4,34,cs),
(-4,34,o),
(-4,-3,o),
(4,-3,c)
);
},
{
closed = 1;
nodes = (
(258,567,l),
(264,567,l),
(334,294,l),
(179,294,l)
);
},
{
closed = 1;
nodes = (
(255,681,o),
(236,705,o),
(236,744,cs),
(236,775,o),
(251,809,o),
(279,809,cs),
(303,809,o),
(321,782,o),
(321,744,cs),
(321,713,o),
(308,681,o),
(279,681,cs)
);
}
);
width = 557;
},
{
anchors = (
{
name = bottom;
pos = (388,0);
},
{
name = ogonek;
pos = (714,0);
},
{
name = top;
pos = (411,818);
},
{
name = top_low;
pos = (647,707);
}
);
layerId = "9E6FDE2E-55A6-44A9-9556-F1822294BF26";
shapes = (
{
closed = 1;
nodes = (
(46,-1,o),
(87,0,o),
(128,0,cs),
(168,0,o),
(208,-1,o),
(250,-3,c),
(261,-3,o),
(262,34,o),
(250,34,cs),
(174,34,o),
(147,44,o),
(166,86,cs),
(241,259,l),
(523,259,l),
(587,88,ls),
(600,57,o),
(586,34,o),
(533,34,cs),
(522,34,o),
(521,-3,o),
(533,-3,c),
(577,-1,o),
(620,0,o),
(663,0,cs),
(706,0,o),
(749,-1,o),
(792,-3,c),
(801,-3,o),
(802,34,o),
(792,34,cs),
(733,34,o),
(693,57,o),
(681,88,cs),
(457,657,l),
(493,670,o),
(524,700,o),
(524,741,cs),
(524,789,o),
(476,832,o),
(411,832,cs),
(353,832,o),
(297,797,o),
(297,741,cs),
(297,699,o),
(325,665,o),
(374,654,c),
(119,96,ls),
(94,40,o),
(73,34,o),
(6,34,cs),
(-5,34,o),
(-6,-3,o),
(6,-3,c)
);
},
{
closed = 1;
nodes = (
(386,594,l),
(396,594,l),
(510,293,l),
(255,293,l)
);
},
{
closed = 1;
nodes = (
(376,681,o),
(347,704,o),
(347,741,cs),
(347,769,o),
(369,801,o),
(411,801,cs),
(446,801,o),
(474,780,o),
(474,741,cs),
(474,710,o),
(454,681,o),
(411,681,cs)
);
}
);
width = 809;
},
{
anchors = (
{
name = bottom;
pos = (325,0);
},
{
name = ogonek;
pos = (604,0);
},
{
name = top;
pos = (345,823);
},
{
name = top_low;
pos = (555,707);
}
);
layerId = "00F4936D-6309-4DEC-83B3-42806ED1A477";
shapes = (
{
closed = 1;
nodes = (
(40,-1,o),
(74,0,o),
(109,0,cs),
(143,0,o),
(178,-1,o),
(212,-3,c),
(222,-3,o),
(222,34,o),
(212,34,cs),
(148,34,o),
(127,43,o),
(143,89,cs),
(204,259,l),
(433,259,l),
(487,91,ls),
(500,51,o),
(490,34,o),
(443,34,cs),
(434,34,o),
(433,-3,o),
(443,-3,c),
(480,-1,o),
(518,0,o),
(556,0,cs),
(593,0,o),
(630,-1,o),
(668,-3,c),
(677,-3,o),
(677,34,o),
(668,34,cs),
(618,34,o),
(587,53,o),
(574,91,cs),
(386,655,l),
(418,670,o),
(444,701,o),
(444,743,cs),
(444,793,o),
(402,837,o),
(345,837,cs),
(292,837,o),
(245,801,o),
(245,743,cs),
(245,700,o),
(270,665,o),
(311,652,c),
(100,98,ls),
(79,42,o),
(63,34,o),
(5,34,cs),
(-4,34,o),
(-5,-3,o),
(5,-3,c)
);
},
{
closed = 1;
nodes = (
(322,581,l),
(330,581,l),
(422,293,l),
(215,293,l)
);
},
{
closed = 1;
nodes = (
(315,681,o),
(292,705,o),
(292,743,cs),
(292,772,o),
(310,805,o),
(345,805,cs),
(375,805,o),
(397,781,o),
(397,743,cs),
(397,712,o),
(381,681,o),
(345,681,cs)
);
}
);
width = 683;
}
);
unicode = 197;
}
{
glyphname = Uogonek;
kernLeft = KO_U;
kernRight = KO_U;
layers = (
{
anchors = (
{
name = bottom;
pos = (423,-251);
},
{
name = ogonek_above;
pos = (220,653);
},
{
name = top;
pos = (390,663);
},
{
name = topright;
pos = (717,663);
},
{
name = zzcurly;
pos = (494,655);
}
);
layerId = master01;
shapes = (
{
closed = 1;
nodes = (
(463,-251,o),
(495,-236,o),
(523,-198,c),
(523,-189,o),
(520,-183,o),
(513,-180,c),
(499,-192,o),
(482,-197,o),
(465,-197,cs),
(423,-197,o),
(403,-166,o),
(403,-125,cs),
(403,-85,o),
(424,-29,o),
(505,13,cs),
(538,30,o),
(578,62,o),
(599,112,cs),
(620,162,o),
(629,243,o),
(629,356,cs),
(629,572,ls),
(629,610,o),
(659,628,o),
(717,628,cs),
(727,628,o),
(726,666,o),
(717,666,c),
(678,664,o),
(640,663,o),
(601,663,cs),
(562,663,o),
(523,664,o),
(484,666,c),
(475,666,o),
(475,628,o),
(484,628,cs),
(545,628,o),
(576,610,o),
(576,572,cs),
(576,238,ls),
(576,91,o),
(515,23,o),
(382,23,cs),
(260,23,o),
(205,99,o),
(205,264,cs),
(205,572,ls),
(205,610,o),
(238,628,o),
(305,628,cs),
(314,628,o),
(314,666,o),
(305,666,c),
(260,664,o),
(215,663,o),
(170,663,cs),
(125,663,o),
(80,664,o),
(35,666,c),
(25,666,o),
(26,628,o),
(35,628,cs),
(95,628,o),
(125,610,o),
(125,572,cs),
(125,263,ls),
(125,202,o),
(133,148,o),
(147,109,cs),
(178,26,o),
(250,-13,o),
(370,-13,cs),
(390,-13,o),
(408,-12,o),
(425,-9,c),
(365,-57,o),
(334,-106,o),
(334,-156,cs),
(334,-204,o),
(363,-251,o),
(427,-251,cs)
);
}
);
width = 731;
},
{
anchors = (
{
name = bottom;
pos = (436,-251);
},
{
name = ogonek_above;
pos = (231,653);
},
{
name = top;
pos = (387,663);
},
{
name = topright;
pos = (718,663);
},
{
name = zzcurly;
pos = (501,655);
}
);
layerId = "75918100-ED89-42A8-B0FE-888EB9C86810";
shapes = (
{
closed = 1;
nodes = (
(481,-251,o),
(516,-233,o),
(541,-196,c),
(541,-185,o),
(538,-179,o),
(532,-177,c),
(518,-187,o),
(501,-192,o),
(481,-192,cs),
(441,-192,o),
(421,-169,o),
(421,-125,cs),
(421,-68,o),
(458,-15,o),
(520,18,cs),
(554,36,o),
(591,67,o),
(611,112,cs),
(633,162,o),
(643,243,o),
(643,356,cs),
(643,563,ls),
(643,601,o),
(667,620,o),
(718,620,cs),
(727,620,o),
(728,666,o),
(718,666,c),
(681,664,o),
(644,663,o),
(606,663,cs),
(569,663,o),
(532,664,o),
(495,666,c),
(485,666,o),
(485,620,o),
(495,620,cs),
(546,620,o),
(572,601,o),
(572,563,cs),
(572,238,ls),
(572,101,o),
(513,33,o),
(393,33,cs),
(266,33,o),
(226,89,o),
(226,264,cs),
(226,563,ls),
(226,601,o),
(253,620,o),
(310,620,cs),
(319,620,o),
(319,666,o),
(310,666,c),
(263,664,o),
(216,663,o),
(170,663,cs),
(123,663,o),
(77,664,o),
(30,666,c),
(20,666,o),
(20,620,o),
(30,620,cs),
(80,620,o),
(105,601,o),
(105,563,cs),
(105,263,ls),
(105,202,o),
(114,148,o),
(128,109,cs),
(159,21,o),
(238,-13,o),
(367,-13,cs),
(389,-13,o),
(409,-12,o),
(428,-9,c),
(362,-65,o),
(335,-109,o),
(335,-157,cs),
(335,-216,o),
(373,-251,o),
(436,-251,cs)
);
}
);
width = 730;
},
{
anchors = (
{
name = bottom;
pos = (378,0);
},
{
name = ogonek_above;
pos = (242,653);
},
{
name = top;
pos = (393,663);
},
{
name = topright;
pos = (718,663);
},
{
name = zzcurly;
pos = (489,655);
}
);
layerId = "6ABD9449-5E80-4451-809E-12ADEB9E9AB4";
shapes = (
{
closed = 1;
nodes = (
(457,-251,o),
(488,-237,o),
(517,-199,c),
(517,-190,o),
(514,-184,o),
(507,-181,c),
(493,-194,o),
(476,-199,o),
(460,-199,cs),
(417,-199,o),
(397,-165,o),
(397,-125,cs),
(397,-91,o),
(411,-29,o),
(500,12,cs),
(546,33,o),
(579,67,o),
(597,112,cs),
(617,162,o),
(626,243,o),
(626,356,cs),
(626,575,ls),
(626,613,o),
(657,631,o),
(718,631,cs),
(728,631,o),
(727,666,o),
(718,666,c),
(679,664,o),
(639,663,o),
(600,663,cs),
(561,663,o),
(521,664,o),
(481,666,c),
(472,666,o),
(473,631,o),
(481,631,cs),
(546,631,o),
(578,613,o),
(578,575,cs),
(578,238,ls),
(578,85,o),
(519,20,o),
(380,20,cs),
(253,20,o),
(199,93,o),
(199,264,cs),
(199,575,ls),
(199,623,o),
(235,631,o),
(305,631,cs),
(314,631,o),
(313,666,o),
(305,666,c),
(261,664,o),
(216,663,o),
(171,663,cs),
(127,663,o),
(82,664,o),
(38,666,c),
(28,666,o),
(29,631,o),
(38,631,cs),
(101,631,o),
(133,623,o),
(133,575,cs),
(133,263,ls),
(133,202,o),
(141,148,o),
(155,109,cs),
(185,27,o),
(255,-13,o),
(373,-13,cs),
(391,-13,o),
(408,-12,o),
(424,-10,c),
(366,-55,o),
(334,-105,o),
(334,-157,cs),
(334,-204,o),
(360,-251,o),
(424,-251,cs)
);
}
);
width = 732;
},
{
anchors = (
{
name = bottom;
pos = (362,-251);
},
{
name = ogonek_above;
pos = (190,653);
},
{
name = top;
pos = (329,663);
},
{
name = topright;
pos = (607,663);
},
{
name = zzcurly;
pos = (420,655);
}
);
layerId = "70B83247-6FA0-4662-9656-C86DD2A17D3B";
shapes = (
{
closed = 1;
nodes = (
(397,-251,o),
(425,-236,o),
(448,-198,c),
(448,-191,o),
(444,-185,o),
(438,-183,c),
(428,-193,o),
(414,-199,o),
(398,-199,cs),
(364,-199,o),
(347,-168,o),
(347,-125,cs),
(347,-83,o),
(370,-27,o),
(432,13,cs),
(460,31,o),
(492,62,o),
(510,111,cs),
(528,161,o),
(536,242,o),
(536,356,cs),
(536,571,ls),
(536,610,o),
(560,628,o),
(607,628,cs),
(615,628,o),
(615,666,o),
(607,666,c),
(574,664,o),
(543,663,o),
(510,663,cs),
(478,663,o),
(445,664,o),
(413,666,c),
(405,666,o),
(405,628,o),
(413,628,cs),
(461,628,o),
(486,610,o),
(486,571,cs),
(486,238,ls),
(486,91,o),
(435,23,o),
(327,23,cs),
(222,23,o),
(180,97,o),
(180,264,cs),
(180,571,ls),
(180,610,o),
(206,628,o),
(260,628,cs),
(268,628,o),
(268,666,o),
(260,666,c),
(221,664,o),
(183,663,o),
(144,663,cs),
(105,663,o),
(68,664,o),
(29,666,c),
(21,666,o),
(21,628,o),
(29,628,cs),
(76,628,o),
(100,610,o),
(100,571,cs),
(100,263,ls),
(100,199,o),
(108,144,o),
(120,107,cs),
(147,23,o),
(212,-13,o),
(312,-13,cs),
(330,-13,o),
(346,-12,o),
(361,-9,c),
(309,-57,o),
(283,-105,o),
(283,-156,cs),
(283,-205,o),
(310,-251,o),
(364,-251,cs)
);
}
);
width = 619;
},
{
anchors = (
{
name = bottom;
pos = (484,-251);
},
{
name = ogonek_above;
pos = (250,653);
},
{
name = top;
pos = (451,663);
},
{
name = topright;
pos = (827,663);
},
{
name = zzcurly;
pos = (568,655);
}
);
layerId = "9E6FDE2E-55A6-44A9-9556-F1822294BF26";
shapes = (
{
closed = 1;
nodes = (
(529,-251,o),
(565,-236,o),
(598,-198,c),
(598,-187,o),
(596,-181,o),
(588,-177,c),
(570,-191,o),
(550,-195,o),
(532,-195,cs),
(482,-195,o),
(459,-164,o),
(459,-125,cs),
(459,-87,o),
(478,-31,o),
(578,13,cs),
(616,29,o),
(664,62,o),
(688,113,cs),
(712,163,o),
(722,244,o),
(722,356,cs),
(722,573,ls),
(722,610,o),
(758,628,o),
(827,628,cs),
(839,628,o),
(837,666,o),
(827,666,c),
(782,664,o),
(737,663,o),
(692,663,cs),
(646,663,o),
(601,664,o),
(555,666,c),
(545,666,o),
(545,628,o),
(555,628,cs),
(629,628,o),
(666,610,o),
(666,573,cs),
(666,238,ls),
(666,91,o),
(595,23,o),
(437,23,cs),
(298,23,o),
(230,101,o),
(230,264,cs),
(230,573,ls),
(230,610,o),
(270,628,o),
(350,628,cs),
(360,628,o),
(360,666,o),
(350,666,c),
(299,664,o),
(247,663,o),
(196,663,cs),
(145,663,o),
(92,664,o),
(41,666,c),
(29,666,o),
(31,628,o),
(41,628,cs),
(114,628,o),
(150,610,o),
(150,573,cs),
(150,263,ls),
(150,205,o),
(158,152,o),
(174,111,cs),
(209,29,o),
(288,-13,o),
(428,-13,cs),
(450,-13,o),
(470,-12,o),
(489,-9,c),
(421,-57,o),
(385,-107,o),
(385,-156,cs),
(385,-203,o),
(416,-251,o),
(490,-251,cs)
);
}
);
width = 843;
},
{
anchors = (
{
name = bottom;
pos = (423,-251);
},
{
name = ogonek_above;
pos = (220,653);
},
{
name = top;
pos = (390,663);
},
{
name = topright;
pos = (717,663);
},
{
name = zzcurly;
pos = (494,655);
}
);
layerId = "00F4936D-6309-4DEC-83B3-42806ED1A477";
shapes = (
{
closed = 1;
nodes = (
(463,-251,o),
(495,-236,o),
(523,-198,c),
(523,-189,o),
(520,-183,o),
(513,-180,c),
(499,-192,o),
(482,-197,o),
(465,-197,cs),
(423,-197,o),
(403,-166,o),
(403,-125,cs),
(403,-85,o),
(424,-29,o),
(505,13,cs),
(538,30,o),
(578,62,o),
(599,112,cs),
(620,162,o),
(629,243,o),
(629,356,cs),
(629,572,ls),
(629,610,o),
(659,628,o),
(717,628,cs),
(727,628,o),
(726,666,o),
(717,666,c),
(678,664,o),
(640,663,o),
(601,663,cs),
(562,663,o),
(523,664,o),
(484,666,c),
(475,666,o),
(475,628,o),
(484,628,cs),
(545,628,o),
(576,610,o),
(576,572,cs),
(576,238,ls),
(576,91,o),
(515,23,o),
(382,23,cs),
(260,23,o),
(205,99,o),
(205,264,cs),
(205,572,ls),
(205,610,o),
(238,628,o),
(305,628,cs),
(314,628,o),
(314,666,o),
(305,666,c),
(260,664,o),
(215,663,o),
(170,663,cs),
(125,663,o),
(80,664,o),
(35,666,c),
(25,666,o),
(26,628,o),
(35,628,cs),
(95,628,o),
(125,610,o),
(125,572,cs),
(125,263,ls),
(125,202,o),
(133,148,o),
(147,109,cs),
(178,26,o),
(250,-13,o),
(370,-13,cs),
(390,-13,o),
(408,-12,o),
(425,-9,c),
(365,-57,o),
(334,-106,o),
(334,-156,cs),
(334,-204,o),
(363,-251,o),
(427,-251,cs)
);
}
);
width = 731;
}
);
metricLeft = U;
metricRight = U;
unicode = 370;
userData = {
KernOnSpecialSpacing = {
L = NoKerning;
R = NoKerning;
};
};
}
{
glyphname = Oi;
layers = (
{
layerId = master01;
shapes = (
{
closed = 1;
nodes = (
(532,-13,o),
(671,140,o),
(671,332,cs),
(671,523,o),
(532,676,o),
(356,676,cs),
(180,676,o),
(40,523,o),
(40,332,cs),
(40,140,o),
(180,-13,o),
(356,-13,cs)
);
},
{
closed = 1;
nodes = (
(229,23,o),
(134,156,o),
(134,333,cs),
(134,509,o),
(229,642,o),
(356,642,cs),
(483,642,o),
(578,509,o),
(578,333,cs),
(578,156,o),
(483,23,o),
(356,23,cs)
);
},
{
closed = 1;
nodes = (
(715,-221,o),
(757,-220,o),
(799,-220,cs),
(841,-220,o),
(884,-221,o),
(926,-224,c),
(935,-224,o),
(935,-187,o),
(926,-187,cs),
(867,-187,o),
(838,-168,o),
(838,-129,cs),
(838,468,ls),
(838,569,o),
(821,609,o),
(786,639,cs),
(757,664,o),
(722,676,o),
(683,676,cs),
(616,676,o),
(565,657,o),
(524,612,c),
(549,590,l),
(577,626,o),
(615,642,o),
(663,642,cs),
(721,642,o),
(760,598,o),
(760,517,cs),
(760,-129,ls),
(760,-168,o),
(731,-187,o),
(673,-187,cs),
(663,-187,o),
(664,-224,o),
(673,-224,c)
);
}
);
width = 969;
},
{
layerId = "75918100-ED89-42A8-B0FE-888EB9C86810";
shapes = (
{
closed = 1;
nodes = (
(555,-13,o),
(699,135,o),
(699,332,cs),
(699,528,o),
(555,676,o),
(364,676,cs),
(172,676,o),
(28,528,o),
(28,332,cs),
(28,135,o),
(172,-13,o),
(364,-13,cs)
);
},
{
closed = 1;
nodes = (
(248,33,o),
(161,162,o),
(161,333,cs),
(161,504,o),
(248,633,o),
(364,633,cs),
(479,633,o),
(566,504,o),
(566,333,cs),
(566,162,o),
(479,33,o),
(364,33,cs)
);
},
{
closed = 1;
nodes = (
(748,-221,o),
(799,-220,o),
(850,-220,cs),
(901,-220,o),
(951,-221,o),
(1002,-224,c),
(1012,-224,o),
(1012,-187,o),
(1002,-187,cs),
(944,-187,o),
(914,-168,o),
(914,-129,cs),
(914,468,ls),
(914,569,o),
(895,611,o),
(857,639,cs),
(824,663,o),
(777,676,o),
(716,676,cs),
(643,676,o),
(586,656,o),
(541,605,c),
(573,575,l),
(612,618,o),
(640,632,o),
(680,632,cs),
(746,632,o),
(784,592,o),
(784,517,cs),
(784,-129,ls),
(784,-168,o),
(755,-187,o),
(697,-187,cs),
(688,-187,o),
(688,-224,o),
(697,-224,c)
);
}
);
width = 1034;
},
{
layerId = "6ABD9449-5E80-4451-809E-12ADEB9E9AB4";
shapes = (
{
closed = 1;
nodes = (
(523,-13,o),
(661,141,o),
(661,332,cs),
(661,522,o),
(523,676,o),
(352,676,cs),
(182,676,o),
(44,522,o),
(44,332,cs),
(44,141,o),
(182,-13,o),
(352,-13,cs)
);
},
{
closed = 1;
nodes = (
(222,20,o),
(124,154,o),
(124,333,cs),
(124,511,o),
(222,645,o),
(352,645,cs),
(483,645,o),
(581,511,o),
(581,333,cs),
(581,154,o),
(483,20,o),
(352,20,cs)
);
},
{
closed = 1;
nodes = (
(703,-221,o),
(746,-220,o),
(788,-220,cs),
(830,-220,o),
(872,-221,o),
(914,-224,c),
(924,-224,o),
(924,-187,o),
(914,-187,cs),
(856,-187,o),
(827,-168,o),
(827,-129,cs),
(827,468,ls),
(827,569,o),
(809,609,o),
(775,639,cs),
(745,664,o),
(711,676,o),
(671,676,cs),
(605,676,o),
(554,657,o),
(513,612,c),
(537,590,l),
(565,626,o),
(604,642,o),
(652,642,cs),
(709,642,o),
(748,598,o),
(748,517,cs),
(748,-129,ls),
(748,-168,o),
(720,-187,o),
(662,-187,cs),
(652,-187,o),
(653,-224,o),
(662,-224,c)
);
}
);
width = 961;
},
{
layerId = "70B83247-6FA0-4662-9656-C86DD2A17D3B";
shapes = (
{
closed = 1;
nodes = (
(436,-13,o),
(550,140,o),
(550,332,cs),
(550,523,o),
(436,676,o),
(292,676,cs),
(148,676,o),
(34,523,o),
(34,332,cs),
(34,140,o),
(148,-13,o),
(292,-13,cs)
);
},
{
closed = 1;
nodes = (
(195,23,o),
(127,151,o),
(127,333,cs),
(127,514,o),
(195,642,o),
(292,642,cs),
(389,642,o),
(457,514,o),
(457,333,cs),
(457,151,o),
(389,23,o),
(292,23,cs)
);
},
{
closed = 1;
nodes = (
(585,-221,o),
(621,-220,o),
(657,-220,cs),
(693,-220,o),
(729,-221,o),
(765,-224,c),
(772,-224,o),
(772,-187,o),
(765,-187,cs),
(719,-187,o),
(695,-168,o),
(695,-129,cs),
(695,468,ls),
(695,568,o),
(681,610,o),
(652,639,cs),
(627,664,o),
(597,676,o),
(559,676,cs),
(504,676,o),
(462,656,o),
(428,610,c),
(450,586,l),
(475,624,o),
(503,639,o),
(539,639,cs),
(587,639,o),
(619,597,o),
(619,517,cs),
(619,-129,ls),
(619,-168,o),
(595,-187,o),
(549,-187,cs),
(541,-187,o),
(542,-224,o),
(549,-224,c)
);
}
);
width = 801;
},
{
layerId = "9E6FDE2E-55A6-44A9-9556-F1822294BF26";
shapes = (
{
closed = 1;
nodes = (
(620,-13,o),
(785,140,o),
(785,332,cs),
(785,523,o),
(620,676,o),
(413,676,cs),
(205,676,o),
(40,523,o),
(40,332,cs),
(40,140,o),
(205,-13,o),
(413,-13,cs)
);
},
{
closed = 1;
nodes = (
(257,23,o),
(133,160,o),
(133,333,cs),
(133,505,o),
(257,642,o),
(413,642,cs),
(569,642,o),
(692,505,o),
(692,333,cs),
(692,160,o),
(569,23,o),
(413,23,cs)
);
},
{
closed = 1;
nodes = (
(827,-221,o),
(877,-220,o),
(925,-220,cs),
(972,-220,o),
(1022,-221,o),
(1070,-224,c),
(1081,-224,o),
(1082,-187,o),
(1070,-187,cs),
(999,-187,o),
(964,-168,o),
(964,-129,cs),
(964,468,ls),
(964,570,o),
(944,609,o),
(904,639,cs),
(869,665,o),
(830,676,o),
(789,676,cs),
(711,676,o),
(651,657,o),
(603,614,c),
(631,594,l),
(661,629,o),
(711,644,o),
(771,644,cs),
(837,644,o),
(884,600,o),
(884,517,cs),
(884,-129,ls),
(884,-168,o),
(850,-187,o),
(779,-187,cs),
(769,-187,o),
(769,-224,o),
(779,-224,c)
);
}
);
width = 1114;
},
{
layerId = "00F4936D-6309-4DEC-83B3-42806ED1A477";
shapes = (
{
closed = 1;
nodes = (
(532,-13,o),
(671,140,o),
(671,332,cs),
(671,523,o),
(532,676,o),
(356,676,cs),
(180,676,o),
(40,523,o),
(40,332,cs),
(40,140,o),
(180,-13,o),
(356,-13,cs)
);
},
{
closed = 1;
nodes = (
(229,23,o),
(134,156,o),
(134,333,cs),
(134,509,o),
(229,642,o),
(356,642,cs),
(483,642,o),
(578,509,o),
(578,333,cs),
(578,156,o),
(483,23,o),
(356,23,cs)
);
},
{
closed = 1;
nodes = (
(715,-221,o),
(757,-220,o),
(799,-220,cs),
(841,-220,o),
(884,-221,o),
(926,-224,c),
(935,-224,o),
(935,-187,o),
(926,-187,cs),
(867,-187,o),
(838,-168,o),
(838,-129,cs),
(838,468,ls),
(838,569,o),
(821,609,o),
(786,639,cs),
(757,664,o),
(722,676,o),
(683,676,cs),
(616,676,o),
(565,657,o),
(524,612,c),
(549,590,l),
(577,626,o),
(615,642,o),
(663,642,cs),
(721,642,o),
(760,598,o),
(760,517,cs),
(760,-129,ls),
(760,-168,o),
(731,-187,o),
(673,-187,cs),
(663,-187,o),
(664,-224,o),
(673,-224,c)
);
}
);
width = 969;
}
);
metricLeft = O;
metricRight = I;
unicode = 418;
}
{
glyphname = Ezhreversed;
layers = (
{
anchors = (
{
name = bottom;
pos = (329,11);
},
{
name = top;
pos = (293,663);
}
);
layerId = master01;
shapes = (
{
closed = 1;
nodes = (
(407,-13,o),
(479,25,o),
(479,80,cs),
(479,104,o),
(463,121,o),
(440,121,cs),
(420,121,o),
(400,105,o),
(378,72,cs),
(357,40,o),
(327,23,o),
(285,23,cs),
(194,23,o),
(152,101,o),
(152,208,cs),
(152,327,o),
(201,396,o),
(281,396,cs),
(322,396,o),
(354,379,o),
(391,342,cs),
(398,335,o),
(423,376,o),
(418,379,cs),
(335,421,o),
(223,526,o),
(160,590,c),
(165,596,l),
(358,596,ls),
(410,596,o),
(422,579,o),
(447,528,cs),
(449,525,o),
(459,527,o),
(458,531,cs),
(441,651,ls),
(440,659,o),
(437,663,o),
(428,663,cs),
(181,663,ls),
(150,663,o),
(119,665,o),
(88,665,cs),
(77,665,o),
(72,660,o),
(72,651,cs),
(72,644,o),
(73,639,o),
(75,636,cs),
(131,556,o),
(203,487,o),
(280,426,c),
(278,422,l),
(262,425,o),
(247,426,o),
(232,426,cs),
(125,426,o),
(59,347,o),
(59,221,cs),
(59,71,o),
(160,-13,o),
(306,-13,cs)
);
}
);
width = 523;
},
{
anchors = (
{
name = bottom;
pos = (294,11);
},
{
name = top;
pos = (258,663);
}
);
layerId = "75918100-ED89-42A8-B0FE-888EB9C86810";
shapes = (
{
closed = 1;
nodes = (
(409,-13,o),
(483,27,o),
(483,84,cs),
(483,115,o),
(464,136,o),
(436,136,cs),
(411,136,o),
(389,120,o),
(369,87,cs),
(348,54,o),
(324,38,o),
(289,38,cs),
(213,38,o),
(181,112,o),
(181,207,cs),
(181,320,o),
(222,379,o),
(294,379,cs),
(330,379,o),
(355,364,o),
(386,334,cs),
(399,321,o),
(429,374,o),
(421,377,cs),
(339,416,o),
(239,513,o),
(175,577,c),
(182,586,l),
(352,586,ls),
(404,586,o),
(422,569,o),
(440,519,cs),
(443,511,o),
(468,513,o),
(466,521,cs),
(446,651,ls),
(444,659,o),
(441,663,o),
(433,663,cs),
(176,663,ls),
(145,663,o),
(114,665,o),
(83,665,cs),
(72,665,o),
(67,660,o),
(67,651,cs),
(67,644,o),
(68,639,o),
(70,636,cs),
(127,555,o),
(194,487,o),
(270,423,c),
(268,418,l),
(252,421,o),
(237,423,o),
(222,423,cs),
(114,424,o),
(47,343,o),
(47,224,cs),
(47,70,o),
(160,-13,o),
(304,-13,cs)
);
}
);
width = 519;
},
{
anchors = (
{
name = bottom;
pos = (328,11);
},
{
name = top;
pos = (292,663);
}
);
layerId = "6ABD9449-5E80-4451-809E-12ADEB9E9AB4";
shapes = (
{
closed = 1;
nodes = (
(408,-13,o),
(479,25,o),
(479,80,cs),
(479,102,o),
(465,116,o),
(444,116,cs),
(426,116,o),
(406,100,o),
(384,67,cs),
(362,35,o),
(330,19,o),
(286,19,cs),
(190,19,o),
(145,97,o),
(145,209,cs),
(145,330,o),
(196,402,o),
(279,402,cs),
(322,402,o),
(356,384,o),
(395,344,cs),
(399,339,o),
(423,377,o),
(419,379,cs),
(335,423,o),
(219,531,o),
(157,594,c),
(161,600,l),
(362,600,ls),
(414,600,o),
(424,582,o),
(452,531,cs),
(453,530,o),
(458,531,o),
(458,534,cs),
(442,651,ls),
(441,659,o),
(437,663,o),
(428,663,cs),
(185,663,ls),
(154,663,o),
(123,665,o),
(92,665,cs),
(81,665,o),
(76,660,o),
(76,651,cs),
(76,644,o),
(77,639,o),
(79,636,cs),
(137,556,o),
(208,489,o),
(286,427,c),
(284,422,l),
(268,425,o),
(252,427,o),
(237,427,cs),
(131,427,o),
(65,348,o),
(65,220,cs),
(65,72,o),
(163,-13,o),
(308,-13,cs)
);
}
);
width = 528;
},
{
anchors = (
{
name = bottom;
pos = (262,11);
},
{
name = top;
pos = (248,663);
}
);
layerId = "70B83247-6FA0-4662-9656-C86DD2A17D3B";
shapes = (
{
closed = 1;
nodes = (
(332,-13,o),
(390,25,o),
(390,80,cs),
(390,104,o),
(377,121,o),
(357,121,cs),
(340,121,o),
(323,105,o),
(306,72,cs),
(289,40,o),
(267,23,o),
(237,23,cs),
(170,23,o),
(143,108,o),
(143,209,cs),
(143,328,o),
(178,391,o),
(237,391,cs),
(268,391,o),
(291,374,o),
(317,340,cs),
(325,330,o),
(346,375,o),
(341,379,cs),
(275,417,o),
(185,527,o),
(136,590,c),
(142,599,l),
(285,599,ls),
(322,599,o),
(338,589,o),
(363,526,cs),
(365,522,o),
(376,524,o),
(375,529,cs),
(361,651,ls),
(360,659,o),
(357,663,o),
(350,663,cs),
(149,663,ls),
(125,663,o),
(100,665,o),
(75,665,cs),
(67,665,o),
(62,660,o),
(62,650,cs),
(62,643,o),
(63,638,o),
(68,630,cs),
(110,558,o),
(166,489,o),
(226,427,c),
(223,421,l),
(211,424,o),
(200,425,o),
(189,425,cs),
(103,425,o),
(50,345,o),
(50,222,cs),
(50,71,o),
(135,-13,o),
(249,-13,cs)
);
}
);
width = 428;
},
{
anchors = (
{
name = bottom;
pos = (395,11);
},
{
name = top;
pos = (352,663);
}
);
layerId = "9E6FDE2E-55A6-44A9-9556-F1822294BF26";
shapes = (
{
closed = 1;
nodes = (
(485,-13,o),
(570,25,o),
(570,80,cs),
(570,104,o),
(552,121,o),
(526,121,cs),
(504,121,o),
(480,105,o),
(454,72,cs),
(428,40,o),
(385,23,o),
(331,23,cs),
(215,23,o),
(165,98,o),
(165,207,cs),
(165,327,o),
(229,394,o),
(333,394,cs),
(383,394,o),
(425,379,o),
(471,340,cs),
(476,335,o),
(502,377,o),
(498,379,cs),
(397,425,o),
(260,528,o),
(185,590,c),
(193,593,l),
(427,593,ls),
(495,593,o),
(508,573,o),
(535,530,cs),
(536,528,o),
(545,529,o),
(544,533,cs),
(524,651,ls),
(523,659,o),
(519,663,o),
(509,663,cs),
(215,663,ls),
(178,663,o),
(142,665,o),
(104,665,cs),
(91,665,o),
(84,660,o),
(84,651,cs),
(84,644,o),
(86,639,o),
(92,632,cs),
(160,555,o),
(248,483,o),
(343,421,c),
(339,415,l),
(318,418,o),
(297,419,o),
(278,419,cs),
(149,419,o),
(71,341,o),
(71,220,cs),
(71,71,o),
(189,-13,o),
(366,-13,cs)
);
}
);
width = 623;
},
{
anchors = (
{
name = bottom;
pos = (329,11);
},
{
name = top;
pos = (293,663);
}
);
layerId = "00F4936D-6309-4DEC-83B3-42806ED1A477";
shapes = (
{
closed = 1;
nodes = (
(407,-13,o),
(479,25,o),
(479,80,cs),
(479,104,o),
(463,121,o),
(440,121,cs),
(420,121,o),
(400,105,o),
(378,72,cs),
(357,40,o),
(327,23,o),
(285,23,cs),
(194,23,o),
(152,101,o),
(152,208,cs),
(152,327,o),
(201,396,o),
(281,396,cs),
(322,396,o),
(354,379,o),
(391,342,cs),
(398,335,o),
(423,376,o),
(418,379,cs),
(335,421,o),
(223,526,o),
(160,590,c),
(165,596,l),
(358,596,ls),
(410,596,o),
(422,579,o),
(447,528,cs),
(449,525,o),
(459,527,o),
(458,531,cs),
(441,651,ls),
(440,659,o),
(437,663,o),
(428,663,cs),
(181,663,ls),
(150,663,o),
(119,665,o),
(88,665,cs),
(77,665,o),
(72,660,o),
(72,651,cs),
(72,644,o),
(73,639,o),
(75,636,cs),
(131,556,o),
(203,487,o),
(280,426,c),
(278,422,l),
(262,425,o),
(247,426,o),
(232,426,cs),
(125,426,o),
(59,347,o),
(59,221,cs),
(59,71,o),
(160,-13,o),
(306,-13,cs)
);
}
);
width = 523;
}
);
metricLeft = "=|B";
metricRight = "=|Ezh";
unicode = 440;
}
{
glyphname = uni01BB;
layers = (
{
layerId = master01;
shapes = (
{
closed = 1;
nodes = (
(410,132,o),
(405,131,o),
(403,127,cs),
(381,80,o),
(343,67,o),
(271,67,cs),
(126,67,ls),
(116,67,o),
(111,69,o),
(111,74,cs),
(111,78,o),
(114,83,o),
(119,88,cs),
(261,247,l),
(372,247,ls),
(393,247,o),
(393,292,o),
(374,292,cs),
(300,292,l),
(351,354,o),
(394,422,o),
(394,492,cs),
(394,584,o),
(338,651,o),
(242,651,cs),
(156,651,o),
(92,589,o),
(55,515,cs),
(53,511,o),
(57,507,o),
(66,501,cs),
(75,496,o),
(81,496,o),
(83,500,cs),
(116,559,o),
(156,589,o),
(203,589,cs),
(260,589,o),
(305,551,o),
(305,487,cs),
(305,431,o),
(278,366,o),
(231,292,c),
(114,292,ls),
(95,292,o),
(95,247,o),
(114,247,cs),
(199,247,l),
(149,178,o),
(84,104,o),
(8,24,cs),
(5,21,o),
(3,18,o),
(3,12,cs),
(3,2,o),
(10,-4,o),
(23,-4,cs),
(82,-1,o),
(141,0,o),
(201,0,cs),
(260,0,o),
(312,-1,o),
(356,-4,cs),
(368,-4,o),
(376,1,o),
(381,12,cs),
(430,119,ls),
(431,122,o),
(430,125,o),
(419,129,cs)
);
}
);
width = 467;
},
{
layerId = "75918100-ED89-42A8-B0FE-888EB9C86810";
shapes = (
{
closed = 1;
nodes = (
(408,149,o),
(399,148,o),
(396,142,cs),
(376,105,o),
(361,94,o),
(281,94,cs),
(165,94,ls),
(155,94,o),
(148,95,o),
(148,100,cs),
(148,104,o),
(152,110,o),
(160,118,cs),
(274,235,l),
(391,235,ls),
(410,235,o),
(408,299,o),
(393,299,cs),
(331,299,l),
(382,367,o),
(412,435,o),
(412,483,cs),
(412,578,o),
(344,651,o),
(242,651,cs),
(165,651,o),
(97,599,o),
(53,515,cs),
(50,510,o),
(54,505,o),
(62,499,cs),
(73,491,o),
(81,491,o),
(85,498,cs),
(115,551,o),
(154,578,o),
(203,578,cs),
(258,578,o),
(287,545,o),
(287,478,cs),
(287,431,o),
(259,367,o),
(217,299,c),
(93,299,ls),
(78,299,o),
(80,235,o),
(93,235,cs),
(174,235,l),
(124,164,o),
(63,93,o),
(9,39,cs),
(2,32,o),
(-1,25,o),
(-1,17,cs),
(-1,4,o),
(8,-4,o),
(25,-4,cs),
(83,-1,o),
(139,0,o),
(202,0,cs),
(268,0,o),
(307,-1,o),
(351,-4,cs),
(372,-4,o),
(385,2,o),
(390,15,cs),
(438,130,ls),
(440,135,o),
(435,139,o),
(422,144,cs)
);
}
);
width = 466;
},
{
layerId = "6ABD9449-5E80-4451-809E-12ADEB9E9AB4";
shapes = (
{
closed = 1;
nodes = (
(410,126,o),
(407,125,o),
(405,122,cs),
(383,72,o),
(337,58,o),
(268,58,cs),
(113,58,ls),
(103,58,o),
(99,61,o),
(99,66,cs),
(99,69,o),
(101,73,o),
(105,78,cs),
(256,250,l),
(363,250,ls),
(387,250,o),
(387,290,o),
(365,290,cs),
(290,290,l),
(340,349,o),
(388,417,o),
(388,495,cs),
(388,586,o),
(336,651,o),
(242,651,cs),
(153,651,o),
(90,586,o),
(56,515,cs),
(54,512,o),
(58,507,o),
(67,502,cs),
(75,498,o),
(81,497,o),
(83,500,cs),
(117,562,o),
(157,592,o),
(203,592,cs),
(261,592,o),
(311,553,o),
(311,490,cs),
(311,431,o),
(285,366,o),
(235,290,c),
(125,290,ls),
(103,290,o),
(102,250,o),
(125,250,cs),
(208,250,l),
(158,183,o),
(91,106,o),
(7,19,c),
(6,17,o),
(4,16,o),
(4,10,cs),
(4,2,o),
(10,-4,o),
(22,-4,cs),
(81,-1,o),
(141,0,o),
(200,0,cs),
(258,0,o),
(314,-1,o),
(357,-4,cs),
(366,-4,o),
(373,1,o),
(378,11,cs),
(428,116,ls),
(428,117,o),
(429,121,o),
(418,124,cs)
);
}
);
width = 467;
},
{
layerId = "70B83247-6FA0-4662-9656-C86DD2A17D3B";
shapes = (
{
closed = 1;
nodes = (
(328,137,o),
(323,136,o),
(321,131,cs),
(303,83,o),
(276,75,o),
(221,75,cs),
(113,75,ls),
(106,75,o),
(101,77,o),
(101,82,cs),
(101,85,o),
(104,91,o),
(108,97,cs),
(215,243,l),
(305,243,ls),
(321,243,o),
(320,294,o),
(307,294,cs),
(250,294,l),
(291,358,o),
(322,426,o),
(322,489,cs),
(322,582,o),
(273,651,o),
(195,651,cs),
(133,651,o),
(79,599,o),
(44,515,cs),
(43,511,o),
(45,507,o),
(53,500,cs),
(61,494,o),
(66,494,o),
(68,500,cs),
(93,556,o),
(125,585,o),
(164,585,cs),
(208,585,o),
(240,549,o),
(240,484,cs),
(240,432,o),
(217,366,o),
(181,294,c),
(86,294,ls),
(72,294,o),
(73,243,o),
(86,243,cs),
(153,243,l),
(113,173,o),
(62,100,o),
(8,28,cs),
(4,24,o),
(2,21,o),
(2,13,cs),
(2,3,o),
(9,-4,o),
(21,-4,cs),
(67,-1,o),
(112,0,o),
(162,0,cs),
(211,0,o),
(249,-1,o),
(284,-4,c),
(296,-4,o),
(305,2,o),
(309,13,cs),
(348,123,ls),
(349,125,o),
(346,130,o),
(338,133,cs)
);
}
);
width = 384;
},
{
layerId = "9E6FDE2E-55A6-44A9-9556-F1822294BF26";
shapes = (
{
closed = 1;
nodes = (
(491,126,o),
(486,126,o),
(484,123,cs),
(460,77,o),
(410,59,o),
(321,59,cs),
(139,59,ls),
(126,59,o),
(122,62,o),
(122,66,cs),
(122,70,o),
(124,74,o),
(130,79,cs),
(306,250,l),
(438,250,ls),
(465,250,o),
(465,291,o),
(440,291,cs),
(350,291,l),
(410,350,o),
(466,418,o),
(466,495,cs),
(466,586,o),
(403,651,o),
(290,651,cs),
(180,651,o),
(105,580,o),
(66,516,cs),
(63,512,o),
(68,506,o),
(79,502,cs),
(89,498,o),
(95,497,o),
(98,500,cs),
(139,562,o),
(187,592,o),
(243,592,cs),
(312,592,o),
(371,553,o),
(371,489,cs),
(371,431,o),
(339,366,o),
(281,291,c),
(142,291,ls),
(117,291,o),
(117,250,o),
(142,250,cs),
(246,250,l),
(186,183,o),
(106,107,o),
(8,20,cs),
(5,17,o),
(3,15,o),
(3,10,cs),
(3,2,o),
(11,-4,o),
(25,-4,cs),
(96,-1,o),
(169,0,o),
(239,0,cs),
(309,0,o),
(375,-1,o),
(428,-4,c),
(439,-4,o),
(447,1,o),
(453,11,cs),
(513,116,ls),
(514,118,o),
(514,121,o),
(501,125,cs)
);
}
);
width = 549;
},
{
layerId = "00F4936D-6309-4DEC-83B3-42806ED1A477";
shapes = (
{
closed = 1;
nodes = (
(410,132,o),
(405,131,o),
(403,127,cs),
(381,80,o),
(343,67,o),
(271,67,cs),
(126,67,ls),
(116,67,o),
(111,69,o),
(111,74,cs),
(111,78,o),
(114,83,o),
(119,88,cs),
(261,247,l),
(372,247,ls),
(393,247,o),
(393,292,o),
(374,292,cs),
(300,292,l),
(351,354,o),
(394,422,o),
(394,492,cs),
(394,584,o),
(338,651,o),
(242,651,cs),
(156,651,o),
(92,589,o),
(55,515,cs),
(53,511,o),
(57,507,o),
(66,501,cs),
(75,496,o),
(81,496,o),
(83,500,cs),
(116,559,o),
(156,589,o),
(203,589,cs),
(260,589,o),
(305,551,o),
(305,487,cs),
(305,431,o),
(278,366,o),
(231,292,c),
(114,292,ls),
(95,292,o),
(95,247,o),
(114,247,cs),
(199,247,l),
(149,178,o),
(84,104,o),
(8,24,cs),
(5,21,o),
(3,18,o),
(3,12,cs),
(3,2,o),
(10,-4,o),
(23,-4,cs),
(82,-1,o),
(141,0,o),
(201,0,cs),
(260,0,o),
(312,-1,o),
(356,-4,cs),
(368,-4,o),
(376,1,o),
(381,12,cs),
(430,119,ls),
(431,122,o),
(430,125,o),
(419,129,cs)
);
}
);
width = 467;
}
);
metricLeft = two;
metricRight = two;
unicode = 443;
}
{
glyphname = Wynn;
kernLeft = KO_Sinsular;
kernRight = KO_Wynn;
layers = (
{
anchors = (
{
name = bottom;
pos = (340,0);
},
{
name = top;
pos = (313,663);
}
);
layerId = master01;
shapes = (
{
closed = 1;
nodes = (
(125,-214,ls),
(169,-181,o),
(191,-152,o),
(191,-129,cs),
(191,-8,ls),
(191,10,o),
(192,27,o),
(200,40,cs),
(554,627,ls),
(557,633,o),
(559,640,o),
(559,647,cs),
(559,654,o),
(546,665,o),
(524,665,cs),
(457,665,o),
(389,665,o),
(320,664,cs),
(251,664,o),
(199,663,o),
(164,663,cs),
(128,663,o),
(80,664,o),
(21,665,cs),
(11,665,o),
(11,627,o),
(21,627,cs),
(82,627,o),
(112,609,o),
(112,574,cs),
(112,-109,ls),
(112,-125,o),
(104,-142,o),
(86,-160,cs),
(39,-208,ls),
(25,-221,o),
(60,-263,o),
(72,-253,cs)
);
},
{
closed = 1;
nodes = (
(191,102,l),
(191,627,l),
(506,628,l),
(509,624,l),
(194,101,l)
);
}
);
width = 583;
},
{
anchors = (
{
name = bottom;
pos = (345,0);
},
{
name = top;
pos = (319,663);
}
);
layerId = "75918100-ED89-42A8-B0FE-888EB9C86810";
shapes = (
{
closed = 1;
nodes = (
(175,-187,ls),
(198,-169,o),
(219,-139,o),
(219,-115,cs),
(219,-3,ls),
(219,38,o),
(225,46,o),
(250,86,cs),
(571,605,ls),
(576,612,o),
(579,624,o),
(579,638,cs),
(579,657,o),
(564,665,o),
(536,665,cs),
(477,665,o),
(417,665,o),
(356,664,cs),
(295,664,o),
(235,663,o),
(176,663,cs),
(117,663,o),
(64,665,o),
(18,666,cs),
(8,666,o),
(8,621,o),
(18,621,cs),
(80,621,o),
(101,607,o),
(101,567,cs),
(101,-104,ls),
(101,-118,o),
(101,-143,o),
(88,-154,cs),
(40,-199,ls),
(23,-214,o),
(73,-265,o),
(88,-253,cs)
);
},
{
closed = 1;
nodes = (
(219,146,l),
(219,620,l),
(511,621,l),
(515,617,l),
(223,146,l)
);
}
);
width = 598;
},
{
anchors = (
{
name = bottom;
pos = (338,0);
},
{
name = top;
pos = (312,663);
}
);
layerId = "6ABD9449-5E80-4451-809E-12ADEB9E9AB4";
shapes = (
{
closed = 1;
nodes = (
(109,-223,ls),
(161,-186,o),
(182,-157,o),
(182,-134,cs),
(182,-10,ls),
(182,1,o),
(182,21,o),
(184,25,cs),
(547,632,ls),
(551,638,o),
(552,644,o),
(552,652,cs),
(552,661,o),
(541,665,o),
(521,665,cs),
(451,665,o),
(380,665,o),
(309,664,cs),
(237,664,o),
(188,663,o),
(160,663,cs),
(132,663,o),
(86,663,o),
(22,664,cs),
(13,664,o),
(13,629,o),
(22,629,cs),
(83,629,o),
(117,610,o),
(117,576,cs),
(117,-111,ls),
(117,-128,o),
(104,-142,o),
(85,-162,cs),
(39,-210,ls),
(26,-224,o),
(56,-262,o),
(67,-253,cs)
);
},
{
closed = 1;
nodes = (
(182,88,l),
(182,630,l),
(504,631,l),
(508,626,l),
(185,87,l)
);
}
);
width = 579;
},
{
anchors = (
{
name = bottom;
pos = (276,0);
},
{
name = top;
pos = (255,663);
}
);
layerId = "70B83247-6FA0-4662-9656-C86DD2A17D3B";
shapes = (
{
closed = 1;
nodes = (
(118,-205,ls),
(146,-179,o),
(164,-149,o),
(164,-125,cs),
(164,-7,ls),
(164,19,o),
(167,33,o),
(177,54,cs),
(451,621,ls),
(454,627,o),
(456,636,o),
(456,644,cs),
(456,654,o),
(445,665,o),
(425,665,cs),
(375,665,o),
(322,665,o),
(270,664,cs),
(217,664,o),
(173,663,o),
(137,663,cs),
(98,663,o),
(54,664,o),
(18,665,cs),
(9,665,o),
(11,625,o),
(18,625,cs),
(72,625,o),
(89,605,o),
(89,572,cs),
(89,-108,ls),
(89,-123,o),
(85,-142,o),
(72,-158,cs),
(34,-205,ls),
(22,-219,o),
(58,-260,o),
(70,-249,cs)
);
},
{
closed = 1;
nodes = (
(164,117,l),
(164,625,l),
(408,626,l),
(412,622,l),
(167,116,l)
);
}
);
width = 476;
},
{
anchors = (
{
name = bottom;
pos = (405,0);
},
{
name = top;
pos = (374,663);
}
);
layerId = "9E6FDE2E-55A6-44A9-9556-F1822294BF26";
shapes = (
{
closed = 1;
nodes = (
(135,-223,ls),
(195,-186,o),
(219,-156,o),
(219,-134,cs),
(219,-10,ls),
(219,2,o),
(221,21,o),
(225,26,cs),
(659,634,ls),
(662,638,o),
(664,644,o),
(664,650,cs),
(664,655,o),
(649,665,o),
(625,665,cs),
(541,665,o),
(458,665,o),
(373,664,cs),
(288,664,o),
(227,663,o),
(191,663,cs),
(159,663,o),
(107,663,o),
(24,664,cs),
(15,664,o),
(13,629,o),
(24,629,cs),
(93,629,o),
(137,614,o),
(137,576,cs),
(137,-111,ls),
(137,-128,o),
(124,-142,o),
(101,-162,cs),
(45,-210,ls),
(29,-224,o),
(63,-266,o),
(76,-258,cs)
);
},
{
closed = 1;
nodes = (
(219,87,l),
(219,629,l),
(605,631,l),
(608,625,l),
(223,86,l)
);
}
);
width = 693;
},
{
anchors = (
{
name = bottom;
pos = (340,0);
},
{
name = top;
pos = (313,663);
}
);
layerId = "00F4936D-6309-4DEC-83B3-42806ED1A477";
shapes = (
{
closed = 1;
nodes = (
(125,-214,ls),
(169,-181,o),
(191,-152,o),
(191,-129,cs),
(191,-8,ls),
(191,10,o),
(192,27,o),
(200,40,cs),
(554,627,ls),
(557,633,o),
(559,640,o),
(559,647,cs),
(559,654,o),
(546,665,o),
(524,665,cs),
(457,665,o),
(389,665,o),
(320,664,cs),
(251,664,o),
(199,663,o),
(164,663,cs),
(128,663,o),
(80,664,o),
(21,665,cs),
(11,665,o),
(11,627,o),
(21,627,cs),
(82,627,o),
(112,609,o),
(112,574,cs),
(112,-109,ls),
(112,-125,o),
(104,-142,o),
(86,-160,cs),
(39,-208,ls),
(25,-221,o),
(60,-263,o),
(72,-253,cs)
);
},
{
closed = 1;
nodes = (
(191,102,l),
(191,627,l),
(506,628,l),
(509,624,l),
(194,101,l)
);
}
);
width = 583;
}
);
unicode = 503;
}
{
glyphname = uni0262;
kernLeft = KO_c;
layers = (
{
anchors = (
{
name = bottom;
pos = (251,0);
},
{
name = top;
pos = (251,417);
}
);
layerId = master01;
shapes = (
{
closed = 1;
nodes = (
(282,-8,o),
(318,-4,o),
(353,3,cs),
(375,8,o),
(396,10,o),
(419,10,cs),
(429,10,o),
(429,35,o),
(419,35,cs),
(411,35,o),
(406,40,o),
(406,50,cs),
(406,122,ls),
(406,141,o),
(410,146,o),
(439,146,cs),
(449,146,o),
(449,175,o),
(439,175,c),
(416,173,o),
(393,173,o),
(370,173,cs),
(338,173,o),
(308,173,o),
(276,175,c),
(266,175,o),
(267,146,o),
(276,146,cs),
(328,146,o),
(333,141,o),
(333,121,cs),
(333,51,ls),
(333,30,o),
(300,23,o),
(251,23,cs),
(170,23,o),
(107,100,o),
(107,216,cs),
(107,314,o),
(157,395,o),
(254,395,cs),
(326,395,o),
(366,364,o),
(375,303,cs),
(375,294,o),
(406,297,o),
(406,304,cs),
(406,323,o),
(401,392,o),
(393,408,c),
(390,408,o),
(377,409,o),
(369,411,cs),
(322,420,o),
(284,425,o),
(256,425,cs),
(121,425,o),
(26,330,o),
(26,199,cs),
(26,79,o),
(125,-8,o),
(248,-8,cs)
);
}
);
userData = {
RMXScaler = {
height = 91.6;
weight = 31;
width = 91.6;
};
};
width = 467;
},
{
anchors = (
{
name = bottom;
pos = (253,0);
},
{
name = top;
pos = (253,417);
}
);
layerId = "75918100-ED89-42A8-B0FE-888EB9C86810";
shapes = (
{
closed = 1;
nodes = (
(283,-8,o),
(308,-5,o),
(337,1,cs),
(367,7,o),
(400,10,o),
(429,10,cs),
(438,10,o),
(439,35,o),
(429,35,cs),
(420,35,o),
(416,40,o),
(416,50,cs),
(416,117,ls),
(416,138,o),
(420,142,o),
(449,142,cs),
(459,142,o),
(458,175,o),
(449,175,c),
(420,173,o),
(392,173,o),
(364,173,cs),
(331,173,o),
(297,173,o),
(264,175,c),
(254,175,o),
(255,142,o),
(264,142,cs),
(303,142,o),
(312,136,o),
(312,112,cs),
(312,61,ls),
(312,40,o),
(293,39,o),
(252,39,cs),
(171,39,o),
(132,116,o),
(132,216,cs),
(132,312,o),
(174,380,o),
(264,380,cs),
(330,380,o),
(368,348,o),
(378,287,cs),
(379,280,o),
(420,282,o),
(420,289,cs),
(420,307,o),
(416,392,o),
(408,408,c),
(392,409,o),
(386,409,o),
(378,411,cs),
(332,420,o),
(293,425,o),
(266,425,cs),
(126,425,o),
(21,340,o),
(21,199,cs),
(21,74,o),
(133,-8,o),
(251,-8,cs)
);
}
);
userData = {
RMXScaler = {
height = 91.6;
weight = 14;
width = 91.6;
};
};
width = 472;
},
{
anchors = (
{
name = bottom;
pos = (250,0);
},
{
name = top;
pos = (250,417);
}
);
layerId = "6ABD9449-5E80-4451-809E-12ADEB9E9AB4";
shapes = (
{
closed = 1;
nodes = (
(285,-8,o),
(321,-4,o),
(359,4,cs),
(375,7,o),
(396,10,o),
(417,10,cs),
(427,10,o),
(427,35,o),
(417,35,cs),
(408,35,o),
(404,40,o),
(404,50,cs),
(404,123,ls),
(404,143,o),
(408,147,o),
(437,147,cs),
(446,147,o),
(447,175,o),
(437,175,c),
(416,173,o),
(394,173,o),
(373,173,cs),
(343,173,o),
(312,173,o),
(282,175,c),
(271,175,o),
(272,147,o),
(282,147,cs),
(338,147,o),
(342,142,o),
(342,124,cs),
(342,48,ls),
(342,23,o),
(292,19,o),
(251,19,cs),
(170,19,o),
(100,94,o),
(100,216,cs),
(100,315,o),
(152,400,o),
(251,400,cs),
(327,400,o),
(367,369,o),
(375,308,cs),
(375,300,o),
(402,302,o),
(402,310,cs),
(402,327,o),
(398,393,o),
(389,408,c),
(381,408,o),
(374,409,o),
(366,411,cs),
(320,420,o),
(283,425,o),
(253,425,cs),
(120,425,o),
(29,326,o),
(29,199,cs),
(29,80,o),
(123,-8,o),
(248,-8,cs)
);
}
);
userData = {
RMXScaler = {
height = 91.6;
weight = 34;
width = 91.6;
};
};
width = 467;
},
{
anchors = (
{
name = bottom;
pos = (205,0);
},
{
name = top;
pos = (205,415);
}
);
layerId = "70B83247-6FA0-4662-9656-C86DD2A17D3B";
shapes = (
{
closed = 1;
nodes = (
(229,-7,o),
(250,-5,o),
(278,2,cs),
(298,8,o),
(323,11,o),
(343,11,cs),
(351,11,o),
(351,35,o),
(343,35,cs),
(337,35,o),
(333,41,o),
(333,50,cs),
(333,120,ls),
(333,136,o),
(336,144,o),
(359,144,cs),
(367,144,o),
(367,175,o),
(359,175,c),
(338,174,o),
(317,173,o),
(296,173,cs),
(270,173,o),
(244,174,o),
(218,175,c),
(210,175,o),
(210,144,o),
(218,144,cs),
(252,144,o),
(258,137,o),
(258,117,cs),
(258,57,ls),
(258,41,o),
(251,31,o),
(205,31,cs),
(140,31,o),
(102,109,o),
(102,216,cs),
(102,313,o),
(137,388,o),
(211,388,cs),
(265,388,o),
(297,356,o),
(305,295,cs),
(306,288,o),
(335,290,o),
(335,297,cs),
(335,324,o),
(332,387,o),
(325,409,c),
(314,409,o),
(311,409,o),
(303,411,cs),
(266,420,o),
(233,425,o),
(212,425,cs),
(103,425,o),
(22,335,o),
(22,199,cs),
(22,77,o),
(108,-7,o),
(203,-7,cs)
);
}
);
userData = {
RMXScaler = {
height = 91.5;
weight = 56;
width = 91.6;
};
};
width = 383;
},
{
anchors = (
{
name = bottom;
pos = (298,0);
},
{
name = top;
pos = (298,417);
}
);
layerId = "9E6FDE2E-55A6-44A9-9556-F1822294BF26";
shapes = (
{
closed = 1;
nodes = (
(336,-8,o),
(388,-4,o),
(429,3,cs),
(454,8,o),
(471,10,o),
(497,10,cs),
(508,10,o),
(509,34,o),
(497,34,cs),
(486,34,o),
(480,39,o),
(480,49,cs),
(480,124,ls),
(480,146,o),
(485,148,o),
(521,148,cs),
(532,148,o),
(533,174,o),
(521,174,c),
(496,173,o),
(470,172,o),
(445,172,cs),
(408,172,o),
(373,173,o),
(336,174,c),
(324,174,o),
(324,148,o),
(336,148,cs),
(405,148,o),
(409,145,o),
(409,125,cs),
(409,46,ls),
(409,19,o),
(350,16,o),
(299,16,cs),
(202,16,o),
(114,90,o),
(114,215,cs),
(114,316,o),
(178,402,o),
(298,402,cs),
(389,402,o),
(437,372,o),
(446,310,cs),
(446,301,o),
(479,304,o),
(479,312,cs),
(479,323,o),
(473,397,o),
(463,408,c),
(468,407,o),
(445,408,o),
(436,410,cs),
(380,419,o),
(337,424,o),
(301,424,cs),
(140,424,o),
(31,324,o),
(31,198,cs),
(31,81,o),
(143,-8,o),
(295,-8,cs)
);
}
);
width = 555;
},
{
anchors = (
{
name = bottom;
pos = (251,0);
},
{
name = top;
pos = (251,417);
}
);
layerId = "00F4936D-6309-4DEC-83B3-42806ED1A477";
shapes = (
{
closed = 1;
nodes = (
(282,-8,o),
(318,-4,o),
(353,3,cs),
(375,8,o),
(396,10,o),
(419,10,cs),
(429,10,o),
(429,35,o),
(419,35,cs),
(411,35,o),
(406,40,o),
(406,50,cs),
(406,122,ls),
(406,141,o),
(410,146,o),
(439,146,cs),
(449,146,o),
(449,175,o),
(439,175,c),
(416,173,o),
(393,173,o),
(370,173,cs),
(338,173,o),
(308,173,o),
(276,175,c),
(266,175,o),
(267,146,o),
(276,146,cs),
(328,146,o),
(333,141,o),
(333,121,cs),
(333,51,ls),
(333,30,o),
(300,23,o),
(251,23,cs),
(170,23,o),
(107,100,o),
(107,216,cs),
(107,314,o),
(157,395,o),
(254,395,cs),
(326,395,o),
(366,364,o),
(375,303,cs),
(375,294,o),
(406,297,o),
(406,304,cs),
(406,323,o),
(401,392,o),
(393,408,c),
(390,408,o),
(377,409,o),
(369,411,cs),
(322,420,o),
(284,425,o),
(256,425,cs),
(121,425,o),
(26,330,o),
(26,199,cs),
(26,79,o),
(125,-8,o),
(248,-8,cs)
);
}
);
userData = {
RMXScaler = {
height = 91.6;
weight = 31;
width = 91.6;
};
};
width = 467;
}
);
metricLeft = "=g.sc*0.9";
metricRight = "=g.sc*0.9";
unicode = 610;
userData = {
KernOnSpecialSpacing = {
L = NoKerning;
R = NoKerning;
};
RMXScaler = {
source = g.sc;
};
};
}
{
glyphname = uni0277;
kernLeft = KO_c;
layers = (
{
anchors = (
{
name = bottom;
pos = (304,0);
},
{
name = top;
pos = (304,415);
}
);
layerId = master01;
shapes = (
{
closed = 1;
nodes = (
(235,-11,o),
(277,18,o),
(306,77,c),
(332,18,o),
(372,-11,o),
(424,-11,cs),
(508,-11,o),
(585,69,o),
(585,182,cs),
(585,333,o),
(475,425,o),
(304,425,cs),
(160,425,o),
(26,358,o),
(26,192,cs),
(26,97,o),
(80,-11,o),
(180,-11,cs)
);
},
{
closed = 1;
nodes = (
(118,21,o),
(105,131,o),
(105,193,cs),
(105,338,o),
(186,396,o),
(304,396,cs),
(436,396,o),
(504,299,o),
(504,185,cs),
(504,99,o),
(482,21,o),
(415,21,cs),
(361,21,o),
(336,61,o),
(319,124,c),
(338,175,o),
(348,217,o),
(348,249,cs),
(348,290,o),
(333,342,o),
(305,342,cs),
(277,342,o),
(261,288,o),
(261,251,cs),
(261,214,o),
(272,181,o),
(293,124,c),
(274,59,o),
(245,21,o),
(192,21,cs)
);
}
);
width = 611;
},
{
anchors = (
{
name = bottom;
pos = (342,0);
},
{
name = top;
pos = (342,415);
}
);
layerId = "75918100-ED89-42A8-B0FE-888EB9C86810";
shapes = (
{
closed = 1;
nodes = (
(264,-11,o),
(311,19,o),
(339,77,c),
(367,19,o),
(415,-11,o),
(484,-11,cs),
(582,-11,o),
(665,61,o),
(665,182,cs),
(665,353,o),
(552,425,o),
(342,425,cs),
(136,425,o),
(16,356,o),
(16,182,cs),
(16,63,o),
(98,-11,o),
(198,-11,cs)
);
},
{
closed = 1;
nodes = (
(173,33,o),
(142,124,o),
(142,185,cs),
(142,292,o),
(213,383,o),
(342,383,cs),
(450,383,o),
(540,311,o),
(540,185,cs),
(540,135,o),
(516,33,o),
(451,33,cs),
(409,33,o),
(379,70,o),
(361,124,c),
(376,163,o),
(384,199,o),
(384,235,cs),
(384,275,o),
(369,324,o),
(341,324,cs),
(313,324,o),
(298,276,o),
(298,235,cs),
(298,200,o),
(305,164,o),
(320,124,c),
(303,72,o),
(273,33,o),
(231,33,cs)
);
}
);
width = 681;
},
{
anchors = (
{
name = bottom;
pos = (290,0);
},
{
name = top;
pos = (290,415);
}
);
layerId = "6ABD9449-5E80-4451-809E-12ADEB9E9AB4";
shapes = (
{
closed = 1;
nodes = (
(223,-11,o),
(264,18,o),
(294,77,c),
(319,18,o),
(356,-11,o),
(403,-11,cs),
(482,-11,o),
(557,71,o),
(557,182,cs),
(557,327,o),
(448,425,o),
(290,425,cs),
(167,425,o),
(28,359,o),
(28,195,cs),
(28,108,o),
(72,-11,o),
(173,-11,cs)
);
},
{
closed = 1;
nodes = (
(99,17,o),
(91,133,o),
(91,196,cs),
(91,353,o),
(175,400,o),
(290,400,cs),
(430,400,o),
(491,295,o),
(491,185,cs),
(491,86,o),
(469,17,o),
(402,17,cs),
(343,17,o),
(320,58,o),
(303,124,c),
(324,180,o),
(335,223,o),
(335,254,cs),
(335,295,o),
(319,348,o),
(292,348,cs),
(264,348,o),
(247,292,o),
(247,256,cs),
(247,218,o),
(259,187,o),
(282,124,c),
(263,55,o),
(235,17,o),
(177,17,cs)
);
}
);
width = 585;
},
{
anchors = (
{
name = bottom;
pos = (265,0);
},
{
name = top;
pos = (265,415);
}
);
layerId = "70B83247-6FA0-4662-9656-C86DD2A17D3B";
shapes = (
{
closed = 1;
nodes = (
(207,-11,o),
(242,18,o),
(265,77,c),
(287,18,o),
(321,-11,o),
(368,-11,cs),
(439,-11,o),
(502,66,o),
(502,182,cs),
(502,339,o),
(413,425,o),
(265,425,cs),
(131,425,o),
(28,357,o),
(28,189,cs),
(28,87,o),
(79,-11,o),
(160,-11,cs)
);
},
{
closed = 1;
nodes = (
(122,24,o),
(107,129,o),
(107,191,cs),
(107,324,o),
(168,392,o),
(265,392,cs),
(362,392,o),
(423,303,o),
(423,185,cs),
(423,110,o),
(405,24,o),
(353,24,cs),
(313,24,o),
(291,63,o),
(278,124,c),
(292,171,o),
(299,211,o),
(299,245,cs),
(299,286,o),
(287,336,o),
(265,336,cs),
(243,336,o),
(230,284,o),
(230,246,cs),
(230,210,o),
(237,176,o),
(253,124,c),
(238,63,o),
(215,24,o),
(175,24,cs)
);
}
);
width = 530;
},
{
anchors = (
{
name = bottom;
pos = (349,0);
},
{
name = top;
pos = (349,415);
}
);
layerId = "9E6FDE2E-55A6-44A9-9556-F1822294BF26";
shapes = (
{
closed = 1;
nodes = (
(267,-11,o),
(316,18,o),
(352,77,c),
(382,18,o),
(427,-11,o),
(485,-11,cs),
(582,-11,o),
(672,71,o),
(672,182,cs),
(672,328,o),
(542,425,o),
(348,425,cs),
(193,425,o),
(28,359,o),
(28,195,cs),
(28,106,o),
(85,-11,o),
(205,-11,cs)
);
},
{
closed = 1;
nodes = (
(119,18,o),
(107,133,o),
(107,196,cs),
(107,352,o),
(208,400,o),
(348,400,cs),
(515,400,o),
(590,296,o),
(590,185,cs),
(590,87,o),
(563,18,o),
(481,18,cs),
(412,18,o),
(384,59,o),
(364,124,c),
(389,179,o),
(401,223,o),
(401,253,cs),
(401,294,o),
(383,347,o),
(349,347,cs),
(316,347,o),
(296,291,o),
(296,256,cs),
(296,217,o),
(311,185,o),
(337,124,c),
(315,55,o),
(280,18,o),
(212,18,cs)
);
}
);
width = 700;
},
{
anchors = (
{
name = bottom;
pos = (304,0);
},
{
name = top;
pos = (304,415);
}
);
layerId = "00F4936D-6309-4DEC-83B3-42806ED1A477";
shapes = (
{
closed = 1;
nodes = (
(235,-11,o),
(277,18,o),
(306,77,c),
(332,18,o),
(372,-11,o),
(424,-11,cs),
(508,-11,o),
(585,69,o),
(585,182,cs),
(585,333,o),
(475,425,o),
(304,425,cs),
(160,425,o),
(26,358,o),
(26,192,cs),
(26,97,o),
(80,-11,o),
(180,-11,cs)
);
},
{
closed = 1;
nodes = (
(118,21,o),
(105,131,o),
(105,193,cs),
(105,338,o),
(186,396,o),
(304,396,cs),
(436,396,o),
(504,299,o),
(504,185,cs),
(504,99,o),
(482,21,o),
(415,21,cs),
(361,21,o),
(336,61,o),
(319,124,c),
(338,175,o),
(348,217,o),
(348,249,cs),
(348,290,o),
(333,342,o),
(305,342,cs),
(277,342,o),
(261,288,o),
(261,251,cs),
(261,214,o),
(272,181,o),
(293,124,c),
(274,59,o),
(245,21,o),
(192,21,cs)
);
}
);
width = 611;
}
);
metricLeft = o;
metricRight = o;
unicode = 631;
userData = {
KernOnSpecialSpacing = {
L = NoKerning;
R = NoKerning;
};
};
}
{
glyphname = uni028D;
layers = (
{
anchors = (
{
name = bottom;
pos = (320,0);
},
{
name = ogonek;
pos = (529,0);
},
{
name = top;
pos = (320,415);
}
);
layerId = master01;
shapes = (
{
closed = 1;
nodes = (
(17,-1,o),
(41,0,o),
(68,0,cs),
(96,0,o),
(120,-1,o),
(138,-3,c),
(150,-3,o),
(150,23,o),
(138,23,cs),
(101,23,o),
(85,37,o),
(93,60,cs),
(179,313,l),
(187,313,l),
(268,64,ls),
(277,37,o),
(263,23,o),
(232,23,cs),
(220,23,o),
(220,-3,o),
(232,-3,c),
(252,-1,o),
(281,0,o),
(319,0,cs),
(358,0,o),
(386,-1,o),
(405,-3,c),
(417,-3,o),
(417,23,o),
(405,23,cs),
(377,23,o),
(368,28,o),
(360,48,cs),
(342,90,l),
(342,58,l),
(429,313,l),
(437,313,l),
(518,64,ls),
(526,38,o),
(513,23,o),
(482,23,cs),
(470,23,o),
(470,-3,o),
(482,-3,c),
(502,-1,o),
(531,0,o),
(569,0,cs),
(608,0,o),
(636,-1,o),
(655,-3,c),
(667,-3,o),
(667,23,o),
(655,23,cs),
(631,23,o),
(614,35,o),
(605,58,cs),
(468,413,ls),
(465,422,o),
(458,426,o),
(449,426,cs),
(440,426,o),
(433,420,o),
(428,407,cs),
(333,136,l),
(325,136,l),
(218,413,ls),
(215,422,o),
(208,426,o),
(199,426,cs),
(190,426,o),
(183,420,o),
(178,407,cs),
(56,58,ls),
(48,35,o),
(28,23,o),
(-3,23,cs),
(-15,23,o),
(-15,-3,o),
(-3,-3,c)
);
}
);
width = 663;
},
{
anchors = (
{
name = bottom;
pos = (354,0);
},
{
name = ogonek;
pos = (563,0);
},
{
name = top;
pos = (354,415);
}
);
layerId = "75918100-ED89-42A8-B0FE-888EB9C86810";
shapes = (
{
closed = 1;
nodes = (
(16,-3,o),
(42,0,o),
(73,0,cs),
(111,0,o),
(140,0,o),
(161,-3,cs),
(173,-3,o),
(173,32,o),
(161,32,cs),
(125,32,o),
(111,45,o),
(119,70,cs),
(197,296,l),
(206,296,l),
(276,73,ls),
(285,46,o),
(275,32,o),
(246,32,cs),
(234,32,o),
(234,-3,o),
(246,-3,cs),
(265,-3,o),
(300,0,o),
(353,0,cs),
(392,0,o),
(421,-1,o),
(440,-3,cs),
(452,-3,o),
(452,32,o),
(440,32,cs),
(422,32,o),
(407,43,o),
(398,67,cs),
(367,139,l),
(371,67,l),
(449,296,l),
(457,296,l),
(529,73,ls),
(537,46,o),
(527,32,o),
(498,32,cs),
(486,32,o),
(486,-3,o),
(498,-3,cs),
(518,-3,o),
(554,0,o),
(605,0,cs),
(647,0,o),
(678,0,o),
(699,-3,cs),
(711,-3,o),
(711,32,o),
(699,32,cs),
(676,32,o),
(659,43,o),
(649,67,cs),
(510,401,ls),
(502,418,o),
(490,426,o),
(474,426,cs),
(457,426,o),
(444,416,o),
(436,396,cs),
(355,188,l),
(347,188,l),
(258,401,ls),
(251,418,o),
(238,426,o),
(221,426,cs),
(204,426,o),
(191,416,o),
(184,396,cs),
(58,67,ls),
(49,44,o),
(28,32,o),
(-3,32,cs),
(-15,32,o),
(-15,-3,o),
(-3,-3,cs)
);
}
);
width = 707;
},
{
anchors = (
{
name = bottom;
pos = (310,0);
},
{
name = ogonek;
pos = (529,0);
},
{
name = top;
pos = (310,415);
}
);
layerId = "6ABD9449-5E80-4451-809E-12ADEB9E9AB4";
shapes = (
{
closed = 1;
nodes = (
(16,-1,o),
(40,0,o),
(66,0,cs),
(91,0,o),
(112,-1,o),
(130,-3,cs),
(140,-3,o),
(140,20,o),
(130,20,cs),
(82,20,o),
(78,39,o),
(84,57,cs),
(173,328,l),
(181,328,l),
(265,61,ls),
(267,54,o),
(273,20,o),
(227,20,cs),
(217,20,o),
(217,-3,o),
(227,-3,cs),
(247,-1,o),
(274,0,o),
(308,0,cs),
(346,0,o),
(374,-1,o),
(393,-3,cs),
(401,-3,o),
(401,20,o),
(393,20,cs),
(364,20,o),
(355,25,o),
(345,44,cs),
(327,77,l),
(323,47,l),
(422,328,l),
(430,328,l),
(514,61,ls),
(517,51,o),
(523,20,o),
(476,20,cs),
(467,20,o),
(467,-3,o),
(476,-3,cs),
(496,-1,o),
(522,0,o),
(557,0,cs),
(594,0,o),
(622,-1,o),
(640,-3,cs),
(650,-3,o),
(650,20,o),
(640,20,cs),
(616,20,o),
(599,32,o),
(589,55,cs),
(454,417,ls),
(452,423,o),
(447,426,o),
(440,426,cs),
(433,426,o),
(428,421,o),
(425,411,cs),
(325,120,l),
(317,120,l),
(205,417,ls),
(203,423,o),
(198,426,o),
(191,426,cs),
(184,426,o),
(179,421,o),
(176,411,cs),
(55,55,ls),
(47,32,o),
(28,20,o),
(-3,20,cs),
(-13,20,o),
(-13,-3,o),
(-3,-3,cs)
);
}
);
width = 647;
},
{
anchors = (
{
name = bottom;
pos = (268,0);
},
{
name = ogonek;
pos = (442,0);
},
{
name = top;
pos = (268,415);
}
);
layerId = "70B83247-6FA0-4662-9656-C86DD2A17D3B";
shapes = (
{
closed = 1;
nodes = (
(16,-1,o),
(36,0,o),
(59,0,cs),
(85,0,o),
(106,-1,o),
(120,-3,c),
(132,-3,o),
(132,24,o),
(120,24,cs),
(90,24,o),
(78,39,o),
(85,63,cs),
(151,302,l),
(159,302,l),
(219,67,ls),
(226,40,o),
(218,24,o),
(192,24,cs),
(180,24,o),
(180,-3,o),
(192,-3,c),
(208,-1,o),
(233,0,o),
(268,0,cs),
(299,0,o),
(322,-1,o),
(337,-3,c),
(349,-3,o),
(349,24,o),
(337,24,cs),
(317,24,o),
(310,29,o),
(303,47,cs),
(285,100,l),
(286,65,l),
(351,302,l),
(359,302,l),
(421,67,ls),
(428,40,o),
(417,24,o),
(393,24,cs),
(381,24,o),
(381,-3,o),
(393,-3,c),
(409,-1,o),
(435,0,o),
(469,0,cs),
(503,0,o),
(525,-1,o),
(540,-3,c),
(552,-3,o),
(552,24,o),
(540,24,cs),
(520,24,o),
(507,39,o),
(500,61,cs),
(389,409,ls),
(386,420,o),
(379,426,o),
(369,426,cs),
(359,426,o),
(351,419,o),
(347,404,cs),
(276,156,l),
(268,156,l),
(189,410,ls),
(186,420,o),
(178,426,o),
(168,426,cs),
(159,426,o),
(152,420,o),
(147,404,cs),
(48,61,ls),
(41,37,o),
(24,24,o),
(0,24,cs),
(-12,24,o),
(-12,-3,o),
(0,-3,c)
);
}
);
width = 548;
},
{
anchors = (
{
name = bottom;
pos = (373,0);
},
{
name = ogonek;
pos = (635,0);
},
{
name = top;
pos = (373,415);
}
);
layerId = "9E6FDE2E-55A6-44A9-9556-F1822294BF26";
shapes = (
{
closed = 1;
nodes = (
(19,0,o),
(46,0,o),
(79,0,cs),
(108,0,o),
(135,-1,o),
(158,-3,c),
(170,-3,o),
(170,23,o),
(158,23,cs),
(112,23,o),
(93,33,o),
(103,57,cs),
(208,319,l),
(216,319,l),
(318,61,ls),
(329,34,o),
(314,23,o),
(272,23,cs),
(260,23,o),
(260,-3,o),
(272,-3,c),
(297,0,o),
(329,0,o),
(372,0,cs),
(418,0,o),
(451,-1,o),
(474,-3,c),
(486,-3,o),
(486,23,o),
(474,23,cs),
(438,23,o),
(427,26,o),
(419,38,cs),
(397,76,l),
(399,52,l),
(508,319,l),
(516,319,l),
(617,61,ls),
(628,35,o),
(611,23,o),
(572,23,cs),
(560,23,o),
(560,-3,o),
(572,-3,c),
(596,0,o),
(627,0,o),
(671,0,cs),
(714,0,o),
(749,-1,o),
(772,-3,c),
(784,-3,o),
(784,23,o),
(772,23,cs),
(744,23,o),
(723,30,o),
(711,56,cs),
(548,417,ls),
(545,424,o),
(538,426,o),
(529,426,cs),
(521,426,o),
(514,421,o),
(510,411,cs),
(391,119,l),
(383,119,l),
(249,417,ls),
(246,423,o),
(239,426,o),
(230,426,cs),
(221,426,o),
(214,420,o),
(210,411,cs),
(65,56,ls),
(56,33,o),
(34,23,o),
(-5,23,cs),
(-17,23,o),
(-17,-3,o),
(-5,-3,c)
);
}
);
width = 781;
},
{
anchors = (
{
name = bottom;
pos = (320,0);
},
{
name = ogonek;
pos = (529,0);
},
{
name = top;
pos = (320,415);
}
);
layerId = "00F4936D-6309-4DEC-83B3-42806ED1A477";
shapes = (
{
closed = 1;
nodes = (
(17,-1,o),
(41,0,o),
(68,0,cs),
(96,0,o),
(120,-1,o),
(138,-3,c),
(150,-3,o),
(150,23,o),
(138,23,cs),
(101,23,o),
(85,37,o),
(93,60,cs),
(179,313,l),
(187,313,l),
(268,64,ls),
(277,37,o),
(263,23,o),
(232,23,cs),
(220,23,o),
(220,-3,o),
(232,-3,c),
(252,-1,o),
(281,0,o),
(319,0,cs),
(358,0,o),
(386,-1,o),
(405,-3,c),
(417,-3,o),
(417,23,o),
(405,23,cs),
(394,23,o),
(371,22,o),
(363,39,cs),
(342,90,l),
(342,58,l),
(429,313,l),
(437,313,l),
(518,64,ls),
(526,38,o),
(513,23,o),
(482,23,cs),
(470,23,o),
(470,-3,o),
(482,-3,c),
(502,-1,o),
(531,0,o),
(569,0,cs),
(608,0,o),
(636,-1,o),
(655,-3,c),
(667,-3,o),
(667,23,o),
(655,23,cs),
(631,23,o),
(614,35,o),
(605,58,cs),
(468,413,ls),
(465,422,o),
(458,426,o),
(449,426,cs),
(440,426,o),
(433,420,o),
(428,407,cs),
(333,136,l),
(325,136,l),
(218,413,ls),
(215,422,o),
(208,426,o),
(199,426,cs),
(190,426,o),
(183,420,o),
(178,407,cs),
(56,58,ls),
(48,35,o),
(28,23,o),
(-3,23,cs),
(-15,23,o),
(-15,-3,o),
(-3,-3,c)
);
}
);
width = 663;
}
);
unicode = 653;
userData = {
KernOnSpecialSpacing = {
L = NoKerning;
R = NoKerning;
};
};
}
{
glyphname = uni0295;
layers = (
{
anchors = (
{
name = bottom;
pos = (216,0);
},
{
name = center;
pos = (215,240);
}
);
layerId = master01;
shapes = (
{
closed = 1;
nodes = (
(147,-1,o),
(179,0,o),
(216,0,cs),
(254,0,o),
(286,-1,o),
(311,-4,c),
(321,-4,o),
(321,24,o),
(311,24,cs),
(272,24,o),
(252,37,o),
(252,62,cs),
(252,338,ls),
(252,348,o),
(247,354,o),
(235,354,cs),
(161,358,o),
(107,437,o),
(107,532,cs),
(107,620,o),
(153,690,o),
(234,690,cs),
(287,690,o),
(330,666,o),
(330,625,cs),
(330,614,o),
(324,601,o),
(312,584,cs),
(300,567,o),
(295,552,o),
(295,538,cs),
(295,515,o),
(318,496,o),
(339,496,cs),
(383,496,o),
(395,549,o),
(395,587,cs),
(395,665,o),
(312,719,o),
(218,719,cs),
(103,719,o),
(24,643,o),
(24,520,cs),
(24,423,o),
(91,334,o),
(168,323,cs),
(174,322,o),
(178,319,o),
(178,311,cs),
(178,62,ls),
(178,37,o),
(159,24,o),
(121,24,cs),
(111,24,o),
(111,-4,o),
(121,-4,c)
);
}
);
width = 420;
},
{
anchors = (
{
name = bottom;
pos = (248,0);
},
{
name = center;
pos = (253,240);
}
);
layerId = "75918100-ED89-42A8-B0FE-888EB9C86810";
shapes = (
{
closed = 1;
nodes = (
(168,-1,o),
(204,0,o),
(248,0,cs),
(292,0,o),
(327,-1,o),
(355,-4,c),
(365,-4,o),
(365,33,o),
(355,33,cs),
(321,33,o),
(304,44,o),
(304,66,cs),
(304,337,ls),
(304,345,o),
(298,350,o),
(286,352,cs),
(191,367,o),
(141,442,o),
(141,524,cs),
(141,617,o),
(187,681,o),
(264,681,cs),
(311,681,o),
(351,664,o),
(351,625,cs),
(351,609,o),
(345,594,o),
(334,580,cs),
(323,566,o),
(317,552,o),
(317,539,cs),
(317,511,o),
(343,496,o),
(369,496,cs),
(414,496,o),
(435,545,o),
(435,587,cs),
(435,665,o),
(344,719,o),
(248,719,cs),
(114,719,o),
(19,646,o),
(19,519,cs),
(19,423,o),
(88,336,o),
(182,321,cs),
(188,320,o),
(192,316,o),
(192,309,cs),
(192,66,ls),
(192,44,o),
(175,33,o),
(141,33,cs),
(131,33,o),
(131,-4,o),
(141,-4,c)
);
}
);
width = 456;
},
{
anchors = (
{
name = bottom;
pos = (207,0);
},
{
name = center;
pos = (205,240);
}
);
layerId = "6ABD9449-5E80-4451-809E-12ADEB9E9AB4";
shapes = (
{
closed = 1;
nodes = (
(141,-1,o),
(171,0,o),
(207,0,cs),
(242,0,o),
(273,-1,o),
(297,-4,c),
(307,-4,o),
(307,21,o),
(297,21,cs),
(256,21,o),
(236,34,o),
(236,61,cs),
(236,341,ls),
(236,351,o),
(230,356,o),
(219,356,cs),
(151,356,o),
(97,436,o),
(97,535,cs),
(97,621,o),
(143,693,o),
(226,693,cs),
(280,693,o),
(323,667,o),
(323,625,cs),
(323,616,o),
(317,604,o),
(306,585,cs),
(294,567,o),
(289,552,o),
(289,538,cs),
(289,517,o),
(311,496,o),
(331,496,cs),
(374,496,o),
(382,550,o),
(382,587,cs),
(382,665,o),
(302,719,o),
(208,719,cs),
(101,719,o),
(26,641,o),
(26,520,cs),
(26,425,o),
(93,336,o),
(164,325,cs),
(170,324,o),
(174,322,o),
(174,313,cs),
(174,61,ls),
(174,34,o),
(154,21,o),
(115,21,cs),
(105,21,o),
(105,-4,o),
(115,-4,c)
);
}
);
width = 410;
},
{
anchors = (
{
name = bottom;
pos = (188,0);
},
{
name = center;
pos = (188,240);
}
);
guides = (
{
pos = (442,456);
showMeasurement = 1;
}
);
layerId = "70B83247-6FA0-4662-9656-C86DD2A17D3B";
shapes = (
{
closed = 1;
nodes = (
(129,-2,o),
(153,0,o),
(188,0,cs),
(221,0,o),
(249,-2,o),
(269,-4,c),
(276,-4,o),
(276,24,o),
(269,24,cs),
(240,24,o),
(226,36,o),
(226,60,cs),
(226,338,ls),
(226,345,o),
(223,351,o),
(211,353,cs),
(146,361,o),
(100,436,o),
(100,530,cs),
(100,621,o),
(137,690,o),
(202,690,cs),
(242,690,o),
(275,667,o),
(275,624,cs),
(275,610,o),
(270,598,o),
(261,582,cs),
(253,567,o),
(248,552,o),
(248,538,cs),
(248,514,o),
(268,496,o),
(286,496,cs),
(321,496,o),
(334,547,o),
(334,586,cs),
(334,664,o),
(264,718,o),
(189,718,cs),
(90,718,o),
(21,645,o),
(21,521,cs),
(21,426,o),
(75,335,o),
(141,323,cs),
(150,321,o),
(151,318,o),
(151,310,cs),
(151,60,ls),
(151,36,o),
(136,24,o),
(108,24,cs),
(100,24,o),
(100,-4,o),
(108,-4,c)
);
}
);
width = 356;
},
{
anchors = (
{
name = bottom;
pos = (246,0);
},
{
name = center;
pos = (243,240);
}
);
layerId = "9E6FDE2E-55A6-44A9-9556-F1822294BF26";
shapes = (
{
closed = 1;
nodes = (
(166,-1,o),
(206,0,o),
(246,0,cs),
(288,0,o),
(324,-1,o),
(354,-3,c),
(364,-3,o),
(364,24,o),
(354,24,cs),
(305,24,o),
(281,37,o),
(281,64,cs),
(281,340,ls),
(281,352,o),
(271,357,o),
(261,356,cs),
(177,356,o),
(116,447,o),
(116,542,cs),
(116,627,o),
(171,690,o),
(268,690,cs),
(333,690,o),
(385,666,o),
(385,625,cs),
(385,618,o),
(379,604,o),
(364,586,cs),
(349,566,o),
(344,551,o),
(344,538,cs),
(344,517,o),
(371,497,o),
(394,497,cs),
(446,497,o),
(456,550,o),
(456,587,cs),
(456,665,o),
(360,719,o),
(248,719,cs),
(117,719,o),
(29,648,o),
(29,527,cs),
(29,430,o),
(109,335,o),
(197,324,cs),
(200,324,o),
(206,321,o),
(206,312,cs),
(206,64,ls),
(206,37,o),
(183,24,o),
(135,24,cs),
(125,24,o),
(125,-3,o),
(135,-3,c)
);
}
);
width = 487;
},
{
anchors = (
{
name = bottom;
pos = (216,0);
},
{
name = center;
pos = (215,240);
}
);
layerId = "00F4936D-6309-4DEC-83B3-42806ED1A477";
shapes = (
{
closed = 1;
nodes = (
(147,-1,o),
(179,0,o),
(216,0,cs),
(254,0,o),
(286,-1,o),
(311,-4,c),
(321,-4,o),
(321,24,o),
(311,24,cs),
(272,24,o),
(252,37,o),
(252,62,cs),
(252,338,ls),
(252,348,o),
(247,354,o),
(235,354,cs),
(161,358,o),
(107,437,o),
(107,532,cs),
(107,620,o),
(153,690,o),
(234,690,cs),
(287,690,o),
(330,666,o),
(330,625,cs),
(330,614,o),
(324,601,o),
(312,584,cs),
(300,567,o),
(295,552,o),
(295,538,cs),
(295,515,o),
(318,496,o),
(339,496,cs),
(383,496,o),
(395,549,o),
(395,587,cs),
(395,665,o),
(312,719,o),
(218,719,cs),
(103,719,o),
(24,643,o),
(24,520,cs),
(24,423,o),
(91,334,o),
(168,323,cs),
(174,322,o),
(178,319,o),
(178,311,cs),
(178,62,ls),
(178,37,o),
(159,24,o),
(121,24,cs),
(111,24,o),
(111,-4,o),
(121,-4,c)
);
}
);
width = 420;
}
);
unicode = 661;
userData = {
KernOnSpecialSpacing = {
L = NoKerning;
R = NoKerning;
};
};
}
{
glyphname = uni02AA;
layers = (
{
layerId = master01;
shapes = (
{
closed = 1;
nodes = (
(401,-12,o),
(471,34,o),
(471,120,cs),
(471,182,o),
(431,225,o),
(351,247,cs),
(299,261,o),
(255,273,o),
(255,329,cs),
(255,368,o),
(281,395,o),
(332,395,cs),
(380,395,o),
(420,371,o),
(437,319,cs),
(439,314,o),
(443,312,o),
(449,312,cs),
(456,312,o),
(460,314,o),
(460,319,cs),
(460,352,o),
(455,378,o),
(445,407,c),
(420,419,o),
(385,425,o),
(339,425,cs),
(267,425,o),
(199,380,o),
(199,306,cs),
(199,244,o),
(239,201,o),
(317,180,cs),
(365,167,o),
(414,146,o),
(414,88,cs),
(414,51,o),
(381,19,o),
(335,19,cs),
(277,19,o),
(218,44,o),
(173,121,c),
(173,586,l),
(98,586,l),
(98,62,ls),
(98,37,o),
(79,24,o),
(41,24,cs),
(32,24,o),
(32,-4,o),
(41,-4,c),
(67,-1,o),
(100,0,o),
(139,0,cs),
(155,0,o),
(166,7,o),
(171,20,c),
(212,-1,o),
(258,-12,o),
(319,-12,cs)
);
},
{
closed = 1;
nodes = (
(173,555,l),
(173,638,ls),
(173,656,o),
(173,680,o),
(176,713,c),
(176,722,o),
(174,727,o),
(170,727,cs),
(166,727,o),
(159,723,o),
(148,714,cs),
(138,706,o),
(118,695,o),
(101,686,cs),
(84,676,o),
(64,669,o),
(53,669,cs),
(44,669,o),
(44,642,o),
(53,642,cs),
(83,642,o),
(98,619,o),
(98,574,cs),
(98,555,l)
);
}
);
width = 503;
},
{
layerId = "75918100-ED89-42A8-B0FE-888EB9C86810";
shapes = (
{
closed = 1;
nodes = (
(477,-11,o),
(553,38,o),
(553,126,cs),
(553,201,o),
(506,238,o),
(419,260,cs),
(364,273,o),
(337,296,o),
(337,329,cs),
(337,355,o),
(361,385,o),
(396,385,cs),
(443,385,o),
(491,346,o),
(496,310,cs),
(497,307,o),
(502,305,o),
(513,305,cs),
(523,305,o),
(528,308,o),
(528,314,cs),
(528,342,o),
(521,374,o),
(509,407,c),
(478,419,o),
(443,425,o),
(403,425,cs),
(322,425,o),
(245,378,o),
(245,299,cs),
(245,231,o),
(289,189,o),
(375,166,cs),
(431,151,o),
(459,125,o),
(459,85,cs),
(459,55,o),
(433,28,o),
(381,28,cs),
(326,28,o),
(220,93,o),
(198,148,c),
(198,586,l),
(85,586,l),
(85,66,ls),
(85,44,o),
(68,33,o),
(34,33,cs),
(25,33,o),
(25,-4,o),
(34,-4,c),
(62,-1,o),
(99,0,o),
(146,0,cs),
(170,0,o),
(187,12,o),
(194,35,c),
(243,4,o),
(306,-11,o),
(383,-11,cs)
);
},
{
closed = 1;
nodes = (
(198,555,l),
(198,628,ls),
(198,655,o),
(198,684,o),
(202,713,c),
(202,722,o),
(197,727,o),
(189,727,cs),
(183,727,o),
(178,725,o),
(169,718,cs),
(160,710,o),
(122,688,o),
(100,679,cs),
(77,669,o),
(53,665,o),
(41,665,cs),
(32,665,o),
(32,628,o),
(41,628,cs),
(70,628,o),
(85,608,o),
(85,567,cs),
(85,555,l)
);
}
);
width = 576;
},
{
layerId = "6ABD9449-5E80-4451-809E-12ADEB9E9AB4";
shapes = (
{
closed = 1;
nodes = (
(377,-13,o),
(446,33,o),
(446,118,cs),
(446,176,o),
(408,224,o),
(331,243,cs),
(284,254,o),
(240,266,o),
(240,329,cs),
(240,372,o),
(263,398,o),
(313,398,cs),
(361,398,o),
(397,379,o),
(420,322,cs),
(422,317,o),
(425,314,o),
(430,314,cs),
(437,314,o),
(440,316,o),
(440,320,cs),
(440,355,o),
(435,380,o),
(426,407,c),
(402,419,o),
(367,425,o),
(320,425,cs),
(256,425,o),
(196,380,o),
(196,309,cs),
(196,249,o),
(230,203,o),
(300,185,cs),
(346,173,o),
(401,153,o),
(401,89,cs),
(401,50,o),
(352,16,o),
(308,16,cs),
(249,16,o),
(205,28,o),
(166,111,c),
(166,586,l),
(104,586,l),
(104,61,ls),
(104,34,o),
(84,21,o),
(44,21,cs),
(35,21,o),
(35,-4,o),
(44,-4,c),
(70,-1,o),
(102,0,o),
(138,0,cs),
(150,0,o),
(160,5,o),
(165,15,c),
(189,-3,o),
(229,-13,o),
(286,-13,cs)
);
},
{
closed = 1;
nodes = (
(166,555,l),
(166,639,ls),
(166,654,o),
(166,677,o),
(168,711,cs),
(168,720,o),
(167,725,o),
(164,725,cs),
(160,725,o),
(153,721,o),
(143,712,cs),
(132,703,o),
(118,694,o),
(103,686,cs),
(87,678,o),
(69,669,o),
(59,669,cs),
(50,669,o),
(50,645,o),
(59,645,cs),
(88,645,o),
(104,622,o),
(104,575,cs),
(104,555,l)
);
}
);
width = 477;
},
{
guides = (
{
pos = (872,990);
showMeasurement = 1;
}
);
layerId = "70B83247-6FA0-4662-9656-C86DD2A17D3B";
shapes = (
{
closed = 1;
nodes = (
(351,-12,o),
(409,36,o),
(409,123,cs),
(409,189,o),
(375,229,o),
(307,252,cs),
(264,267,o),
(235,283,o),
(235,329,cs),
(235,363,o),
(256,391,o),
(291,391,cs),
(328,391,o),
(365,361,o),
(373,316,cs),
(374,311,o),
(378,310,o),
(384,310,cs),
(391,310,o),
(395,312,o),
(395,317,cs),
(395,346,o),
(390,376,o),
(381,407,c),
(359,419,o),
(330,425,o),
(296,425,cs),
(235,425,o),
(176,379,o),
(176,304,cs),
(176,240,o),
(208,197,o),
(277,174,cs),
(320,160,o),
(349,136,o),
(349,86,cs),
(349,53,o),
(328,22,o),
(288,22,cs),
(243,22,o),
(177,64,o),
(154,132,c),
(154,586,l),
(79,586,l),
(79,60,ls),
(79,36,o),
(64,24,o),
(36,24,cs),
(27,24,o),
(27,-4,o),
(36,-4,c),
(58,-1,o),
(82,0,o),
(120,0,cs),
(135,0,o),
(147,9,o),
(152,26,c),
(184,1,o),
(227,-12,o),
(282,-12,cs)
);
},
{
closed = 1;
nodes = (
(154,555,l),
(154,634,ls),
(154,656,o),
(154,682,o),
(157,713,c),
(157,722,o),
(154,727,o),
(149,727,cs),
(145,727,o),
(142,725,o),
(133,716,cs),
(127,710,o),
(103,693,o),
(85,684,cs),
(72,676,o),
(53,669,o),
(43,669,cs),
(34,669,o),
(34,642,o),
(43,642,cs),
(67,642,o),
(79,619,o),
(79,574,cs),
(79,555,l)
);
}
);
width = 433;
},
{
layerId = "9E6FDE2E-55A6-44A9-9556-F1822294BF26";
shapes = (
{
closed = 1;
nodes = (
(443,-13,o),
(525,33,o),
(525,118,cs),
(525,175,o),
(479,221,o),
(387,242,cs),
(326,256,o),
(267,264,o),
(267,329,cs),
(267,373,o),
(298,399,o),
(365,399,cs),
(424,399,o),
(468,381,o),
(493,322,cs),
(495,318,o),
(499,314,o),
(506,314,cs),
(513,314,o),
(518,317,o),
(518,321,cs),
(518,358,o),
(511,380,o),
(501,407,c),
(472,419,o),
(431,425,o),
(374,425,cs),
(292,425,o),
(214,381,o),
(214,309,cs),
(214,248,o),
(260,206,o),
(349,186,cs),
(403,175,o),
(470,156,o),
(470,89,cs),
(470,49,o),
(427,16,o),
(374,16,cs),
(303,16,o),
(251,25,o),
(194,109,c),
(194,586,l),
(119,586,l),
(119,64,ls),
(119,37,o),
(96,24,o),
(48,24,cs),
(39,24,o),
(39,-4,o),
(48,-4,c),
(79,-1,o),
(121,0,o),
(160,0,cs),
(176,0,o),
(186,5,o),
(193,14,c),
(232,-4,o),
(281,-13,o),
(348,-13,cs)
);
},
{
closed = 1;
nodes = (
(194,555,l),
(194,641,ls),
(194,656,o),
(194,678,o),
(197,712,c),
(197,721,o),
(195,727,o),
(192,727,cs),
(188,727,o),
(178,721,o),
(166,712,cs),
(150,702,o),
(136,694,o),
(119,687,cs),
(97,677,o),
(77,669,o),
(65,669,cs),
(57,669,o),
(57,642,o),
(65,642,cs),
(101,642,o),
(119,619,o),
(119,574,cs),
(119,555,l)
);
}
);
width = 549;
},
{
layerId = "00F4936D-6309-4DEC-83B3-42806ED1A477";
shapes = (
{
closed = 1;
nodes = (
(401,-12,o),
(471,34,o),
(471,120,cs),
(471,182,o),
(431,225,o),
(351,247,cs),
(299,261,o),
(255,273,o),
(255,329,cs),
(255,368,o),
(281,395,o),
(332,395,cs),
(380,395,o),
(420,371,o),
(437,319,cs),
(439,314,o),
(443,312,o),
(449,312,cs),
(456,312,o),
(460,314,o),
(460,319,cs),
(460,352,o),
(455,378,o),
(445,407,c),
(420,419,o),
(385,425,o),
(339,425,cs),
(267,425,o),
(199,380,o),
(199,306,cs),
(199,244,o),
(239,201,o),
(317,180,cs),
(365,167,o),
(414,146,o),
(414,88,cs),
(414,51,o),
(381,19,o),
(335,19,cs),
(277,19,o),
(218,44,o),
(173,121,c),
(173,586,l),
(98,586,l),
(98,62,ls),
(98,37,o),
(79,24,o),
(41,24,cs),
(32,24,o),
(32,-4,o),
(41,-4,c),
(67,-1,o),
(100,0,o),
(139,0,cs),
(155,0,o),
(166,7,o),
(171,20,c),
(212,-1,o),
(258,-12,o),
(319,-12,cs)
);
},
{
closed = 1;
nodes = (
(173,555,l),
(173,638,ls),
(173,656,o),
(173,680,o),
(176,713,c),
(176,722,o),
(174,727,o),
(170,727,cs),
(166,727,o),
(159,723,o),
(148,714,cs),
(138,706,o),
(118,695,o),
(101,686,cs),
(84,676,o),
(64,669,o),
(53,669,cs),
(44,669,o),
(44,642,o),
(53,642,cs),
(83,642,o),
(98,619,o),
(98,574,cs),
(98,555,l)
);
}
);
width = 503;
}
);
metricLeft = l;
unicode = 682;
userData = {
KernOnSpecialSpacing = {
L = NoKerning;
R = NoKerning;
};
};
}
{
glyphname = uni02C4;
layers = (
{
layerId = master01;
shapes = (
{
closed = 1;
nodes = (
(73,335,l),
(169,539,l),
(158,539,l),
(252,335,l),
(288,335,l),
(176,569,l),
(149,569,l),
(39,335,l)
);
}
);
width = 327;
},
{
guides = (
{
pos = (168,335);
}
);
layerId = "75918100-ED89-42A8-B0FE-888EB9C86810";
shapes = (
{
closed = 1;
nodes = (
(83,335,l),
(168,534,l),
(149,534,l),
(234,335,l),
(289,335,l),
(176,589,l),
(138,589,l),
(27,335,l)
);
}
);
width = 316;
},
{
guides = (
{
pos = (168,335);
}
);
layerId = "6ABD9449-5E80-4451-809E-12ADEB9E9AB4";
shapes = (
{
closed = 1;
nodes = (
(75,335,l),
(174,541,l),
(156,541,l),
(254,335,l),
(288,335,l),
(176,561,l),
(153,561,l),
(43,335,l)
);
}
);
width = 331;
},
{
guides = (
{
pos = (166,335);
}
);
layerId = "70B83247-6FA0-4662-9656-C86DD2A17D3B";
shapes = (
{
closed = 1;
nodes = (
(67,335,l),
(141,537,l),
(129,537,l),
(202,335,l),
(236,335,l),
(147,574,l),
(122,574,l),
(33,335,l)
);
}
);
width = 269;
},
{
guides = (
{
pos = (160,335);
}
);
layerId = "9E6FDE2E-55A6-44A9-9556-F1822294BF26";
shapes = (
{
closed = 1;
nodes = (
(78,335,l),
(195,541,l),
(184,541,l),
(301,335,l),
(337,335,l),
(204,563,l),
(175,563,l),
(43,335,l)
);
}
);
width = 380;
},
{
layerId = "00F4936D-6309-4DEC-83B3-42806ED1A477";
shapes = (
{
closed = 1;
nodes = (
(73,335,l),
(169,539,l),
(158,539,l),
(252,335,l),
(288,335,l),
(176,569,l),
(149,569,l),
(39,335,l)
);
}
);
width = 327;
}
);
unicode = 708;
userData = {
KernOnSpecialSpacing = {
L = NoKerning;
R = NoKerning;
};
};
}
{
glyphname = uni02EC;
layers = (
{
guides = (
{
pos = (385,-109);
}
);
layerId = master01;
shapes = (
{
closed = 1;
nodes = (
(192,-242,l),
(299,-53,l),
(276,-53,l),
(160,-189,l),
(188,-189,l),
(72,-53,l),
(49,-53,l),
(155,-242,l)
);
}
);
width = 348;
},
{
guides = (
{
pos = (385,-76);
}
);
layerId = "75918100-ED89-42A8-B0FE-888EB9C86810";
shapes = (
{
closed = 1;
nodes = (
(196,-250,l),
(315,-37,l),
(276,-37,l),
(150,-187,l),
(196,-187,l),
(68,-37,l),
(29,-37,l),
(148,-250,l)
);
}
);
width = 344;
},
{
layerId = "6ABD9449-5E80-4451-809E-12ADEB9E9AB4";
shapes = (
{
closed = 1;
nodes = (
(191,-239,l),
(293,-59,l),
(276,-59,l),
(164,-190,l),
(185,-190,l),
(74,-59,l),
(55,-59,l),
(158,-239,l)
);
}
);
width = 349;
},
{
layerId = "70B83247-6FA0-4662-9656-C86DD2A17D3B";
shapes = (
{
closed = 1;
nodes = (
(161,-245,l),
(250,-48,l),
(227,-48,l),
(131,-188,l),
(158,-188,l),
(63,-48,l),
(39,-48,l),
(128,-245,l)
);
}
);
width = 289;
},
{
layerId = "9E6FDE2E-55A6-44A9-9556-F1822294BF26";
shapes = (
{
closed = 1;
nodes = (
(224,-240,l),
(348,-58,l),
(325,-58,l),
(189,-190,l),
(217,-190,l),
(82,-58,l),
(59,-58,l),
(183,-240,l)
);
}
);
width = 406;
},
{
guides = (
{
pos = (385,-109);
}
);
layerId = "00F4936D-6309-4DEC-83B3-42806ED1A477";
shapes = (
{
closed = 1;
nodes = (
(192,-242,l),
(299,-53,l),
(276,-53,l),
(160,-189,l),
(188,-189,l),
(72,-53,l),
(49,-53,l),
(155,-242,l)
);
}
);
width = 348;
}
);
unicode = 748;
userData = {
KernOnSpecialSpacing = {
L = NoKerning;
R = NoKerning;
};
};
}
{
glyphname = uni02F0;
layers = (
{
layerId = master01;
shapes = (
{
closed = 1;
nodes = (
(164,-48,o),
(158,-52,o),
(152,-62,cs),
(49,-245,ls),
(47,-248,o),
(51,-251,o),
(55,-253,cs),
(59,-256,o),
(63,-257,o),
(66,-254,cs),
(157,-148,ls),
(164,-140,o),
(168,-136,o),
(171,-136,cs),
(173,-136,o),
(178,-140,o),
(186,-148,cs),
(275,-254,ls),
(278,-257,o),
(284,-256,o),
(288,-253,cs),
(292,-250,o),
(294,-248,o),
(292,-245,cs),
(189,-62,ls),
(184,-52,o),
(178,-48,o),
(171,-48,cs)
);
}
);
width = 342;
},
{
layerId = "75918100-ED89-42A8-B0FE-888EB9C86810";
shapes = (
{
closed = 1;
nodes = (
(156,-48,o),
(149,-52,o),
(143,-63,cs),
(31,-264,ls),
(29,-268,o),
(30,-273,o),
(39,-280,cs),
(46,-285,o),
(53,-288,o),
(57,-283,cs),
(146,-179,ls),
(154,-169,o),
(161,-165,o),
(167,-165,cs),
(173,-165,o),
(180,-169,o),
(188,-179,cs),
(277,-283,ls),
(280,-286,o),
(288,-285,o),
(295,-280,cs),
(303,-273,o),
(306,-268,o),
(303,-264,cs),
(191,-63,ls),
(186,-53,o),
(177,-48,o),
(166,-48,cs)
);
}
);
width = 333;
},
{
layerId = "6ABD9449-5E80-4451-809E-12ADEB9E9AB4";
shapes = (
{
closed = 1;
nodes = (
(167,-48,o),
(161,-52,o),
(156,-61,cs),
(56,-238,ls),
(54,-241,o),
(58,-244,o),
(60,-245,cs),
(63,-246,o),
(67,-247,o),
(70,-244,cs),
(161,-138,ls),
(167,-130,o),
(171,-126,o),
(172,-126,cs),
(174,-126,o),
(178,-130,o),
(185,-138,cs),
(275,-244,ls),
(278,-248,o),
(282,-247,o),
(286,-245,cs),
(288,-244,o),
(291,-241,o),
(289,-238,cs),
(189,-61,ls),
(185,-52,o),
(178,-48,o),
(173,-48,cs)
);
}
);
width = 346;
},
{
layerId = "70B83247-6FA0-4662-9656-C86DD2A17D3B";
shapes = (
{
closed = 1;
nodes = (
(129,-48,o),
(125,-52,o),
(121,-62,cs),
(36,-250,ls),
(34,-253,o),
(37,-259,o),
(41,-261,cs),
(45,-265,o),
(49,-267,o),
(52,-263,cs),
(124,-157,ls),
(129,-148,o),
(134,-145,o),
(137,-145,cs),
(140,-145,o),
(145,-148,o),
(150,-157,cs),
(222,-263,ls),
(225,-266,o),
(230,-265,o),
(234,-261,cs),
(238,-257,o),
(240,-254,o),
(239,-250,cs),
(153,-62,ls),
(149,-52,o),
(143,-48,o),
(137,-48,cs)
);
}
);
width = 275;
},
{
layerId = "9E6FDE2E-55A6-44A9-9556-F1822294BF26";
shapes = (
{
closed = 1;
nodes = (
(198,-48,o),
(190,-52,o),
(184,-62,cs),
(63,-239,ls),
(61,-242,o),
(65,-243,o),
(70,-246,cs),
(73,-247,o),
(78,-248,o),
(81,-245,cs),
(190,-139,ls),
(198,-131,o),
(203,-127,o),
(205,-127,cs),
(207,-127,o),
(212,-131,o),
(221,-139,cs),
(329,-245,ls),
(332,-249,o),
(337,-248,o),
(341,-246,cs),
(345,-244,o),
(349,-242,o),
(346,-239,cs),
(226,-61,ls),
(219,-52,o),
(212,-48,o),
(205,-48,cs)
);
}
);
width = 410;
},
{
layerId = "00F4936D-6309-4DEC-83B3-42806ED1A477";
shapes = (
{
closed = 1;
nodes = (
(164,-48,o),
(158,-52,o),
(152,-62,cs),
(49,-245,ls),
(47,-248,o),
(51,-251,o),
(55,-253,cs),
(59,-256,o),
(63,-257,o),
(66,-254,cs),
(157,-148,ls),
(164,-140,o),
(168,-136,o),
(171,-136,cs),
(173,-136,o),
(178,-140,o),
(186,-148,cs),
(275,-254,ls),
(278,-257,o),
(284,-256,o),
(288,-253,cs),
(292,-250,o),
(294,-248,o),
(292,-245,cs),
(189,-62,ls),
(184,-52,o),
(178,-48,o),
(171,-48,cs)
);
}
);
width = 342;
}
);
metricLeft = uni02EF;
metricRight = uni02EF;
unicode = 752;
userData = {
KernOnSpecialSpacing = {
L = NoKerning;
R = NoKerning;
};
};
}
{
glyphname = breveinvertedbelowcomb;
layers = (
{
anchors = (
{
name = _bottom;
pos = (1,0);
},
{
name = bottom;
pos = (1,-233);
}
);
layerId = master01;
shapes = (
{
closed = 1;
nodes = (
(-116,-233,o),
(-113,-233,o),
(-112,-229,cs),
(-100,-176,o),
(-62,-149,o),
(2,-149,cs),
(65,-149,o),
(103,-176,o),
(114,-229,cs),
(115,-233,o),
(119,-233,o),
(124,-233,cs),
(129,-233,o),
(133,-233,o),
(133,-229,cs),
(133,-140,o),
(89,-95,o),
(1,-95,cs),
(-87,-95,o),
(-131,-140,o),
(-131,-229,cs),
(-131,-233,o),
(-127,-233,o),
(-122,-233,cs)
);
}
);
width = 0;
},
{
anchors = (
{
name = _bottom;
},
{
name = bottom;
pos = (0,-243);
}
);
layerId = "75918100-ED89-42A8-B0FE-888EB9C86810";
shapes = (
{
closed = 1;
nodes = (
(-117,-243,o),
(-111,-241,o),
(-111,-239,cs),
(-100,-182,o),
(-61,-154,o),
(0,-154,cs),
(61,-154,o),
(101,-182,o),
(111,-239,cs),
(111,-242,o),
(117,-243,o),
(126,-243,cs),
(136,-243,o),
(141,-241,o),
(141,-239,cs),
(141,-138,o),
(94,-89,o),
(0,-89,cs),
(-94,-89,o),
(-141,-139,o),
(-141,-239,cs),
(-141,-241,o),
(-136,-243,o),
(-126,-243,cs)
);
}
);
width = 0;
},
{
anchors = (
{
name = _bottom;
pos = (2,0);
},
{
name = bottom;
pos = (2,-230);
}
);
layerId = "6ABD9449-5E80-4451-809E-12ADEB9E9AB4";
shapes = (
{
closed = 1;
nodes = (
(-116,-230,o),
(-113,-230,o),
(-112,-227,cs),
(-100,-174,o),
(-62,-148,o),
(2,-148,cs),
(67,-148,o),
(104,-174,o),
(115,-227,cs),
(117,-230,o),
(119,-230,o),
(123,-230,cs),
(127,-230,o),
(131,-230,o),
(131,-227,cs),
(131,-141,o),
(88,-97,o),
(1,-97,cs),
(-84,-97,o),
(-127,-141,o),
(-127,-227,cs),
(-127,-230,o),
(-124,-230,o),
(-120,-230,cs)
);
}
);
width = 0;
},
{
anchors = (
{
name = _bottom;
pos = (3,0);
},
{
name = bottom;
pos = (3,-236);
}
);
layerId = "70B83247-6FA0-4662-9656-C86DD2A17D3B";
shapes = (
{
closed = 1;
nodes = (
(-88,-236,o),
(-87,-235,o),
(-86,-231,cs),
(-76,-177,o),
(-44,-151,o),
(4,-151,cs),
(53,-151,o),
(85,-178,o),
(93,-231,cs),
(94,-235,o),
(96,-236,o),
(103,-236,cs),
(108,-236,o),
(112,-235,o),
(112,-232,cs),
(112,-140,o),
(76,-93,o),
(4,-93,cs),
(-68,-93,o),
(-104,-140,o),
(-104,-232,cs),
(-104,-235,o),
(-101,-236,o),
(-95,-236,cs)
);
}
);
width = 0;
},
{
anchors = (
{
name = _bottom;
},
{
name = bottom;
pos = (0,-230);
}
);
layerId = "9E6FDE2E-55A6-44A9-9556-F1822294BF26";
shapes = (
{
closed = 1;
nodes = (
(-144,-230,o),
(-139,-230,o),
(-138,-228,cs),
(-123,-176,o),
(-79,-148,o),
(0,-148,cs),
(78,-148,o),
(121,-175,o),
(135,-228,cs),
(137,-231,o),
(142,-230,o),
(145,-230,cs),
(150,-230,o),
(155,-230,o),
(155,-227,cs),
(155,-141,o),
(103,-97,o),
(-2,-97,cs),
(-105,-97,o),
(-157,-141,o),
(-157,-227,cs),
(-157,-230,o),
(-153,-230,o),
(-148,-230,cs)
);
}
);
width = 0;
},
{
anchors = (
{
name = _bottom;
pos = (1,0);
},
{
name = bottom;
pos = (1,-233);
}
);
layerId = "00F4936D-6309-4DEC-83B3-42806ED1A477";
shapes = (
{
closed = 1;
nodes = (
(-116,-233,o),
(-113,-233,o),
(-112,-229,cs),
(-100,-176,o),
(-62,-149,o),
(2,-149,cs),
(65,-149,o),
(103,-176,o),
(114,-229,cs),
(115,-233,o),
(119,-233,o),
(124,-233,cs),
(129,-233,o),
(133,-233,o),
(133,-229,cs),
(133,-140,o),
(89,-95,o),
(1,-95,cs),
(-87,-95,o),
(-131,-140,o),
(-131,-229,cs),
(-131,-233,o),
(-127,-233,o),
(-122,-233,cs)
);
}
);
width = 0;
}
);
unicode = 815;
userData = {
KernOnSpecialSpacing = {
L = NoKerning;
R = NoKerning;
};
};
}
{
glyphname = strokelongcomb;
layers = (
{
anchors = (
{
name = _center;
pos = (0,209);
}
);
layerId = master01;
shapes = (
{
closed = 1;
nodes = (
(237,182,ls),
(253,182,o),
(253,237,o),
(237,237,cs),
(-237,237,ls),
(-252,237,o),
(-252,182,o),
(-237,182,cs)
);
}
);
width = 0;
},
{
anchors = (
{
name = _center;
pos = (0,210);
}
);
layerId = "75918100-ED89-42A8-B0FE-888EB9C86810";
shapes = (
{
closed = 1;
nodes = (
(238,178,ls),
(253,178,o),
(253,242,o),
(239,242,cs),
(-239,242,ls),
(-251,242,o),
(-251,178,o),
(-239,178,cs)
);
}
);
width = 0;
},
{
anchors = (
{
name = _center;
pos = (0,209);
}
);
layerId = "6ABD9449-5E80-4451-809E-12ADEB9E9AB4";
shapes = (
{
closed = 1;
nodes = (
(237,183,ls),
(253,183,o),
(253,235,o),
(237,235,cs),
(-236,235,ls),
(-253,235,o),
(-253,183,o),
(-236,183,cs)
);
}
);
width = 0;
},
{
anchors = (
{
name = _center;
pos = (1,209);
}
);
layerId = "70B83247-6FA0-4662-9656-C86DD2A17D3B";
shapes = (
{
closed = 1;
nodes = (
(191,181,ls),
(203,181,o),
(203,238,o),
(191,238,cs),
(-189,238,ls),
(-201,238,o),
(-201,181,o),
(-189,181,cs)
);
}
);
width = 0;
},
{
anchors = (
{
name = _center;
pos = (-1,209);
}
);
layerId = "9E6FDE2E-55A6-44A9-9556-F1822294BF26";
shapes = (
{
closed = 1;
nodes = (
(284,183,ls),
(303,183,o),
(303,235,o),
(284,235,cs),
(-284,235,ls),
(-304,235,o),
(-304,183,o),
(-284,183,cs)
);
}
);
width = 0;
},
{
anchors = (
{
name = _center;
pos = (0,209);
}
);
layerId = "00F4936D-6309-4DEC-83B3-42806ED1A477";
shapes = (
{
closed = 1;
nodes = (
(237,182,ls),
(253,182,o),
(253,237,o),
(237,237,cs),
(-237,237,ls),
(-252,237,o),
(-252,182,o),
(-237,182,cs)
);
}
);
width = 0;
}
);
unicode = 822;
userData = {
KernOnSpecialSpacing = {
L = NoKerning;
R = NoKerning;
};
};
}
{
glyphname = "lowernumeral-greek";
layers = (
{
layerId = master01;
shapes = (
{
closed = 1;
nodes = (
(171,-10,ls),
(182,16,o),
(155,34,o),
(139,7,cs),
(50,-134,ls),
(41,-149,o),
(96,-180,o),
(104,-163,cs)
);
}
);
width = 222;
},
{
layerId = "75918100-ED89-42A8-B0FE-888EB9C86810";
shapes = (
{
closed = 1;
nodes = (
(186,-36,ls),
(203,8,o),
(167,34,o),
(138,-11,cs),
(51,-142,ls),
(36,-165,o),
(118,-209,o),
(128,-183,cs)
);
}
);
width = 239;
},
{
layerId = "6ABD9449-5E80-4451-809E-12ADEB9E9AB4";
shapes = (
{
closed = 1;
nodes = (
(166,0,ls),
(175,19,o),
(152,34,o),
(139,14,cs),
(50,-131,ls),
(42,-144,o),
(89,-169,o),
(96,-155,cs)
);
}
);
width = 217;
},
{
layerId = "70B83247-6FA0-4662-9656-C86DD2A17D3B";
shapes = (
{
closed = 1;
nodes = (
(157,-9,ls),
(168,25,o),
(140,34,o),
(125,4,cs),
(50,-141,ls),
(40,-160,o),
(97,-186,o),
(104,-166,cs)
);
}
);
width = 208;
},
{
layerId = "9E6FDE2E-55A6-44A9-9556-F1822294BF26";
shapes = (
{
closed = 1;
nodes = (
(185,-11,ls),
(195,7,o),
(170,34,o),
(153,10,cs),
(50,-128,ls),
(42,-139,o),
(96,-174,o),
(104,-159,cs)
);
}
);
width = 236;
},
{
layerId = "00F4936D-6309-4DEC-83B3-42806ED1A477";
shapes = (
{
closed = 1;
nodes = (
(171,-10,ls),
(182,16,o),
(155,34,o),
(139,7,cs),
(50,-134,ls),
(41,-149,o),
(96,-180,o),
(104,-163,cs)
);
}
);
width = 222;
}
);
unicode = 885;
userData = {
KernOnSpecialSpacing = {
L = NoKerning;
R = NoKerning;
};
};
}
{
color = 0;
glyphname = uni1D04;
layers = (
{
anchors = (
{
name = bottom;
pos = (258,0);
},
{
name = cedilla;
pos = (241,0);
},
{
name = top;
pos = (258,417);
}
);
layerId = master01;
shapes = (
{
closed = 1;
nodes = (
(292,-8,o),
(329,-6,o),
(359,5,cs),
(365,7,o),
(375,10,o),
(387,11,c),
(398,27,o),
(417,83,o),
(419,101,cs),
(420,109,o),
(390,117,o),
(387,107,cs),
(368,52,o),
(324,23,o),
(253,23,cs),
(170,23,o),
(107,99,o),
(107,216,cs),
(107,314,o),
(157,395,o),
(254,395,cs),
(326,395,o),
(367,364,o),
(375,303,cs),
(375,294,o),
(406,297,o),
(406,304,cs),
(406,326,o),
(401,393,o),
(393,408,c),
(382,409,o),
(377,409,o),
(368,411,cs),
(322,418,o),
(286,425,o),
(256,425,cs),
(121,425,o),
(26,331,o),
(26,199,cs),
(26,78,o),
(126,-8,o),
(250,-8,cs)
);
}
);
userData = {
RMXScaler = {
height = 91.6;
weight = 31;
width = 91.6;
};
};
width = 437;
},
{
anchors = (
{
name = bottom;
pos = (265,0);
},
{
name = cedilla;
pos = (245,0);
},
{
name = top;
pos = (265,417);
}
);
layerId = "75918100-ED89-42A8-B0FE-888EB9C86810";
shapes = (
{
closed = 1;
nodes = (
(306,-8,o),
(343,-4,o),
(374,5,cs),
(377,6,o),
(384,8,o),
(401,11,c),
(414,30,o),
(434,92,o),
(436,112,cs),
(437,121,o),
(397,127,o),
(394,119,cs),
(376,67,o),
(335,39,o),
(263,39,cs),
(173,39,o),
(132,112,o),
(132,216,cs),
(132,312,o),
(174,380,o),
(264,380,cs),
(331,380,o),
(371,351,o),
(378,288,cs),
(379,279,o),
(420,282,o),
(420,289,cs),
(420,311,o),
(416,388,o),
(408,408,c),
(407,408,o),
(385,409,o),
(378,411,cs),
(333,418,o),
(294,425,o),
(266,425,cs),
(126,425,o),
(21,340,o),
(21,199,cs),
(21,70,o),
(134,-8,o),
(259,-8,cs)
);
}
);
userData = {
RMXScaler = {
height = 91.6;
weight = 14;
width = 91.6;
};
};
width = 450;
},
{
anchors = (
{
name = bottom;
pos = (256,0);
},
{
name = cedilla;
pos = (242,0);
},
{
name = top;
pos = (256,417);
}
);
layerId = "6ABD9449-5E80-4451-809E-12ADEB9E9AB4";
shapes = (
{
closed = 1;
nodes = (
(287,-8,o),
(325,-6,o),
(356,5,cs),
(364,8,o),
(371,10,o),
(383,11,c),
(396,29,o),
(412,79,o),
(414,97,cs),
(415,106,o),
(388,112,o),
(386,104,cs),
(367,47,o),
(321,19,o),
(250,19,cs),
(170,19,o),
(100,94,o),
(100,216,cs),
(100,315,o),
(152,400,o),
(251,400,cs),
(323,400,o),
(367,371,o),
(375,308,cs),
(375,300,o),
(402,302,o),
(402,310,cs),
(402,329,o),
(398,393,o),
(389,408,c),
(381,408,o),
(374,409,o),
(366,411,cs),
(321,418,o),
(283,425,o),
(253,425,cs),
(120,425,o),
(29,327,o),
(29,199,cs),
(29,81,o),
(124,-8,o),
(247,-8,cs)
);
}
);
userData = {
RMXScaler = {
height = 91.6;
weight = 34;
width = 91.6;
};
};
width = 434;
},
{
anchors = (
{
name = bottom;
pos = (212,0);
},
{
name = cedilla;
pos = (197,0);
},
{
name = top;
pos = (212,417);
}
);
layerId = "70B83247-6FA0-4662-9656-C86DD2A17D3B";
shapes = (
{
closed = 1;
nodes = (
(240,-8,o),
(270,-5,o),
(295,5,cs),
(298,7,o),
(305,9,o),
(316,11,c),
(327,28,o),
(342,86,o),
(343,104,cs),
(345,113,o),
(317,121,o),
(314,111,cs),
(300,56,o),
(265,28,o),
(208,28,cs),
(143,28,o),
(102,103,o),
(102,216,cs),
(102,313,o),
(137,391,o),
(209,391,cs),
(265,391,o),
(298,360,o),
(304,299,cs),
(305,290,o),
(332,292,o),
(332,300,cs),
(332,323,o),
(328,392,o),
(322,408,c),
(315,409,o),
(308,409,o),
(300,411,cs),
(264,418,o),
(235,425,o),
(210,425,cs),
(101,425,o),
(22,333,o),
(22,199,cs),
(22,76,o),
(106,-8,o),
(206,-8,cs)
);
}
);
userData = {
RMXScaler = {
height = 91.5;
weight = 56;
width = 91.6;
};
};
width = 357;
},
{
anchors = (
{
name = bottom;
pos = (306,0);
},
{
name = cedilla;
pos = (287,0);
},
{
name = top;
pos = (306,417);
}
);
layerId = "9E6FDE2E-55A6-44A9-9556-F1822294BF26";
shapes = (
{
closed = 1;
nodes = (
(344,-8,o),
(389,-6,o),
(425,5,cs),
(434,8,o),
(446,10,o),
(458,11,c),
(472,27,o),
(494,79,o),
(496,97,cs),
(497,106,o),
(463,114,o),
(460,104,cs),
(438,47,o),
(384,19,o),
(299,19,cs),
(198,19,o),
(114,95,o),
(114,216,cs),
(114,315,o),
(178,399,o),
(300,399,cs),
(389,399,o),
(438,369,o),
(447,308,cs),
(448,299,o),
(482,302,o),
(482,309,cs),
(482,330,o),
(476,394,o),
(466,408,c),
(451,409,o),
(447,409,o),
(438,411,cs),
(381,418,o),
(339,425,o),
(303,425,cs),
(142,425,o),
(31,328,o),
(31,199,cs),
(31,81,o),
(147,-8,o),
(295,-8,cs)
);
}
);
width = 518;
},
{
anchors = (
{
name = bottom;
pos = (258,0);
},
{
name = cedilla;
pos = (241,0);
},
{
name = top;
pos = (258,417);
}
);
layerId = "00F4936D-6309-4DEC-83B3-42806ED1A477";
shapes = (
{
closed = 1;
nodes = (
(292,-8,o),
(329,-6,o),
(359,5,cs),
(365,7,o),
(375,10,o),
(387,11,c),
(398,27,o),
(417,83,o),
(419,101,cs),
(420,109,o),
(390,117,o),
(387,107,cs),
(368,52,o),
(324,23,o),
(253,23,cs),
(170,23,o),
(107,99,o),
(107,216,cs),
(107,314,o),
(157,395,o),
(254,395,cs),
(326,395,o),
(367,364,o),
(375,303,cs),
(375,294,o),
(406,297,o),
(406,304,cs),
(406,326,o),
(401,393,o),
(393,408,c),
(382,409,o),
(377,409,o),
(368,411,cs),
(322,418,o),
(286,425,o),
(256,425,cs),
(121,425,o),
(26,331,o),
(26,199,cs),
(26,78,o),
(126,-8,o),
(250,-8,cs)
);
}
);
userData = {
RMXScaler = {
height = 91.6;
weight = 31;
width = 91.6;
};
};
width = 437;
}
);
metricLeft = "=c.sc*0.9";
metricRight = "=c.sc*0.9";
unicode = 7428;
userData = {
KernOnSpecialSpacing = {
L = NoKerning;
R = NoKerning;
};
RMXScaler = {
source = c.sc;
};
};
}
{
color = 0;
glyphname = uni1D07;
layers = (
{
anchors = (
{
name = bottom;
pos = (204,0);
},
{
name = cedilla;
pos = (214,0);
},
{
name = ogonek;
pos = (355,4);
},
{
name = top;
pos = (204,415);
},
{
name = topleft;
pos = (9,417);
}
);
layerId = master01;
shapes = (
{
closed = 1;
nodes = (
(61,-1,o),
(90,0,o),
(119,0,cs),
(194,0,o),
(269,-2,o),
(344,-2,cs),
(369,-2,o),
(379,3,o),
(379,18,cs),
(379,105,ls),
(379,113,o),
(345,113,o),
(345,105,cs),
(345,58,o),
(322,33,o),
(276,32,cs),
(215,30,l),
(187,30,o),
(156,42,o),
(156,71,cs),
(156,181,l),
(229,181,ls),
(251,181,o),
(263,171,o),
(263,153,cs),
(263,128,ls),
(263,118,o),
(295,119,o),
(295,128,c),
(294,152,o),
(293,175,o),
(293,199,cs),
(293,222,o),
(294,246,o),
(295,269,c),
(295,279,o),
(263,279,o),
(263,269,cs),
(263,240,ls),
(263,222,o),
(251,212,o),
(229,212,cs),
(156,212,l),
(156,373,ls),
(156,380,o),
(158,385,o),
(164,385,c),
(258,381,ls),
(294,380,o),
(327,350,o),
(327,307,cs),
(327,299,o),
(362,299,o),
(362,307,cs),
(362,401,ls),
(362,412,o),
(351,417,o),
(326,417,cs),
(257,417,o),
(188,415,o),
(119,415,cs),
(89,415,o),
(59,416,o),
(28,417,c),
(20,417,o),
(19,387,o),
(28,387,cs),
(63,387,o),
(82,376,o),
(82,354,cs),
(82,63,ls),
(82,40,o),
(65,27,o),
(32,27,cs),
(22,27,o),
(23,-2,o),
(32,-2,c)
);
}
);
userData = {
RMXScaler = {
height = 91.6;
weight = 31;
width = 91.6;
};
};
width = 408;
},
{
anchors = (
{
name = bottom;
pos = (213,0);
},
{
name = cedilla;
pos = (224,0);
},
{
name = ogonek;
pos = (379,4);
},
{
name = top;
pos = (213,417);
},
{
name = topleft;
pos = (4,417);
}
);
layerId = "75918100-ED89-42A8-B0FE-888EB9C86810";
shapes = (
{
closed = 1;
nodes = (
(63,0,o),
(98,0,o),
(133,0,cs),
(211,0,o),
(289,-2,o),
(367,-2,cs),
(392,-2,o),
(403,3,o),
(403,18,cs),
(403,105,ls),
(403,114,o),
(363,112,o),
(363,105,cs),
(363,62,o),
(337,38,o),
(284,36,cs),
(248,35,l),
(220,35,o),
(189,48,o),
(189,77,cs),
(189,178,l),
(236,178,ls),
(250,178,o),
(256,169,o),
(256,150,cs),
(256,128,ls),
(256,118,o),
(292,118,o),
(292,128,c),
(291,152,o),
(291,175,o),
(291,199,cs),
(291,222,o),
(291,246,o),
(292,269,c),
(292,279,o),
(256,279,o),
(256,269,cs),
(256,243,ls),
(256,225,o),
(249,215,o),
(236,215,cs),
(189,215,l),
(189,368,ls),
(189,376,o),
(191,380,o),
(196,380,cs),
(266,377,ls),
(308,376,o),
(346,359,o),
(346,307,cs),
(346,299,o),
(385,299,o),
(385,307,cs),
(385,401,ls),
(385,412,o),
(370,417,o),
(335,417,cs),
(268,417,o),
(200,415,o),
(133,415,cs),
(97,415,o),
(61,416,o),
(24,417,c),
(15,417,o),
(15,383,o),
(24,383,cs),
(59,383,o),
(77,373,o),
(77,350,cs),
(77,67,ls),
(77,43,o),
(60,31,o),
(27,31,cs),
(18,31,o),
(19,-2,o),
(27,-2,c)
);
}
);
userData = {
RMXScaler = {
height = 91.6;
weight = 14;
width = 91.6;
};
};
width = 426;
},
{
anchors = (
{
name = bottom;
pos = (201,0);
},
{
name = cedilla;
pos = (206,0);
},
{
name = ogonek;
pos = (347,4);
},
{
name = top;
pos = (201,415);
},
{
name = topleft;
pos = (10,417);
}
);
layerId = "6ABD9449-5E80-4451-809E-12ADEB9E9AB4";
shapes = (
{
closed = 1;
nodes = (
(62,0,o),
(89,0,o),
(117,0,cs),
(190,0,o),
(263,-2,o),
(336,-2,cs),
(361,-2,o),
(372,3,o),
(372,18,cs),
(372,105,ls),
(372,113,o),
(338,113,o),
(338,105,cs),
(338,56,o),
(316,32,o),
(273,30,cs),
(204,28,l),
(176,28,o),
(145,40,o),
(145,69,cs),
(145,182,l),
(226,182,ls),
(251,182,o),
(265,172,o),
(265,154,cs),
(265,128,ls),
(265,118,o),
(296,119,o),
(296,128,c),
(295,152,o),
(294,175,o),
(294,199,cs),
(294,222,o),
(295,246,o),
(296,269,c),
(296,279,o),
(265,279,o),
(265,269,cs),
(265,239,ls),
(265,221,o),
(251,211,o),
(226,211,cs),
(145,211,l),
(145,374,ls),
(145,381,o),
(147,386,o),
(153,386,cs),
(256,383,ls),
(289,382,o),
(321,347,o),
(321,307,cs),
(321,299,o),
(354,299,o),
(354,307,cs),
(354,401,ls),
(354,412,o),
(345,417,o),
(323,417,cs),
(253,417,o),
(184,415,o),
(114,415,cs),
(86,415,o),
(58,416,o),
(29,417,c),
(21,417,o),
(21,389,o),
(29,389,cs),
(64,389,o),
(83,377,o),
(83,355,cs),
(83,62,ls),
(83,39,o),
(66,26,o),
(34,26,cs),
(24,26,o),
(24,-2,o),
(34,-2,c)
);
}
);
userData = {
RMXScaler = {
height = 91.6;
weight = 34;
width = 91.6;
};
};
width = 403;
},
{
anchors = (
{
name = bottom;
pos = (177,0);
},
{
name = cedilla;
pos = (184,0);
},
{
name = ogonek;
pos = (310,4);
},
{
name = top;
pos = (177,416);
},
{
name = topleft;
pos = (7,417);
}
);
guides = (
{
pos = (-22,230);
showMeasurement = 1;
}
);
layerId = "70B83247-6FA0-4662-9656-C86DD2A17D3B";
shapes = (
{
closed = 1;
nodes = (
(53,0,o),
(80,0,o),
(106,0,cs),
(171,0,o),
(235,-2,o),
(300,-2,cs),
(321,-2,o),
(330,3,o),
(330,18,cs),
(330,105,ls),
(330,114,o),
(299,112,o),
(299,105,cs),
(299,59,o),
(279,35,o),
(238,33,cs),
(193,31,l),
(170,31,o),
(144,44,o),
(144,73,cs),
(144,180,l),
(198,180,ls),
(214,180,o),
(222,170,o),
(222,152,cs),
(222,128,ls),
(222,118,o),
(251,119,o),
(251,128,c),
(250,152,o),
(250,175,o),
(250,199,cs),
(250,222,o),
(250,246,o),
(251,269,c),
(251,279,o),
(222,279,o),
(222,269,cs),
(222,241,ls),
(222,223,o),
(213,213,o),
(198,213,cs),
(144,213,l),
(144,371,ls),
(144,377,o),
(145,383,o),
(153,383,c),
(223,380,ls),
(255,378,o),
(285,353,o),
(285,307,cs),
(285,299,o),
(315,299,o),
(315,307,cs),
(315,401,ls),
(315,412,o),
(305,417,o),
(281,417,cs),
(223,417,o),
(165,415,o),
(106,415,cs),
(79,415,o),
(51,416,o),
(23,417,c),
(16,417,o),
(16,386,o),
(23,386,cs),
(53,386,o),
(69,375,o),
(69,353,cs),
(69,64,ls),
(69,41,o),
(54,28,o),
(27,28,cs),
(19,28,o),
(19,-2,o),
(27,-2,c)
);
}
);
userData = {
RMXScaler = {
height = 91.5;
weight = 56;
width = 91.6;
};
};
width = 354;
},
{
anchors = (
{
name = bottom;
pos = (232,0);
},
{
name = cedilla;
pos = (235,0);
},
{
name = ogonek;
pos = (401,4);
},
{
name = top;
pos = (232,415);
},
{
name = topleft;
pos = (12,417);
}
);
layerId = "9E6FDE2E-55A6-44A9-9556-F1822294BF26";
shapes = (
{
closed = 1;
nodes = (
(70,-1,o),
(102,0,o),
(133,0,cs),
(218,0,o),
(304,-2,o),
(389,-2,cs),
(417,-2,o),
(430,3,o),
(430,18,cs),
(430,105,ls),
(430,112,o),
(391,113,o),
(391,105,cs),
(391,57,o),
(366,32,o),
(315,30,cs),
(237,28,l),
(205,28,o),
(170,40,o),
(170,70,cs),
(170,182,l),
(260,182,ls),
(289,182,o),
(304,172,o),
(304,154,cs),
(304,128,ls),
(304,118,o),
(341,119,o),
(341,128,c),
(339,152,o),
(338,175,o),
(338,199,cs),
(338,222,o),
(339,246,o),
(341,269,c),
(341,279,o),
(304,280,o),
(304,269,cs),
(304,239,ls),
(304,221,o),
(290,211,o),
(260,211,cs),
(170,211,l),
(170,374,ls),
(170,382,o),
(173,386,o),
(176,386,c),
(295,383,ls),
(334,382,o),
(371,348,o),
(371,307,cs),
(371,299,o),
(409,299,o),
(409,307,cs),
(409,401,ls),
(409,412,o),
(398,417,o),
(373,417,cs),
(293,417,o),
(212,415,o),
(133,415,cs),
(100,415,o),
(67,416,o),
(34,417,c),
(24,417,o),
(23,389,o),
(34,389,cs),
(74,389,o),
(95,377,o),
(95,354,cs),
(95,62,ls),
(95,39,o),
(77,26,o),
(39,26,cs),
(27,26,o),
(28,-2,o),
(39,-2,c)
);
}
);
width = 464;
},
{
anchors = (
{
name = bottom;
pos = (204,0);
},
{
name = cedilla;
pos = (214,0);
},
{
name = ogonek;
pos = (355,4);
},
{
name = top;
pos = (204,415);
},
{
name = topleft;
pos = (9,417);
}
);
layerId = "00F4936D-6309-4DEC-83B3-42806ED1A477";
shapes = (
{
closed = 1;
nodes = (
(61,-1,o),
(90,0,o),
(119,0,cs),
(194,0,o),
(269,-2,o),
(344,-2,cs),
(369,-2,o),
(379,3,o),
(379,18,cs),
(379,105,ls),
(379,113,o),
(345,113,o),
(345,105,cs),
(345,58,o),
(322,33,o),
(276,32,cs),
(215,30,l),
(187,30,o),
(156,42,o),
(156,71,cs),
(156,181,l),
(229,181,ls),
(251,181,o),
(263,171,o),
(263,153,cs),
(263,128,ls),
(263,118,o),
(295,119,o),
(295,128,c),
(294,152,o),
(293,175,o),
(293,199,cs),
(293,222,o),
(294,246,o),
(295,269,c),
(295,279,o),
(263,279,o),
(263,269,cs),
(263,240,ls),
(263,222,o),
(251,212,o),
(229,212,cs),
(156,212,l),
(156,373,ls),
(156,380,o),
(158,385,o),
(164,385,c),
(258,381,ls),
(294,380,o),
(327,350,o),
(327,307,cs),
(327,299,o),
(362,299,o),
(362,307,cs),
(362,401,ls),
(362,412,o),
(351,417,o),
(326,417,cs),
(257,417,o),
(188,415,o),
(119,415,cs),
(89,415,o),
(59,416,o),
(28,417,c),
(20,417,o),
(19,387,o),
(28,387,cs),
(63,387,o),
(82,376,o),
(82,354,cs),
(82,63,ls),
(82,40,o),
(65,27,o),
(32,27,cs),
(22,27,o),
(23,-2,o),
(32,-2,c)
);
}
);
userData = {
RMXScaler = {
height = 91.6;
weight = 31;
width = 91.6;
};
};
width = 408;
}
);
unicode = 7431;
userData = {
KernOnSpecialSpacing = {
L = NoKerning;
R = NoKerning;
};
RMXScaler = {
source = e.sc;
};
};
}
{
color = 0;
glyphname = uni1D0F;
kernLeft = KO_o;
layers = (
{
anchors = (
{
name = bottom;
pos = (237,0);
},
{
name = center;
pos = (237,208);
},
{
name = ogonek;
pos = (347,22);
},
{
name = top;
pos = (237,417);
},
{
name = topleft;
pos = (8,417);
},
{
name = topright;
pos = (465,417);
}
);
layerId = master01;
shapes = (
{
closed = 1;
nodes = (
(363,-8,o),
(447,95,o),
(447,212,cs),
(447,329,o),
(364,425,o),
(237,425,cs),
(110,425,o),
(26,329,o),
(26,212,cs),
(26,95,o),
(110,-8,o),
(236,-8,cs)
);
},
{
closed = 1;
nodes = (
(161,22,o),
(105,121,o),
(105,212,cs),
(105,303,o),
(152,396,o),
(236,396,cs),
(312,396,o),
(368,303,o),
(368,212,cs),
(368,121,o),
(353,22,o),
(240,22,cs)
);
}
);
userData = {
RMXScaler = {
height = 91.6;
weight = 31;
width = 91.6;
};
};
width = 473;
},
{
anchors = (
{
name = bottom;
pos = (231,0);
},
{
name = center;
pos = (231,208);
},
{
name = ogonek;
pos = (338,22);
},
{
name = top;
pos = (231,417);
},
{
name = topleft;
pos = (3,417);
},
{
name = topright;
pos = (459,417);
}
);
layerId = "75918100-ED89-42A8-B0FE-888EB9C86810";
shapes = (
{
closed = 1;
nodes = (
(360,-8,o),
(442,92,o),
(442,208,cs),
(442,324,o),
(360,425,o),
(232,425,cs),
(104,425,o),
(21,324,o),
(21,208,cs),
(21,92,o),
(104,-8,o),
(232,-8,cs)
);
},
{
closed = 1;
nodes = (
(168,32,o),
(145,117,o),
(145,208,cs),
(145,299,o),
(168,387,o),
(232,387,cs),
(296,387,o),
(318,299,o),
(318,208,cs),
(318,117,o),
(296,32,o),
(232,32,cs)
);
}
);
userData = {
RMXScaler = {
height = 91.6;
weight = 14;
width = 91.6;
};
};
width = 463;
},
{
anchors = (
{
name = bottom;
pos = (240,0);
},
{
name = center;
pos = (240,208);
},
{
name = ogonek;
pos = (348,22);
},
{
name = top;
pos = (240,417);
},
{
name = topleft;
pos = (11,417);
},
{
name = topright;
pos = (468,417);
}
);
layerId = "6ABD9449-5E80-4451-809E-12ADEB9E9AB4";
shapes = (
{
closed = 1;
nodes = (
(361,-8,o),
(450,96,o),
(450,212,cs),
(450,328,o),
(361,425,o),
(239,425,cs),
(117,425,o),
(29,328,o),
(29,212,cs),
(29,96,o),
(117,-8,o),
(239,-8,cs)
);
},
{
closed = 1;
nodes = (
(150,19,o),
(99,127,o),
(99,212,cs),
(99,297,o),
(150,399,o),
(239,399,cs),
(328,399,o),
(381,297,o),
(381,212,cs),
(381,127,o),
(328,19,o),
(239,19,cs)
);
}
);
userData = {
RMXScaler = {
height = 91.6;
weight = 34;
width = 91.6;
};
};
width = 479;
},
{
anchors = (
{
name = bottom;
pos = (191,0);
},
{
name = center;
pos = (191,208);
},
{
name = ogonek;
pos = (277,22);
},
{
name = top;
pos = (191,417);
},
{
name = topleft;
pos = (8,417);
},
{
name = topright;
pos = (373,417);
}
);
layerId = "70B83247-6FA0-4662-9656-C86DD2A17D3B";
shapes = (
{
closed = 1;
nodes = (
(294,-8,o),
(359,95,o),
(359,209,cs),
(359,328,o),
(295,425,o),
(191,425,cs),
(87,425,o),
(22,323,o),
(22,209,cs),
(22,99,o),
(86,-8,o),
(190,-8,cs)
);
},
{
closed = 1;
nodes = (
(137,25,o),
(102,110,o),
(102,210,cs),
(102,310,o),
(137,394,o),
(191,394,cs),
(245,394,o),
(280,310,o),
(280,210,cs),
(280,110,o),
(245,25,o),
(191,25,cs)
);
}
);
userData = {
RMXScaler = {
height = 91.5;
weight = 56;
width = 91.6;
};
};
width = 381;
},
{
anchors = (
{
name = bottom;
pos = (284,0);
},
{
name = center;
pos = (284,208);
},
{
name = ogonek;
pos = (414,22);
},
{
name = top;
pos = (284,417);
},
{
name = topleft;
pos = (10,417);
},
{
name = topright;
pos = (558,417);
}
);
layerId = "9E6FDE2E-55A6-44A9-9556-F1822294BF26";
shapes = (
{
closed = 1;
nodes = (
(429,-8,o),
(537,84,o),
(537,211,cs),
(537,337,o),
(429,425,o),
(285,425,cs),
(132,425,o),
(31,337,o),
(31,211,cs),
(31,84,o),
(132,-8,o),
(283,-8,cs)
);
},
{
closed = 1;
nodes = (
(180,20,o),
(111,110,o),
(111,211,cs),
(111,312,o),
(180,399,o),
(284,399,cs),
(388,399,o),
(457,312,o),
(457,211,cs),
(457,110,o),
(388,20,o),
(284,20,cs)
);
}
);
width = 569;
},
{
anchors = (
{
name = bottom;
pos = (237,0);
},
{
name = center;
pos = (237,208);
},
{
name = ogonek;
pos = (347,22);
},
{
name = top;
pos = (237,417);
},
{
name = topleft;
pos = (8,417);
},
{
name = topright;
pos = (465,417);
}
);
layerId = "00F4936D-6309-4DEC-83B3-42806ED1A477";
shapes = (
{
closed = 1;
nodes = (
(363,-8,o),
(447,95,o),
(447,212,cs),
(447,329,o),
(364,425,o),
(237,425,cs),
(110,425,o),
(26,329,o),
(26,212,cs),
(26,95,o),
(110,-8,o),
(236,-8,cs)
);
},
{
closed = 1;
nodes = (
(161,22,o),
(105,121,o),
(105,212,cs),
(105,303,o),
(152,396,o),
(236,396,cs),
(312,396,o),
(368,303,o),
(368,212,cs),
(368,121,o),
(353,22,o),
(240,22,cs)
);
}
);
userData = {
RMXScaler = {
height = 91.6;
weight = 31;
width = 91.6;
};
};
width = 473;
}
);
metricLeft = "=o.sc*0.9";
metricRight = "=o.sc*0.9";
unicode = 7439;
userData = {
KernOnSpecialSpacing = {
L = NoKerning;
R = NoKerning;
};
RMXScaler = {
source = o.sc;
};
};
}
{
color = 0;
glyphname = uni1D15;
layers = (
{
guides = (
{
angle = 180;
pos = (276,928);
}
);
layerId = master01;
shapes = (
{
closed = 1;
nodes = (
(269,-11,o),
(327,58,o),
(327,138,cs),
(327,195,o),
(292,251,o),
(238,276,c),
(294,299,o),
(327,353,o),
(327,415,c),
(248,415,l),
(248,351,o),
(220,289,o),
(176,289,cs),
(134,289,o),
(105,349,o),
(105,415,c),
(26,415,l),
(26,358,o),
(63,301,o),
(120,277,c),
(65,253,o),
(26,198,o),
(26,140,cs),
(26,63,o),
(92,-11,o),
(180,-11,cs)
);
},
{
closed = 1;
nodes = (
(134,11,o),
(105,71,o),
(105,137,cs),
(105,203,o),
(134,267,o),
(177,267,cs),
(219,267,o),
(248,203,o),
(248,137,cs),
(248,73,o),
(220,11,o),
(176,11,cs)
);
}
);
width = 353;
},
{
layerId = "75918100-ED89-42A8-B0FE-888EB9C86810";
shapes = (
{
closed = 1;
nodes = (
(309,-11,o),
(376,37,o),
(376,141,cs),
(376,205,o),
(341,252,o),
(283,276,c),
(342,296,o),
(376,343,o),
(376,415,c),
(253,415,l),
(253,358,o),
(236,294,o),
(196,294,cs),
(159,294,o),
(140,351,o),
(140,415,c),
(16,415,l),
(16,347,o),
(55,300,o),
(113,278,c),
(54,255,o),
(16,207,o),
(16,140,cs),
(16,43,o),
(96,-11,o),
(196,-11,cs)
);
},
{
closed = 1;
nodes = (
(159,17,o),
(140,75,o),
(140,138,cs),
(140,195,o),
(159,264,o),
(196,264,cs),
(232,264,o),
(253,201,o),
(253,138,cs),
(253,82,o),
(236,17,o),
(196,17,cs)
);
}
);
width = 392;
},
{
layerId = "6ABD9449-5E80-4451-809E-12ADEB9E9AB4";
shapes = (
{
closed = 1;
nodes = (
(255,-11,o),
(310,64,o),
(310,137,cs),
(310,192,o),
(274,251,o),
(222,276,c),
(277,300,o),
(310,356,o),
(310,415,c),
(246,415,l),
(246,348,o),
(214,288,o),
(169,288,cs),
(125,288,o),
(92,349,o),
(92,415,c),
(28,415,l),
(28,361,o),
(65,302,o),
(121,277,c),
(67,253,o),
(28,195,o),
(28,140,cs),
(28,69,o),
(90,-11,o),
(174,-11,cs)
);
},
{
closed = 1;
nodes = (
(125,9,o),
(92,70,o),
(92,137,cs),
(92,205,o),
(124,268,o),
(170,268,cs),
(214,268,o),
(246,203,o),
(246,137,cs),
(246,70,o),
(214,9,o),
(169,9,cs)
);
}
);
width = 338;
},
{
layerId = "70B83247-6FA0-4662-9656-C86DD2A17D3B";
shapes = (
{
closed = 1;
nodes = (
(248,-11,o),
(300,52,o),
(300,139,cs),
(300,197,o),
(270,252,o),
(224,276,c),
(271,298,o),
(300,350,o),
(300,415,c),
(221,415,l),
(221,353,o),
(200,291,o),
(164,291,cs),
(129,291,o),
(107,350,o),
(107,415,c),
(28,415,l),
(28,355,o),
(60,301,o),
(109,277,c),
(60,254,o),
(28,200,o),
(28,140,cs),
(28,58,o),
(88,-11,o),
(166,-11,cs)
);
},
{
closed = 1;
nodes = (
(130,12,o),
(107,72,o),
(107,138,cs),
(107,201,o),
(129,266,o),
(164,266,cs),
(199,266,o),
(221,202,o),
(221,138,cs),
(221,76,o),
(200,12,o),
(164,12,cs)
);
}
);
width = 328;
},
{
layerId = "9E6FDE2E-55A6-44A9-9556-F1822294BF26";
shapes = (
{
closed = 1;
nodes = (
(295,-11,o),
(359,63,o),
(359,137,cs),
(359,193,o),
(318,251,o),
(258,276,c),
(321,300,o),
(359,356,o),
(359,415,c),
(280,415,l),
(280,348,o),
(244,288,o),
(193,288,cs),
(143,288,o),
(107,349,o),
(107,415,c),
(28,415,l),
(28,360,o),
(70,302,o),
(135,277,c),
(73,253,o),
(28,196,o),
(28,140,cs),
(28,68,o),
(101,-11,o),
(199,-11,cs)
);
},
{
closed = 1;
nodes = (
(143,9,o),
(107,71,o),
(107,137,cs),
(107,205,o),
(142,268,o),
(194,268,cs),
(245,268,o),
(280,204,o),
(280,137,cs),
(280,70,o),
(244,9,o),
(193,9,cs)
);
}
);
width = 387;
},
{
guides = (
{
angle = 180;
pos = (276,928);
}
);
layerId = "00F4936D-6309-4DEC-83B3-42806ED1A477";
shapes = (
{
closed = 1;
nodes = (
(269,-11,o),
(327,58,o),
(327,138,cs),
(327,195,o),
(292,251,o),
(238,276,c),
(294,299,o),
(327,353,o),
(327,415,c),
(248,415,l),
(248,351,o),
(220,289,o),
(176,289,cs),
(134,289,o),
(105,349,o),
(105,415,c),
(26,415,l),
(26,358,o),
(63,301,o),
(120,277,c),
(65,253,o),
(26,198,o),
(26,140,cs),
(26,63,o),
(92,-11,o),
(180,-11,cs)
);
},
{
closed = 1;
nodes = (
(134,11,o),
(105,71,o),
(105,137,cs),
(105,203,o),
(134,267,o),
(177,267,cs),
(219,267,o),
(248,203,o),
(248,137,cs),
(248,73,o),
(220,11,o),
(176,11,cs)
);
}
);
width = 353;
}
);
metricLeft = o;
metricRight = o;
unicode = 7445;
userData = {
KernOnSpecialSpacing = {
L = NoKerning;
R = NoKerning;
};
};
}
{
color = 0;
glyphname = uni1D25;
layers = (
{
layerId = master01;
shapes = (
{
closed = 1;
nodes = (
(246,-11,o),
(293,0,o),
(338,22,c),
(375,4,o),
(412,-11,o),
(479,-11,cs),
(562,-11,o),
(620,77,o),
(620,147,cs),
(620,154,o),
(612,159,o),
(594,161,cs),
(576,163,o),
(570,159,o),
(569,153,cs),
(564,106,o),
(529,21,o),
(473,21,cs),
(444,21,o),
(415,30,o),
(384,47,c),
(455,91,o),
(527,175,o),
(527,256,cs),
(527,371,o),
(438,425,o),
(328,425,cs),
(234,425,o),
(141,363,o),
(141,256,cs),
(141,177,o),
(204,97,o),
(291,46,c),
(260,29,o),
(230,21,o),
(201,21,cs),
(145,21,o),
(102,92,o),
(88,154,cs),
(86,163,o),
(73,163,o),
(56,158,cs),
(40,154,o),
(33,147,o),
(34,139,cs),
(43,69,o),
(115,-11,o),
(194,-11,cs)
);
}
);
width = 654;
},
{
layerId = "75918100-ED89-42A8-B0FE-888EB9C86810";
shapes = (
{
closed = 1;
nodes = (
(239,-11,o),
(287,0,o),
(331,22,c),
(372,2,o),
(405,-11,o),
(472,-11,cs),
(555,-11,o),
(613,77,o),
(613,147,cs),
(613,154,o),
(605,159,o),
(587,161,cs),
(569,163,o),
(563,159,o),
(563,153,cs),
(557,106,o),
(522,21,o),
(466,21,cs),
(437,21,o),
(408,30,o),
(377,47,c),
(448,91,o),
(521,175,o),
(521,256,cs),
(521,371,o),
(432,425,o),
(321,425,cs),
(227,425,o),
(134,363,o),
(134,256,cs),
(134,177,o),
(197,97,o),
(284,46,c),
(253,29,o),
(223,21,o),
(194,21,cs),
(138,21,o),
(95,92,o),
(81,154,cs),
(79,163,o),
(66,163,o),
(49,158,cs),
(33,154,o),
(26,147,o),
(27,139,cs),
(37,69,o),
(108,-11,o),
(188,-11,cs)
);
}
);
width = 641;
},
{
layerId = "6ABD9449-5E80-4451-809E-12ADEB9E9AB4";
shapes = (
{
closed = 1;
nodes = (
(249,-11,o),
(297,0,o),
(341,22,c),
(382,1,o),
(415,-11,o),
(482,-11,cs),
(565,-11,o),
(624,77,o),
(624,147,cs),
(624,154,o),
(616,159,o),
(597,161,cs),
(579,163,o),
(573,159,o),
(573,153,cs),
(567,106,o),
(532,21,o),
(476,21,cs),
(447,21,o),
(418,30,o),
(388,47,c),
(458,91,o),
(531,175,o),
(531,256,cs),
(531,371,o),
(442,425,o),
(332,425,cs),
(237,425,o),
(145,363,o),
(145,256,cs),
(145,177,o),
(208,97,o),
(294,46,c),
(264,29,o),
(233,21,o),
(205,21,cs),
(148,21,o),
(105,92,o),
(91,154,cs),
(89,163,o),
(77,163,o),
(60,158,cs),
(43,154,o),
(37,147,o),
(38,139,cs),
(47,69,o),
(118,-11,o),
(198,-11,cs)
);
}
);
width = 661;
},
{
layerId = "70B83247-6FA0-4662-9656-C86DD2A17D3B";
shapes = (
{
closed = 1;
nodes = (
(198,-11,o),
(237,0,o),
(272,22,c),
(305,1,o),
(331,-11,o),
(385,-11,cs),
(452,-11,o),
(498,77,o),
(498,147,cs),
(498,154,o),
(492,159,o),
(477,161,cs),
(462,163,o),
(458,159,o),
(458,153,cs),
(453,106,o),
(425,21,o),
(380,21,cs),
(357,21,o),
(333,30,o),
(310,47,c),
(366,91,o),
(424,175,o),
(424,256,cs),
(424,371,o),
(353,425,o),
(265,425,cs),
(189,425,o),
(115,363,o),
(115,256,cs),
(115,177,o),
(165,97,o),
(235,46,c),
(210,29,o),
(186,21,o),
(163,21,cs),
(118,21,o),
(83,92,o),
(72,154,cs),
(71,163,o),
(61,163,o),
(47,158,cs),
(34,154,o),
(28,147,o),
(29,139,cs),
(37,69,o),
(94,-11,o),
(157,-11,cs)
);
}
);
width = 527;
},
{
layerId = "9E6FDE2E-55A6-44A9-9556-F1822294BF26";
shapes = (
{
closed = 1;
nodes = (
(295,-11,o),
(352,0,o),
(405,22,c),
(446,6,o),
(494,-11,o),
(574,-11,cs),
(674,-11,o),
(744,77,o),
(744,147,cs),
(744,154,o),
(735,159,o),
(712,161,cs),
(691,163,o),
(684,159,o),
(683,153,cs),
(677,106,o),
(635,21,o),
(567,21,cs),
(533,21,o),
(498,30,o),
(461,47,c),
(546,91,o),
(633,174,o),
(633,256,cs),
(633,371,o),
(526,425,o),
(394,425,cs),
(281,425,o),
(169,363,o),
(169,256,cs),
(169,176,o),
(245,97,o),
(349,46,c),
(313,29,o),
(276,21,o),
(241,21,cs),
(173,21,o),
(122,92,o),
(105,154,cs),
(103,163,o),
(87,163,o),
(67,158,cs),
(48,154,o),
(40,147,o),
(41,139,cs),
(52,69,o),
(138,-11,o),
(233,-11,cs)
);
}
);
width = 785;
},
{
layerId = "00F4936D-6309-4DEC-83B3-42806ED1A477";
shapes = (
{
closed = 1;
nodes = (
(246,-11,o),
(293,0,o),
(338,22,c),
(375,4,o),
(412,-11,o),
(479,-11,cs),
(562,-11,o),
(620,77,o),
(620,147,cs),
(620,154,o),
(612,159,o),
(594,161,cs),
(576,163,o),
(570,159,o),
(569,153,cs),
(564,106,o),
(529,21,o),
(473,21,cs),
(444,21,o),
(415,30,o),
(384,47,c),
(455,91,o),
(527,175,o),
(527,256,cs),
(527,371,o),
(438,425,o),
(328,425,cs),
(234,425,o),
(141,363,o),
(141,256,cs),
(141,177,o),
(204,97,o),
(291,46,c),
(260,29,o),
(230,21,o),
(201,21,cs),
(145,21,o),
(102,92,o),
(88,154,cs),
(86,163,o),
(73,163,o),
(56,158,cs),
(40,154,o),
(33,147,o),
(34,139,cs),
(43,69,o),
(115,-11,o),
(194,-11,cs)
);
}
);
width = 654;
}
);
unicode = 7461;
userData = {
KernOnSpecialSpacing = {
L = NoKerning;
R = NoKerning;
};
};
}
{
glyphname = Tmod;
layers = (
{
anchors = (
{
name = bottom;
pos = (208,284);
},
{
name = top;
pos = (211,675);
}
);
layerId = master01;
shapes = (
{
closed = 1;
nodes = (
(150,284,o),
(179,284,o),
(208,284,cs),
(237,284,o),
(267,284,o),
(296,281,c),
(302,281,o),
(302,308,o),
(296,308,cs),
(249,308,o),
(241,320,o),
(241,343,cs),
(241,635,ls),
(241,644,o),
(246,649,o),
(256,649,cs),
(303,649,ls),
(354,649,o),
(367,628,o),
(367,572,cs),
(367,567,o),
(394,567,o),
(394,572,cs),
(394,667,ls),
(394,674,o),
(389,677,o),
(371,677,cs),
(318,677,o),
(263,675,o),
(210,675,cs),
(156,675,o),
(102,677,o),
(49,677,cs),
(30,677,o),
(26,674,o),
(25,667,cs),
(25,572,ls),
(26,567,o),
(52,567,o),
(52,572,cs),
(52,624,o),
(72,649,o),
(126,649,cs),
(164,649,ls),
(174,649,o),
(178,644,o),
(178,635,cs),
(178,343,ls),
(178,320,o),
(169,308,o),
(120,308,cs),
(114,308,o),
(114,281,o),
(120,281,c)
);
}
);
width = 419;
},
{
anchors = (
{
name = bottom;
pos = (228,284);
},
{
name = top;
pos = (225,675);
}
);
layerId = "75918100-ED89-42A8-B0FE-888EB9C86810";
shapes = (
{
closed = 1;
nodes = (
(157,284,o),
(193,284,o),
(228,284,cs),
(263,284,o),
(298,284,o),
(333,282,c),
(339,282,o),
(339,313,o),
(333,313,cs),
(287,313,o),
(278,323,o),
(278,347,cs),
(278,622,ls),
(278,631,o),
(283,636,o),
(293,636,cs),
(342,636,ls),
(389,636,o),
(402,612,o),
(402,559,cs),
(402,554,o),
(433,554,o),
(433,559,cs),
(433,666,ls),
(433,674,o),
(427,676,o),
(410,676,cs),
(350,676,o),
(289,675,o),
(229,675,cs),
(169,675,o),
(109,676,o),
(48,676,cs),
(30,676,o),
(26,674,o),
(25,666,cs),
(25,559,ls),
(26,554,o),
(57,554,o),
(57,559,cs),
(57,610,o),
(76,636,o),
(126,636,cs),
(166,636,ls),
(176,636,o),
(180,631,o),
(180,622,cs),
(180,347,ls),
(180,323,o),
(171,313,o),
(122,313,cs),
(116,313,o),
(116,282,o),
(122,282,c)
);
}
);
width = 458;
},
{
anchors = (
{
name = bottom;
pos = (202,284);
},
{
name = top;
pos = (203,675);
}
);
layerId = "6ABD9449-5E80-4451-809E-12ADEB9E9AB4";
shapes = (
{
closed = 1;
nodes = (
(147,284,o),
(174,284,o),
(202,284,cs),
(229,284,o),
(256,284,o),
(284,281,c),
(290,281,o),
(290,307,o),
(284,307,cs),
(237,307,o),
(228,319,o),
(228,342,cs),
(228,639,ls),
(228,649,o),
(233,653,o),
(243,653,cs),
(290,653,ls),
(342,653,o),
(356,633,o),
(356,577,cs),
(356,571,o),
(381,571,o),
(381,577,cs),
(381,667,ls),
(381,675,o),
(376,677,o),
(358,677,cs),
(306,677,o),
(255,675,o),
(203,675,cs),
(152,675,o),
(100,677,o),
(49,677,cs),
(30,677,o),
(26,674,o),
(25,667,cs),
(25,577,ls),
(26,571,o),
(51,571,o),
(51,577,cs),
(51,629,o),
(70,653,o),
(126,653,cs),
(163,653,ls),
(173,653,o),
(177,649,o),
(177,639,cs),
(177,342,ls),
(177,319,o),
(168,307,o),
(120,307,cs),
(114,307,o),
(114,281,o),
(120,281,c)
);
}
);
width = 406;
},
{
anchors = (
{
name = bottom;
pos = (176,284);
},
{
name = top;
pos = (178,675);
}
);
layerId = "70B83247-6FA0-4662-9656-C86DD2A17D3B";
shapes = (
{
closed = 1;
nodes = (
(126,284,o),
(151,284,o),
(176,284,cs),
(202,284,o),
(227,284,o),
(252,281,c),
(258,281,o),
(258,310,o),
(252,310,cs),
(213,310,o),
(208,321,o),
(208,344,cs),
(208,631,ls),
(208,640,o),
(212,645,o),
(220,645,cs),
(258,645,ls),
(293,645,o),
(308,630,o),
(308,568,cs),
(308,563,o),
(331,563,o),
(331,568,cs),
(331,667,ls),
(331,674,o),
(327,676,o),
(313,676,cs),
(268,676,o),
(223,675,o),
(178,675,cs),
(133,675,o),
(88,676,o),
(43,676,cs),
(29,676,o),
(25,674,o),
(25,667,cs),
(25,568,ls),
(25,563,o),
(47,563,o),
(47,568,cs),
(47,626,o),
(68,645,o),
(105,645,cs),
(136,645,ls),
(143,645,o),
(148,640,o),
(148,631,cs),
(148,344,ls),
(148,321,o),
(142,310,o),
(101,310,cs),
(95,310,o),
(95,281,o),
(101,281,c)
);
}
);
width = 356;
},
{
anchors = (
{
name = bottom;
pos = (239,284);
},
{
name = top;
pos = (240,675);
}
);
layerId = "9E6FDE2E-55A6-44A9-9556-F1822294BF26";
shapes = (
{
closed = 1;
nodes = (
(172,284,o),
(206,284,o),
(239,284,cs),
(272,284,o),
(306,284,o),
(339,281,c),
(345,281,o),
(345,307,o),
(339,307,cs),
(284,307,o),
(273,319,o),
(273,343,cs),
(273,639,ls),
(273,648,o),
(278,652,o),
(291,652,cs),
(347,652,ls),
(413,652,o),
(425,626,o),
(425,577,cs),
(425,571,o),
(457,571,o),
(456,577,cs),
(456,667,ls),
(457,675,o),
(450,677,o),
(429,677,cs),
(366,677,o),
(303,675,o),
(240,675,cs),
(178,675,o),
(115,677,o),
(53,677,cs),
(31,677,o),
(26,675,o),
(25,667,cs),
(25,577,ls),
(26,571,o),
(57,571,o),
(57,577,cs),
(57,623,o),
(74,652,o),
(146,652,cs),
(192,652,ls),
(203,652,o),
(208,648,o),
(208,639,cs),
(208,343,ls),
(208,319,o),
(194,307,o),
(139,307,cs),
(133,307,o),
(133,281,o),
(139,281,c)
);
}
);
width = 481;
},
{
anchors = (
{
name = bottom;
pos = (208,284);
},
{
name = top;
pos = (211,675);
}
);
layerId = "00F4936D-6309-4DEC-83B3-42806ED1A477";
shapes = (
{
closed = 1;
nodes = (
(150,284,o),
(179,284,o),
(208,284,cs),
(237,284,o),
(267,284,o),
(296,281,c),
(302,281,o),
(302,308,o),
(296,308,cs),
(249,308,o),
(241,320,o),
(241,343,cs),
(241,635,ls),
(241,644,o),
(246,649,o),
(256,649,cs),
(303,649,ls),
(354,649,o),
(367,628,o),
(367,572,cs),
(367,567,o),
(394,567,o),
(394,572,cs),
(394,667,ls),
(394,674,o),
(389,677,o),
(371,677,cs),
(318,677,o),
(263,675,o),
(210,675,cs),
(156,675,o),
(102,677,o),
(49,677,cs),
(30,677,o),
(26,674,o),
(25,667,cs),
(25,572,ls),
(26,567,o),
(52,567,o),
(52,572,cs),
(52,624,o),
(72,649,o),
(126,649,cs),
(164,649,ls),
(174,649,o),
(178,644,o),
(178,635,cs),
(178,343,ls),
(178,320,o),
(169,308,o),
(120,308,cs),
(114,308,o),
(114,281,o),
(120,281,c)
);
}
);
width = 419;
}
);
metricLeft = "=25";
metricRight = "=25";
unicode = 7488;
userData = {
KernOnSpecialSpacing = {
L = NoKerning;
R = NoKerning;
};
};
}
{
glyphname = pmod;
layers = (
{
anchors = (
{
name = bottom;
pos = (230,284);
},
{
name = top;
pos = (194,585);
}
);
layerId = master01;
shapes = (
{
closed = 1;
nodes = (
(65,118,o),
(79,118,o),
(103,118,cs),
(130,118,o),
(140,118,o),
(176,115,c),
(182,115,o),
(182,138,o),
(176,138,cs),
(144,138,o),
(128,146,o),
(128,162,cs),
(128,277,ls),
(128,284,o),
(130,287,o),
(134,287,c),
(147,279,o),
(166,276,o),
(188,276,cs),
(238,276,o),
(274,292,o),
(296,318,cs),
(321,348,o),
(332,395,o),
(332,438,cs),
(332,532,o),
(284,590,o),
(210,590,cs),
(178,590,o),
(150,579,o),
(133,559,c),
(128,561,l),
(128,570,o),
(129,579,o),
(129,588,cs),
(129,592,o),
(126,594,o),
(122,594,cs),
(118,594,o),
(112,591,o),
(106,586,cs),
(95,577,o),
(56,552,o),
(37,552,cs),
(31,552,o),
(30,529,o),
(37,529,cs),
(57,529,o),
(67,515,o),
(67,486,cs),
(67,162,ls),
(67,146,o),
(54,138,o),
(30,138,cs),
(23,138,o),
(23,115,o),
(30,115,c)
);
},
{
closed = 1;
nodes = (
(149,302,o),
(128,319,o),
(128,348,cs),
(128,501,ls),
(128,515,o),
(130,524,o),
(134,529,cs),
(151,550,o),
(167,559,o),
(190,559,cs),
(239,559,o),
(266,516,o),
(266,434,cs),
(266,400,o),
(260,362,o),
(246,337,cs),
(232,313,o),
(211,302,o),
(185,302,cs)
);
}
);
userData = {
RMXScaler = {
height = 69.18;
width = 69.18;
};
};
width = 357;
},
{
anchors = (
{
name = bottom;
pos = (237,284);
},
{
name = top;
pos = (214,585);
}
);
layerId = "75918100-ED89-42A8-B0FE-888EB9C86810";
shapes = (
{
closed = 1;
nodes = (
(76,118,o),
(90,118,o),
(115,118,cs),
(139,118,o),
(151,118,o),
(198,115,c),
(204,115,o),
(205,146,o),
(198,146,cs),
(166,146,o),
(155,153,o),
(155,166,cs),
(155,281,ls),
(155,285,o),
(156,287,o),
(158,287,c),
(168,280,o),
(186,276,o),
(213,276,cs),
(257,276,o),
(294,290,o),
(315,315,cs),
(341,345,o),
(352,393,o),
(352,444,cs),
(352,542,o),
(310,590,o),
(234,590,cs),
(200,590,o),
(174,581,o),
(160,570,c),
(155,573,l),
(155,577,o),
(156,581,o),
(156,585,cs),
(156,591,o),
(150,594,o),
(144,594,cs),
(140,594,o),
(129,588,o),
(124,585,cs),
(106,574,o),
(55,550,o),
(29,550,cs),
(23,550,o),
(23,520,o),
(29,520,cs),
(51,520,o),
(62,505,o),
(62,472,cs),
(62,166,ls),
(62,153,o),
(51,146,o),
(30,146,cs),
(23,146,o),
(23,115,o),
(30,115,c)
);
},
{
closed = 1;
nodes = (
(170,309,o),
(155,321,o),
(155,337,cs),
(155,511,ls),
(155,521,o),
(156,525,o),
(157,527,cs),
(165,541,o),
(179,551,o),
(194,551,cs),
(229,551,o),
(252,509,o),
(252,434,cs),
(252,406,o),
(246,365,o),
(229,332,cs),
(221,316,o),
(207,309,o),
(191,309,cs)
);
}
);
userData = {
RMXScaler = {
height = 69.18;
weight = -40;
width = 69.18;
};
};
width = 377;
},
{
anchors = (
{
name = bottom;
pos = (238,284);
},
{
name = top;
pos = (195,585);
}
);
layerId = "6ABD9449-5E80-4451-809E-12ADEB9E9AB4";
shapes = (
{
closed = 1;
nodes = (
(60,118,o),
(74,118,o),
(104,118,cs),
(127,118,o),
(141,118,o),
(172,115,c),
(178,115,o),
(178,135,o),
(172,135,cs),
(140,135,o),
(123,144,o),
(123,161,cs),
(123,276,ls),
(123,283,o),
(125,287,o),
(129,287,c),
(143,279,o),
(162,276,o),
(181,276,cs),
(232,276,o),
(269,291,o),
(291,320,cs),
(312,347,o),
(324,392,o),
(324,436,cs),
(324,529,o),
(275,590,o),
(205,590,cs),
(178,590,o),
(149,581,o),
(128,554,c),
(123,556,l),
(123,567,o),
(124,578,o),
(124,590,cs),
(124,592,o),
(122,594,o),
(118,594,cs),
(115,594,o),
(110,592,o),
(105,587,cs),
(96,578,o),
(54,553,o),
(39,553,cs),
(33,553,o),
(32,533,o),
(39,533,cs),
(58,533,o),
(68,519,o),
(68,491,cs),
(68,161,ls),
(68,144,o),
(55,135,o),
(29,135,cs),
(23,135,o),
(23,115,o),
(29,115,c)
);
},
{
closed = 1;
nodes = (
(144,299,o),
(123,318,o),
(123,352,cs),
(123,497,ls),
(123,513,o),
(125,523,o),
(129,528,c),
(146,553,o),
(165,562,o),
(188,562,cs),
(237,562,o),
(264,520,o),
(264,434,cs),
(264,393,o),
(256,358,o),
(247,339,cs),
(234,312,o),
(212,299,o),
(182,299,cs)
);
}
);
userData = {
RMXScaler = {
height = 69.18;
width = 69.18;
};
};
width = 349;
},
{
anchors = (
{
name = bottom;
pos = (204,284);
},
{
name = top;
pos = (181,585);
}
);
layerId = "70B83247-6FA0-4662-9656-C86DD2A17D3B";
shapes = (
{
closed = 1;
nodes = (
(64,118,o),
(75,118,o),
(92,118,cs),
(114,118,o),
(127,118,o),
(160,115,c),
(166,115,o),
(166,140,o),
(160,140,cs),
(132,140,o),
(121,148,o),
(121,163,cs),
(121,278,ls),
(121,284,o),
(123,287,o),
(125,287,c),
(132,280,o),
(148,276,o),
(170,276,cs),
(209,276,o),
(239,288,o),
(258,314,cs),
(277,340,o),
(289,387,o),
(289,440,cs),
(289,535,o),
(250,590,o),
(189,590,cs),
(165,590,o),
(141,581,o),
(126,561,c),
(121,562,l),
(121,571,o),
(122,579,o),
(122,588,cs),
(122,592,o),
(118,594,o),
(114,594,cs),
(111,594,o),
(106,591,o),
(100,586,cs),
(91,578,o),
(53,552,o),
(33,552,cs),
(27,552,o),
(27,527,o),
(33,527,cs),
(51,527,o),
(60,512,o),
(60,482,cs),
(60,163,ls),
(60,148,o),
(49,140,o),
(30,140,cs),
(23,140,o),
(23,115,o),
(30,115,c)
);
},
{
closed = 1;
nodes = (
(137,303,o),
(121,319,o),
(121,345,cs),
(121,503,ls),
(121,519,o),
(122,523,o),
(125,529,cs),
(136,548,o),
(150,557,o),
(165,557,cs),
(202,557,o),
(223,515,o),
(223,433,cs),
(223,401,o),
(218,363,o),
(207,336,cs),
(199,316,o),
(185,303,o),
(161,303,cs)
);
}
);
userData = {
RMXScaler = {
height = 69.18;
width = 69.18;
};
};
width = 314;
},
{
anchors = (
{
name = bottom;
pos = (226,128);
},
{
name = top;
pos = (226,585);
}
);
layerId = "9E6FDE2E-55A6-44A9-9556-F1822294BF26";
shapes = (
{
closed = 1;
nodes = (
(67,118,o),
(83,118,o),
(113,118,cs),
(144,118,o),
(159,118,o),
(197,115,c),
(203,115,o),
(203,136,o),
(197,136,cs),
(160,136,o),
(140,144,o),
(140,162,cs),
(140,277,ls),
(140,284,o),
(143,287,o),
(147,287,c),
(164,279,o),
(182,276,o),
(213,276,cs),
(258,276,o),
(297,287,o),
(326,315,cs),
(357,345,o),
(370,394,o),
(370,437,cs),
(370,531,o),
(318,590,o),
(236,590,cs),
(198,590,o),
(165,578,o),
(145,557,c),
(140,558,l),
(140,568,o),
(141,579,o),
(141,589,cs),
(141,593,o),
(139,594,o),
(135,594,cs),
(133,594,o),
(126,592,o),
(119,587,cs),
(106,577,o),
(57,552,o),
(40,552,cs),
(34,552,o),
(34,532,o),
(40,532,cs),
(63,532,o),
(74,518,o),
(74,489,cs),
(74,162,ls),
(74,144,o),
(59,136,o),
(30,136,cs),
(23,136,o),
(23,115,o),
(30,115,c)
);
},
{
closed = 1;
nodes = (
(165,300,o),
(140,319,o),
(140,351,cs),
(140,499,ls),
(140,513,o),
(142,522,o),
(147,528,cs),
(166,549,o),
(187,560,o),
(216,560,cs),
(274,560,o),
(304,517,o),
(304,432,cs),
(304,400,o),
(297,361,o),
(280,333,cs),
(266,310,o),
(241,300,o),
(210,300,cs)
);
}
);
userData = {
RMXScaler = {
height = 69.18;
width = 69.18;
};
};
width = 395;
},
{
anchors = (
{
name = bottom;
pos = (194,128);
},
{
name = top;
pos = (194,585);
}
);
layerId = "00F4936D-6309-4DEC-83B3-42806ED1A477";
shapes = (
{
closed = 1;
nodes = (
(65,118,o),
(79,118,o),
(103,118,cs),
(130,118,o),
(140,118,o),
(176,115,c),
(182,115,o),
(182,138,o),
(176,138,cs),
(144,138,o),
(128,146,o),
(128,162,cs),
(128,277,ls),
(128,284,o),
(130,287,o),
(134,287,c),
(147,279,o),
(166,276,o),
(188,276,cs),
(238,276,o),
(274,292,o),
(296,318,cs),
(321,348,o),
(332,395,o),
(332,438,cs),
(332,532,o),
(284,590,o),
(210,590,cs),
(178,590,o),
(150,579,o),
(133,559,c),
(128,561,l),
(128,570,o),
(129,579,o),
(129,588,cs),
(129,592,o),
(126,594,o),
(122,594,cs),
(118,594,o),
(112,591,o),
(106,586,cs),
(95,577,o),
(56,552,o),
(37,552,cs),
(31,552,o),
(30,529,o),
(37,529,cs),
(57,529,o),
(67,515,o),
(67,486,cs),
(67,162,ls),
(67,146,o),
(54,138,o),
(30,138,cs),
(23,138,o),
(23,115,o),
(30,115,c)
);
},
{
closed = 1;
nodes = (
(149,302,o),
(128,319,o),
(128,348,cs),
(128,501,ls),
(128,515,o),
(130,524,o),
(134,529,cs),
(151,550,o),
(167,559,o),
(190,559,cs),
(239,559,o),
(266,516,o),
(266,434,cs),
(266,400,o),
(260,362,o),
(246,337,cs),
(232,313,o),
(211,302,o),
(185,302,cs)
);
}
);
userData = {
RMXScaler = {
height = 69.18;
width = 69.18;
};
};
width = 357;
}
);
metricLeft = "=25";
metricRight = "=25";
unicode = 7510;
userData = {
KernOnSpecialSpacing = {
L = NoKerning;
R = NoKerning;
};
RMXScaler = {
source = p;
};
};
}
{
glyphname = dmiddletilde;
layers = (
{
anchors = (
{
name = bottom;
pos = (247,0);
},
{
name = top;
pos = (228,705);
}
);
layerId = master01;
shapes = (
{
closed = 1;
nodes = (
(387,0,o),
(429,9,o),
(479,15,cs),
(487,16,o),
(480,44,o),
(475,43,cs),
(469,41,o),
(460,40,o),
(451,40,cs),
(424,40,o),
(411,64,o),
(411,113,cs),
(411,636,ls),
(411,658,o),
(412,676,o),
(414,711,c),
(414,720,o),
(412,725,o),
(408,725,cs),
(403,725,o),
(396,721,o),
(386,713,cs),
(360,692,o),
(309,667,o),
(291,667,cs),
(282,667,o),
(282,640,o),
(291,640,cs),
(321,640,o),
(336,618,o),
(336,573,cs),
(336,412,l),
(319,420,o),
(296,425,o),
(264,425,cs),
(126,425,o),
(32,331,o),
(32,191,cs),
(32,69,o),
(100,-11,o),
(204,-11,cs),
(250,-11,o),
(286,3,o),
(317,32,cs),
(322,37,o),
(327,39,o),
(331,39,cs),
(334,39,o),
(336,35,o),
(336,28,cs),
(336,8,ls),
(336,-8,o),
(339,-16,o),
(344,-16,c)
);
},
{
closed = 1;
nodes = (
(169,36,o),
(112,115,o),
(112,220,cs),
(112,326,o),
(168,396,o),
(253,396,cs),
(282,396,o),
(307,387,o),
(325,372,cs),
(333,366,o),
(336,352,o),
(336,326,cs),
(336,97,ls),
(336,82,o),
(327,68,o),
(311,56,cs),
(292,43,o),
(269,36,o),
(246,36,cs)
);
},
{
closed = 1;
nodes = (
(516,485,o),
(550,542,o),
(550,590,cs),
(550,597,o),
(523,597,o),
(523,590,cs),
(523,568,o),
(499,541,o),
(468,541,cs),
(451,541,o),
(418,549,o),
(372,564,cs),
(330,578,o),
(292,586,o),
(270,586,cs),
(208,586,o),
(172,553,o),
(172,483,cs),
(172,476,o),
(199,477,o),
(199,483,cs),
(199,512,o),
(219,531,o),
(254,531,cs),
(270,531,o),
(309,522,o),
(353,509,cs),
(409,492,o),
(435,485,o),
(453,485,cs)
);
}
);
width = 498;
},
{
anchors = (
{
name = bottom;
pos = (252,0);
},
{
name = top;
pos = (213,706);
}
);
layerId = "75918100-ED89-42A8-B0FE-888EB9C86810";
shapes = (
{
closed = 1;
nodes = (
(375,-6,o),
(449,7,o),
(499,15,cs),
(508,17,o),
(500,55,o),
(488,51,cs),
(481,49,o),
(476,48,o),
(469,48,cs),
(450,48,o),
(441,68,o),
(441,113,cs),
(441,636,ls),
(441,658,o),
(442,676,o),
(445,712,c),
(445,720,o),
(441,725,o),
(433,725,cs),
(426,725,o),
(421,723,o),
(412,716,cs),
(380,690,o),
(316,663,o),
(284,663,cs),
(275,663,o),
(275,627,o),
(284,627,cs),
(314,627,o),
(329,605,o),
(329,560,cs),
(329,418,l),
(314,423,o),
(302,425,o),
(277,425,cs),
(126,425,o),
(26,333,o),
(26,195,cs),
(26,71,o),
(103,-11,o),
(218,-11,cs),
(254,-11,o),
(279,0,o),
(310,23,cs),
(315,27,o),
(320,30,o),
(324,30,cs),
(327,30,o),
(329,26,o),
(329,19,cs),
(329,5,ls),
(329,-13,o),
(330,-17,o),
(340,-17,c)
);
},
{
closed = 1;
nodes = (
(195,40,o),
(150,107,o),
(150,209,cs),
(150,319,o),
(195,387,o),
(267,387,cs),
(288,387,o),
(308,383,o),
(321,372,cs),
(326,368,o),
(329,360,o),
(329,339,cs),
(329,97,ls),
(329,83,o),
(322,68,o),
(310,58,cs),
(296,46,o),
(279,40,o),
(262,40,cs)
);
},
{
closed = 1;
nodes = (
(518,485,o),
(560,547,o),
(560,610,cs),
(560,618,o),
(518,617,o),
(517,610,cs),
(516,586,o),
(495,561,o),
(465,561,cs),
(448,561,o),
(426,566,o),
(379,584,cs),
(335,600,o),
(301,606,o),
(279,606,cs),
(218,606,o),
(175,569,o),
(175,483,cs),
(175,475,o),
(216,473,o),
(217,484,cs),
(219,515,o),
(236,531,o),
(269,531,cs),
(284,531,o),
(303,528,o),
(358,509,cs),
(407,492,o),
(439,485,o),
(456,485,cs)
);
}
);
width = 512;
},
{
anchors = (
{
name = bottom;
pos = (253,0);
},
{
name = top;
pos = (240,705);
}
);
layerId = "6ABD9449-5E80-4451-809E-12ADEB9E9AB4";
shapes = (
{
closed = 1;
nodes = (
(399,2,o),
(430,10,o),
(481,15,cs),
(487,16,o),
(482,41,o),
(478,41,c),
(472,39,o),
(463,38,o),
(452,38,cs),
(423,38,o),
(408,63,o),
(408,113,cs),
(408,636,ls),
(408,658,o),
(408,676,o),
(410,711,c),
(411,721,o),
(409,725,o),
(406,725,cs),
(402,725,o),
(394,720,o),
(385,712,cs),
(365,694,o),
(316,669,o),
(301,669,cs),
(292,669,o),
(292,645,o),
(301,645,cs),
(331,645,o),
(346,623,o),
(346,578,cs),
(346,409,l),
(326,420,o),
(305,425,o),
(267,425,cs),
(132,425,o),
(42,331,o),
(42,190,cs),
(42,66,o),
(105,-11,o),
(207,-11,cs),
(256,-11,o),
(296,4,o),
(327,35,cs),
(332,40,o),
(337,42,o),
(340,42,cs),
(344,42,o),
(346,38,o),
(346,31,cs),
(346,9,ls),
(346,-10,o),
(348,-16,o),
(353,-16,c)
);
},
{
closed = 1;
nodes = (
(167,35,o),
(107,115,o),
(107,223,cs),
(107,329,o),
(166,399,o),
(256,399,cs),
(288,399,o),
(313,388,o),
(334,372,cs),
(342,366,o),
(346,349,o),
(346,322,cs),
(346,97,ls),
(346,82,o),
(336,67,o),
(318,55,cs),
(298,42,o),
(273,35,o),
(248,35,cs)
);
},
{
closed = 1;
nodes = (
(522,485,o),
(552,542,o),
(552,583,cs),
(552,590,o),
(531,591,o),
(531,581,cs),
(531,559,o),
(507,534,o),
(476,534,cs),
(459,534,o),
(424,542,o),
(379,557,cs),
(334,572,o),
(299,579,o),
(279,579,cs),
(218,579,o),
(185,546,o),
(185,483,cs),
(185,476,o),
(207,477,o),
(207,485,cs),
(207,512,o),
(227,531,o),
(261,531,cs),
(276,531,o),
(316,522,o),
(362,508,cs),
(414,492,o),
(441,485,o),
(460,485,cs)
);
}
);
width = 496;
},
{
anchors = (
{
name = bottom;
pos = (211,0);
},
{
name = top;
pos = (188,706);
}
);
layerId = "70B83247-6FA0-4662-9656-C86DD2A17D3B";
shapes = (
{
closed = 1;
nodes = (
(322,-2,o),
(371,9,o),
(412,15,cs),
(418,16,o),
(412,47,o),
(406,45,cs),
(401,44,o),
(396,42,o),
(387,42,cs),
(366,42,o),
(357,71,o),
(357,114,cs),
(357,636,ls),
(357,658,o),
(358,676,o),
(360,711,c),
(360,719,o),
(357,725,o),
(352,725,cs),
(349,725,o),
(344,722,o),
(336,715,cs),
(313,693,o),
(264,667,o),
(246,667,cs),
(238,667,o),
(238,640,o),
(246,640,cs),
(270,640,o),
(282,618,o),
(282,573,cs),
(282,414,l),
(265,422,o),
(250,425,o),
(228,425,cs),
(108,425,o),
(27,331,o),
(27,193,cs),
(27,70,o),
(88,-11,o),
(178,-11,cs),
(214,-11,o),
(242,3,o),
(266,29,cs),
(271,35,o),
(274,36,o),
(277,36,cs),
(280,36,o),
(282,31,o),
(282,25,cs),
(282,7,ls),
(282,-11,o),
(282,-17,o),
(290,-17,c)
);
},
{
closed = 1;
nodes = (
(152,36,o),
(108,111,o),
(108,216,cs),
(108,324,o),
(152,396,o),
(219,396,cs),
(240,396,o),
(259,387,o),
(273,372,cs),
(280,366,o),
(282,354,o),
(282,330,cs),
(282,97,ls),
(282,82,o),
(275,68,o),
(263,56,cs),
(249,43,o),
(231,36,o),
(214,36,cs)
);
},
{
closed = 1;
nodes = (
(437,485,o),
(468,537,o),
(468,590,cs),
(468,597,o),
(441,597,o),
(441,591,cs),
(441,568,o),
(422,541,o),
(395,541,cs),
(383,541,o),
(358,547,o),
(318,563,cs),
(278,579,o),
(252,586,o),
(232,586,cs),
(181,586,o),
(148,558,o),
(148,483,cs),
(148,476,o),
(175,474,o),
(176,484,cs),
(177,513,o),
(191,531,o),
(220,531,cs),
(233,531,o),
(262,523,o),
(301,509,cs),
(342,493,o),
(368,485,o),
(385,485,cs)
);
}
);
width = 423;
},
{
anchors = (
{
name = bottom;
pos = (283,0);
},
{
name = top;
pos = (267,705);
}
);
layerId = "9E6FDE2E-55A6-44A9-9556-F1822294BF26";
shapes = (
{
closed = 1;
nodes = (
(453,2,o),
(489,9,o),
(548,15,cs),
(556,16,o),
(549,42,o),
(545,41,cs),
(537,38,o),
(526,38,o),
(516,38,cs),
(484,38,o),
(465,58,o),
(465,112,cs),
(465,636,ls),
(465,658,o),
(466,676,o),
(468,711,c),
(468,722,o),
(467,725,o),
(464,725,cs),
(460,725,o),
(453,721,o),
(438,710,cs),
(411,692,o),
(353,667,o),
(336,667,cs),
(327,667,o),
(327,640,o),
(336,640,cs),
(372,640,o),
(390,618,o),
(390,573,cs),
(390,410,l),
(374,419,o),
(341,425,o),
(300,425,cs),
(144,425,o),
(37,330,o),
(37,190,cs),
(37,67,o),
(111,-11,o),
(230,-11,cs),
(287,-11,o),
(331,4,o),
(368,35,cs),
(372,39,o),
(379,42,o),
(384,42,cs),
(388,42,o),
(390,39,o),
(390,31,cs),
(390,9,ls),
(390,-5,o),
(396,-16,o),
(399,-16,c)
);
},
{
closed = 1;
nodes = (
(187,36,o),
(115,109,o),
(115,213,cs),
(115,318,o),
(185,396,o),
(290,396,cs),
(325,396,o),
(354,387,o),
(377,372,cs),
(386,366,o),
(390,351,o),
(390,322,cs),
(390,97,ls),
(390,82,o),
(379,68,o),
(358,56,cs),
(335,43,o),
(307,36,o),
(278,36,cs)
);
},
{
closed = 1;
nodes = (
(571,485,o),
(606,542,o),
(606,590,cs),
(606,597,o),
(579,597,o),
(579,590,cs),
(579,568,o),
(556,541,o),
(524,541,cs),
(506,541,o),
(475,548,o),
(428,564,cs),
(385,578,o),
(347,586,o),
(326,586,cs),
(265,586,o),
(228,553,o),
(228,483,cs),
(228,476,o),
(255,477,o),
(255,483,cs),
(255,512,o),
(275,531,o),
(310,531,cs),
(325,531,o),
(361,524,o),
(410,508,cs),
(458,493,o),
(490,485,o),
(509,485,cs)
);
}
);
width = 565;
},
{
anchors = (
{
name = bottom;
pos = (247,0);
},
{
name = top;
pos = (228,705);
}
);
layerId = "00F4936D-6309-4DEC-83B3-42806ED1A477";
shapes = (
{
closed = 1;
nodes = (
(387,0,o),
(429,9,o),
(479,15,cs),
(487,16,o),
(480,44,o),
(475,43,cs),
(469,41,o),
(460,40,o),
(451,40,cs),
(424,40,o),
(411,64,o),
(411,113,cs),
(411,636,ls),
(411,658,o),
(412,676,o),
(414,711,c),
(414,720,o),
(412,725,o),
(408,725,cs),
(403,725,o),
(396,721,o),
(386,713,cs),
(360,692,o),
(309,667,o),
(291,667,cs),
(282,667,o),
(282,640,o),
(291,640,cs),
(321,640,o),
(336,618,o),
(336,573,cs),
(336,412,l),
(319,420,o),
(296,425,o),
(264,425,cs),
(126,425,o),
(32,331,o),
(32,191,cs),
(32,69,o),
(100,-11,o),
(204,-11,cs),
(250,-11,o),
(286,3,o),
(317,32,cs),
(322,37,o),
(327,39,o),
(331,39,cs),
(334,39,o),
(336,35,o),
(336,28,cs),
(336,8,ls),
(336,-8,o),
(339,-16,o),
(344,-16,c)
);
},
{
closed = 1;
nodes = (
(169,36,o),
(112,115,o),
(112,220,cs),
(112,326,o),
(168,396,o),
(253,396,cs),
(282,396,o),
(307,387,o),
(325,372,cs),
(333,366,o),
(336,352,o),
(336,326,cs),
(336,97,ls),
(336,82,o),
(327,68,o),
(311,56,cs),
(292,43,o),
(269,36,o),
(246,36,cs)
);
},
{
closed = 1;
nodes = (
(516,485,o),
(550,542,o),
(550,590,cs),
(550,597,o),
(523,597,o),
(523,590,cs),
(523,568,o),
(499,541,o),
(468,541,cs),
(451,541,o),
(418,549,o),
(372,564,cs),
(330,578,o),
(292,586,o),
(270,586,cs),
(208,586,o),
(172,553,o),
(172,483,cs),
(172,476,o),
(199,477,o),
(199,483,cs),
(199,512,o),
(219,531,o),
(254,531,cs),
(270,531,o),
(309,522,o),
(353,509,cs),
(409,492,o),
(435,485,o),
(453,485,cs)
);
}
);
width = 498;
}
);
unicode = 7533;
}
{
glyphname = aocomb;
layers = (
{
anchors = (
{
name = _top;
pos = (-190,415);
},
{
name = top;
pos = (-207,730);
}
);
guides = (
{
pos = (547,230);
showMeasurement = 1;
}
);
layerId = master01;
shapes = (
{
closed = 1;
nodes = (
(-276,506,o),
(-254,520,o),
(-237,542,cs),
(-233,546,o),
(-230,548,o),
(-229,548,cs),
(-227,548,o),
(-224,546,o),
(-221,542,cs),
(-194,516,o),
(-168,506,o),
(-134,506,cs),
(-61,506,o),
(-16,553,o),
(-16,626,cs),
(-16,691,o),
(-64,745,o),
(-134,745,cs),
(-157,745,o),
(-179,739,o),
(-198,728,cs),
(-203,725,o),
(-206,724,o),
(-208,724,cs),
(-211,724,o),
(-215,726,o),
(-219,729,cs),
(-232,739,o),
(-248,745,o),
(-267,745,cs),
(-288,745,o),
(-310,738,o),
(-334,723,cs),
(-348,715,o),
(-365,690,o),
(-365,670,cs),
(-365,656,o),
(-357,649,o),
(-342,649,cs),
(-326,649,o),
(-317,660,o),
(-315,676,cs),
(-313,687,o),
(-314,700,o),
(-313,708,c),
(-303,720,o),
(-292,724,o),
(-282,724,cs),
(-264,724,o),
(-255,714,o),
(-255,694,cs),
(-255,654,ls),
(-255,647,o),
(-258,642,o),
(-264,639,cs),
(-320,614,ls),
(-347,602,o),
(-362,584,o),
(-362,556,cs),
(-362,526,o),
(-341,506,o),
(-302,506,cs)
);
},
{
closed = 1;
nodes = (
(-292,537,o),
(-303,546,o),
(-303,563,cs),
(-303,583,o),
(-290,601,o),
(-264,616,cs),
(-262,617,o),
(-260,618,o),
(-259,618,cs),
(-257,618,o),
(-255,617,o),
(-255,611,cs),
(-253,588,o),
(-250,573,o),
(-247,567,c),
(-248,557,o),
(-266,537,o),
(-279,537,cs)
);
},
{
closed = 1;
nodes = (
(-169,528,o),
(-188,575,o),
(-188,625,cs),
(-188,670,o),
(-170,725,o),
(-134,725,cs),
(-98,725,o),
(-77,675,o),
(-77,625,cs),
(-77,581,o),
(-95,528,o),
(-134,528,cs)
);
}
);
userData = {
RMXScaler = {
height = 54.99;
weight = -30;
width = 54.99;
};
};
width = 0;
},
{
anchors = (
{
name = _top;
pos = (-191,415);
},
{
name = top;
pos = (-199,730);
}
);
guides = (
{
pos = (547,230);
showMeasurement = 1;
}
);
layerId = "75918100-ED89-42A8-B0FE-888EB9C86810";
shapes = (
{
closed = 1;
nodes = (
(-284,506,o),
(-262,520,o),
(-245,541,cs),
(-240,546,o),
(-238,547,o),
(-235,547,cs),
(-233,547,o),
(-231,546,o),
(-227,542,cs),
(-199,514,o),
(-172,506,o),
(-136,506,cs),
(-59,506,o),
(-10,548,o),
(-10,626,cs),
(-10,690,o),
(-61,745,o),
(-136,745,cs),
(-160,745,o),
(-183,741,o),
(-202,729,cs),
(-207,726,o),
(-211,725,o),
(-214,725,cs),
(-218,725,o),
(-221,727,o),
(-227,731,cs),
(-239,740,o),
(-254,745,o),
(-274,745,cs),
(-294,745,o),
(-317,737,o),
(-341,723,cs),
(-355,714,o),
(-373,690,o),
(-373,668,cs),
(-373,653,o),
(-364,646,o),
(-347,646,cs),
(-329,646,o),
(-320,656,o),
(-318,671,cs),
(-316,683,o),
(-318,696,o),
(-315,706,c),
(-307,717,o),
(-297,723,o),
(-287,723,cs),
(-271,723,o),
(-262,713,o),
(-262,692,cs),
(-262,654,ls),
(-262,646,o),
(-266,640,o),
(-273,637,cs),
(-327,615,ls),
(-352,605,o),
(-370,588,o),
(-370,556,cs),
(-370,527,o),
(-348,506,o),
(-306,506,cs)
);
},
{
closed = 1;
nodes = (
(-294,538,o),
(-304,548,o),
(-304,563,cs),
(-304,583,o),
(-294,599,o),
(-272,612,cs),
(-269,614,o),
(-268,614,o),
(-266,614,cs),
(-264,614,o),
(-263,614,o),
(-263,610,cs),
(-261,587,o),
(-257,571,o),
(-255,566,c),
(-256,554,o),
(-275,538,o),
(-283,538,cs)
);
},
{
closed = 1;
nodes = (
(-170,530,o),
(-187,575,o),
(-187,625,cs),
(-187,667,o),
(-170,724,o),
(-136,724,cs),
(-104,724,o),
(-86,673,o),
(-86,625,cs),
(-86,581,o),
(-99,530,o),
(-136,530,cs)
);
}
);
userData = {
RMXScaler = {
height = 54.99;
weight = -210;
width = 54.99;
};
};
width = 0;
},
{
anchors = (
{
name = _top;
pos = (-191,415);
},
{
name = top;
pos = (-194,730);
}
);
guides = (
{
pos = (547,231);
showMeasurement = 1;
}
);
layerId = "6ABD9449-5E80-4451-809E-12ADEB9E9AB4";
shapes = (
{
closed = 1;
nodes = (
(-267,506,o),
(-242,521,o),
(-227,543,cs),
(-224,548,o),
(-222,549,o),
(-221,549,cs),
(-220,549,o),
(-218,547,o),
(-215,544,cs),
(-189,518,o),
(-168,506,o),
(-137,506,cs),
(-65,506,o),
(-28,565,o),
(-28,626,cs),
(-28,693,o),
(-71,745,o),
(-137,745,cs),
(-160,745,o),
(-180,736,o),
(-195,726,cs),
(-200,722,o),
(-201,722,o),
(-203,722,cs),
(-204,722,o),
(-207,724,o),
(-209,726,cs),
(-220,737,o),
(-238,745,o),
(-258,745,cs),
(-279,745,o),
(-300,739,o),
(-324,725,cs),
(-338,717,o),
(-354,692,o),
(-354,674,cs),
(-354,663,o),
(-348,657,o),
(-337,657,cs),
(-326,657,o),
(-319,667,o),
(-316,684,cs),
(-314,701,o),
(-314,708,o),
(-313,711,c),
(-305,720,o),
(-293,725,o),
(-278,725,cs),
(-256,725,o),
(-244,716,o),
(-244,700,cs),
(-244,653,ls),
(-244,648,o),
(-247,645,o),
(-251,643,cs),
(-312,611,ls),
(-335,599,o),
(-352,579,o),
(-352,556,cs),
(-352,526,o),
(-334,506,o),
(-300,506,cs)
);
},
{
closed = 1;
nodes = (
(-295,533,o),
(-305,543,o),
(-305,562,cs),
(-305,586,o),
(-288,606,o),
(-256,622,cs),
(-255,623,o),
(-251,624,o),
(-250,624,cs),
(-247,624,o),
(-245,620,o),
(-244,616,cs),
(-242,596,o),
(-239,582,o),
(-237,570,c),
(-237,563,o),
(-254,533,o),
(-277,533,cs)
);
},
{
closed = 1;
nodes = (
(-175,525,o),
(-196,574,o),
(-196,625,cs),
(-196,677,o),
(-176,728,o),
(-137,728,cs),
(-97,728,o),
(-76,678,o),
(-76,625,cs),
(-76,578,o),
(-99,525,o),
(-137,525,cs)
);
}
);
userData = {
RMXScaler = {
height = 54.99;
width = 54.99;
};
};
width = 0;
},
{
anchors = (
{
name = _top;
pos = (-195,415);
},
{
name = top;
pos = (-200,730);
}
);
guides = (
{
pos = (395,230);
showMeasurement = 1;
}
);
layerId = "70B83247-6FA0-4662-9656-C86DD2A17D3B";
shapes = (
{
closed = 1;
nodes = (
(-266,506,o),
(-248,519,o),
(-233,541,cs),
(-230,546,o),
(-227,547,o),
(-225,547,cs),
(-224,547,o),
(-221,545,o),
(-218,542,cs),
(-195,515,o),
(-173,506,o),
(-142,506,cs),
(-78,506,o),
(-38,550,o),
(-38,626,cs),
(-38,690,o),
(-80,745,o),
(-142,745,cs),
(-164,745,o),
(-182,739,o),
(-198,729,cs),
(-203,726,o),
(-205,724,o),
(-208,724,cs),
(-210,724,o),
(-214,727,o),
(-219,730,cs),
(-229,739,o),
(-242,745,o),
(-258,745,cs),
(-276,745,o),
(-295,737,o),
(-315,723,cs),
(-327,714,o),
(-342,690,o),
(-342,668,cs),
(-342,654,o),
(-335,647,o),
(-321,647,cs),
(-306,647,o),
(-298,657,o),
(-296,673,cs),
(-295,685,o),
(-296,697,o),
(-294,706,c),
(-286,719,o),
(-277,723,o),
(-269,723,cs),
(-256,723,o),
(-249,713,o),
(-249,692,cs),
(-249,654,ls),
(-249,647,o),
(-251,640,o),
(-257,637,cs),
(-304,615,ls),
(-327,604,o),
(-340,584,o),
(-340,556,cs),
(-340,526,o),
(-321,506,o),
(-286,506,cs)
);
},
{
closed = 1;
nodes = (
(-276,538,o),
(-286,547,o),
(-286,563,cs),
(-286,582,o),
(-275,598,o),
(-257,613,cs),
(-254,615,o),
(-253,615,o),
(-251,615,cs),
(-250,615,o),
(-249,615,o),
(-249,610,cs),
(-247,588,o),
(-244,571,o),
(-242,566,c),
(-243,555,o),
(-258,538,o),
(-267,538,cs)
);
},
{
closed = 1;
nodes = (
(-172,529,o),
(-186,575,o),
(-186,625,cs),
(-186,667,o),
(-172,724,o),
(-142,724,cs),
(-113,724,o),
(-97,673,o),
(-97,625,cs),
(-97,581,o),
(-109,529,o),
(-142,529,cs)
);
}
);
userData = {
RMXScaler = {
height = 54.99;
weight = -25;
width = 54.99;
};
};
width = 0;
},
{
anchors = (
{
name = _top;
pos = (-182,415);
},
{
name = top;
pos = (-185,730);
}
);
layerId = "9E6FDE2E-55A6-44A9-9556-F1822294BF26";
shapes = (
{
closed = 1;
nodes = (
(-282,506,o),
(-256,520,o),
(-236,543,cs),
(-233,547,o),
(-230,548,o),
(-228,548,cs),
(-226,548,o),
(-223,546,o),
(-219,543,cs),
(-189,517,o),
(-159,506,o),
(-122,506,cs),
(-39,506,o),
(10,557,o),
(10,626,cs),
(10,692,o),
(-43,745,o),
(-122,745,cs),
(-146,745,o),
(-172,739,o),
(-194,728,cs),
(-200,725,o),
(-203,723,o),
(-205,723,cs),
(-208,723,o),
(-212,726,o),
(-216,729,cs),
(-231,740,o),
(-250,745,o),
(-271,745,cs),
(-296,745,o),
(-320,738,o),
(-349,724,cs),
(-364,715,o),
(-383,691,o),
(-383,671,cs),
(-383,658,o),
(-375,652,o),
(-359,652,cs),
(-341,652,o),
(-333,662,o),
(-330,679,cs),
(-328,688,o),
(-329,702,o),
(-327,709,c),
(-316,721,o),
(-303,724,o),
(-290,724,cs),
(-268,724,o),
(-257,715,o),
(-257,696,cs),
(-257,654,ls),
(-257,648,o),
(-260,643,o),
(-267,640,cs),
(-333,614,ls),
(-362,603,o),
(-380,583,o),
(-380,556,cs),
(-380,526,o),
(-357,506,o),
(-314,506,cs)
);
},
{
closed = 1;
nodes = (
(-304,536,o),
(-316,545,o),
(-316,563,cs),
(-316,585,o),
(-300,603,o),
(-268,618,cs),
(-265,619,o),
(-263,620,o),
(-262,620,cs),
(-260,620,o),
(-257,618,o),
(-257,613,cs),
(-255,589,o),
(-252,575,o),
(-248,568,c),
(-249,559,o),
(-269,536,o),
(-288,536,cs)
);
},
{
closed = 1;
nodes = (
(-163,527,o),
(-186,574,o),
(-186,625,cs),
(-186,673,o),
(-164,726,o),
(-122,726,cs),
(-78,726,o),
(-54,677,o),
(-54,625,cs),
(-54,580,o),
(-76,527,o),
(-122,527,cs)
);
}
);
width = 0;
},
{
anchors = (
{
name = _top;
pos = (-190,415);
},
{
name = top;
pos = (-200,730);
}
);
guides = (
{
pos = (547,230);
showMeasurement = 1;
}
);
layerId = "00F4936D-6309-4DEC-83B3-42806ED1A477";
shapes = (
{
closed = 1;
nodes = (
(-276,506,o),
(-254,520,o),
(-237,542,cs),
(-233,546,o),
(-230,548,o),
(-229,548,cs),
(-227,548,o),
(-224,546,o),
(-221,542,cs),
(-194,516,o),
(-168,506,o),
(-134,506,cs),
(-61,506,o),
(-16,553,o),
(-16,626,cs),
(-16,691,o),
(-64,745,o),
(-134,745,cs),
(-157,745,o),
(-179,739,o),
(-198,728,cs),
(-203,725,o),
(-206,724,o),
(-208,724,cs),
(-211,724,o),
(-215,726,o),
(-219,729,cs),
(-232,739,o),
(-248,745,o),
(-267,745,cs),
(-288,745,o),
(-310,738,o),
(-334,723,cs),
(-348,715,o),
(-365,690,o),
(-365,670,cs),
(-365,656,o),
(-357,649,o),
(-342,649,cs),
(-326,649,o),
(-317,660,o),
(-315,676,cs),
(-313,687,o),
(-314,700,o),
(-313,708,c),
(-303,720,o),
(-292,724,o),
(-282,724,cs),
(-264,724,o),
(-255,714,o),
(-255,694,cs),
(-255,654,ls),
(-255,647,o),
(-258,642,o),
(-264,639,cs),
(-320,614,ls),
(-347,602,o),
(-362,584,o),
(-362,556,cs),
(-362,526,o),
(-341,506,o),
(-302,506,cs)
);
},
{
closed = 1;
nodes = (
(-292,537,o),
(-303,546,o),
(-303,563,cs),
(-303,583,o),
(-290,601,o),
(-264,616,cs),
(-262,617,o),
(-260,618,o),
(-259,618,cs),
(-257,618,o),
(-255,617,o),
(-255,611,cs),
(-253,588,o),
(-250,573,o),
(-247,567,c),
(-248,557,o),
(-266,537,o),
(-279,537,cs)
);
},
{
closed = 1;
nodes = (
(-169,528,o),
(-188,575,o),
(-188,625,cs),
(-188,670,o),
(-170,725,o),
(-134,725,cs),
(-98,725,o),
(-77,675,o),
(-77,625,cs),
(-77,581,o),
(-95,528,o),
(-134,528,cs)
);
}
);
userData = {
RMXScaler = {
height = 54.99;
weight = -30;
width = 54.99;
};
};
width = 0;
}
);
unicode = 7637;
userData = {
KernOnSpecialSpacing = {
L = NoKerning;
R = NoKerning;
};
RMXScaler = {
source = uniA735;
};
};
}
{
glyphname = quoteright;
kernLeft = KO_quoteright;
kernRight = KO_quotedbl;
layers = (
{
layerId = master01;
shapes = (
{
closed = 1;
nodes = (
(150,446,o),
(190,506,o),
(190,577,cs),
(190,627,o),
(156,663,o),
(112,663,cs),
(81,663,o),
(62,647,o),
(62,620,cs),
(62,597,o),
(72,580,o),
(93,570,cs),
(121,557,o),
(128,550,o),
(128,534,cs),
(128,490,o),
(103,449,o),
(54,413,cs),
(49,410,o),
(49,408,o),
(54,399,cs),
(59,394,o),
(62,392,o),
(67,395,cs)
);
}
);
width = 253;
},
{
layerId = "75918100-ED89-42A8-B0FE-888EB9C86810";
shapes = (
{
closed = 1;
nodes = (
(134,429,o),
(188,498,o),
(188,564,cs),
(188,619,o),
(152,663,o),
(106,663,cs),
(65,663,o),
(36,641,o),
(36,609,cs),
(36,580,o),
(53,554,o),
(77,546,cs),
(93,540,o),
(95,535,o),
(95,526,cs),
(95,486,o),
(74,442,o),
(38,410,cs),
(34,406,o),
(34,403,o),
(38,397,cs),
(42,391,o),
(46,389,o),
(52,392,cs)
);
}
);
width = 232;
},
{
layerId = "6ABD9449-5E80-4451-809E-12ADEB9E9AB4";
shapes = (
{
closed = 1;
nodes = (
(154,453,o),
(190,508,o),
(190,581,cs),
(190,627,o),
(157,663,o),
(113,663,cs),
(86,663,o),
(70,648,o),
(70,623,cs),
(70,601,o),
(78,588,o),
(98,578,cs),
(131,562,o),
(138,554,o),
(138,536,cs),
(138,492,o),
(112,452,o),
(58,414,cs),
(54,410,o),
(53,409,o),
(59,400,cs),
(63,395,o),
(67,393,o),
(71,396,cs)
);
}
);
width = 259;
},
{
layerId = "70B83247-6FA0-4662-9656-C86DD2A17D3B";
shapes = (
{
closed = 1;
nodes = (
(123,441,o),
(158,503,o),
(158,573,cs),
(158,623,o),
(129,663,o),
(94,663,cs),
(67,663,o),
(48,645,o),
(48,617,cs),
(48,592,o),
(58,573,o),
(76,563,cs),
(95,551,o),
(99,546,o),
(99,532,cs),
(99,489,o),
(80,446,o),
(45,412,cs),
(42,409,o),
(42,404,o),
(45,398,cs),
(47,393,o),
(51,391,o),
(56,394,cs)
);
}
);
width = 212;
},
{
layerId = "9E6FDE2E-55A6-44A9-9556-F1822294BF26";
shapes = (
{
closed = 1;
nodes = (
(175,453,o),
(218,503,o),
(218,564,cs),
(218,624,o),
(180,663,o),
(122,663,cs),
(92,663,o),
(72,647,o),
(72,624,cs),
(72,602,o),
(82,588,o),
(107,578,cs),
(144,563,o),
(153,553,o),
(153,530,cs),
(153,492,o),
(121,452,o),
(59,414,cs),
(54,411,o),
(52,409,o),
(60,401,cs),
(66,395,o),
(69,393,o),
(74,396,cs)
);
}
);
width = 287;
},
{
layerId = "00F4936D-6309-4DEC-83B3-42806ED1A477";
shapes = (
{
closed = 1;
nodes = (
(150,446,o),
(190,506,o),
(190,577,cs),
(190,627,o),
(156,663,o),
(112,663,cs),
(81,663,o),
(62,647,o),
(62,620,cs),
(62,597,o),
(72,580,o),
(93,570,cs),
(121,557,o),
(128,550,o),
(128,534,cs),
(128,490,o),
(103,449,o),
(54,413,cs),
(49,410,o),
(49,408,o),
(54,399,cs),
(59,394,o),
(62,392,o),
(67,395,cs)
);
}
);
width = 253;
}
);
unicode = 8217;
userData = {
KernOnName = quoteright;
KernOnSpecialSpacing = {
L = quotes;
R = quotes;
};
};
}
{
glyphname = quotereversed;
layers = (
{
layerId = master01;
shapes = (
{
closed = 1;
nodes = (
(191,392,o),
(194,394,o),
(199,399,cs),
(204,408,o),
(203,410,o),
(199,413,cs),
(150,449,o),
(125,490,o),
(125,534,cs),
(125,550,o),
(132,557,o),
(159,570,cs),
(180,580,o),
(191,597,o),
(191,620,cs),
(191,647,o),
(172,663,o),
(141,663,cs),
(96,663,o),
(63,627,o),
(63,577,cs),
(63,506,o),
(103,446,o),
(186,395,cs)
);
}
);
width = 252;
},
{
guides = (
{
pos = (290,929);
}
);
layerId = "75918100-ED89-42A8-B0FE-888EB9C86810";
shapes = (
{
closed = 1;
nodes = (
(186,389,o),
(190,391,o),
(194,396,cs),
(198,403,o),
(198,406,o),
(194,410,cs),
(158,442,o),
(137,485,o),
(137,526,cs),
(137,535,o),
(139,540,o),
(155,545,cs),
(179,554,o),
(196,580,o),
(196,609,cs),
(196,641,o),
(167,663,o),
(126,663,cs),
(80,663,o),
(44,619,o),
(44,564,cs),
(44,498,o),
(99,429,o),
(181,392,cs)
);
}
);
width = 232;
},
{
layerId = "6ABD9449-5E80-4451-809E-12ADEB9E9AB4";
shapes = (
{
closed = 1;
nodes = (
(192,393,o),
(196,395,o),
(200,400,cs),
(207,409,o),
(206,410,o),
(201,414,cs),
(147,452,o),
(121,492,o),
(121,536,cs),
(121,554,o),
(128,562,o),
(161,578,cs),
(181,588,o),
(189,601,o),
(189,623,cs),
(189,648,o),
(173,663,o),
(146,663,cs),
(102,663,o),
(69,628,o),
(69,581,cs),
(69,508,o),
(105,453,o),
(188,396,cs)
);
}
);
width = 260;
},
{
layerId = "70B83247-6FA0-4662-9656-C86DD2A17D3B";
shapes = (
{
closed = 1;
nodes = (
(160,391,o),
(164,393,o),
(167,397,cs),
(170,403,o),
(170,409,o),
(167,412,cs),
(132,446,o),
(113,488,o),
(113,531,cs),
(113,545,o),
(117,551,o),
(135,562,cs),
(154,573,o),
(163,591,o),
(163,616,cs),
(163,644,o),
(145,663,o),
(117,663,cs),
(82,663,o),
(54,623,o),
(54,572,cs),
(54,502,o),
(89,441,o),
(156,394,cs)
);
}
);
width = 212;
},
{
guides = (
{
pos = (312,929);
},
{
pos = (309,929);
},
{
pos = (320,929);
}
);
layerId = "9E6FDE2E-55A6-44A9-9556-F1822294BF26";
shapes = (
{
closed = 1;
nodes = (
(218,393,o),
(221,395,o),
(227,401,cs),
(235,409,o),
(233,411,o),
(228,414,cs),
(166,452,o),
(134,492,o),
(134,530,cs),
(134,553,o),
(143,563,o),
(180,578,cs),
(205,588,o),
(215,602,o),
(215,624,cs),
(215,648,o),
(195,663,o),
(165,663,cs),
(107,663,o),
(69,624,o),
(69,565,cs),
(69,504,o),
(112,453,o),
(213,396,cs)
);
}
);
width = 287;
},
{
layerId = "00F4936D-6309-4DEC-83B3-42806ED1A477";
shapes = (
{
closed = 1;
nodes = (
(191,392,o),
(194,394,o),
(199,399,cs),
(204,408,o),
(203,410,o),
(199,413,cs),
(150,449,o),
(125,490,o),
(125,534,cs),
(125,550,o),
(132,557,o),
(159,570,cs),
(180,580,o),
(191,597,o),
(191,620,cs),
(191,647,o),
(172,663,o),
(141,663,cs),
(96,663,o),
(63,627,o),
(63,577,cs),
(63,506,o),
(103,446,o),
(186,395,cs)
);
}
);
width = 252;
}
);
metricLeft = "=|quoteright";
metricRight = "=|quoteright";
unicode = 8219;
userData = {
KernOnSpecialSpacing = {
L = quotes;
R = quotes;
};
};
}
{
glyphname = minussuperior;
layers = (
{
layerId = master01;
shapes = (
{
closed = 1;
nodes = (
(274,424,ls),
(278,424,o),
(281,429,o),
(281,440,cs),
(281,451,o),
(278,457,o),
(274,457,cs),
(31,457,ls),
(27,457,o),
(24,451,o),
(24,440,cs),
(24,429,o),
(27,424,o),
(31,424,cs)
);
}
);
width = 305;
},
{
layerId = "75918100-ED89-42A8-B0FE-888EB9C86810";
shapes = (
{
closed = 1;
nodes = (
(265,416,ls),
(269,416,o),
(271,424,o),
(271,440,cs),
(271,456,o),
(269,464,o),
(265,464,cs),
(21,464,ls),
(17,464,o),
(15,456,o),
(15,440,cs),
(15,424,o),
(17,416,o),
(21,416,cs)
);
}
);
width = 286;
},
{
layerId = "6ABD9449-5E80-4451-809E-12ADEB9E9AB4";
shapes = (
{
closed = 1;
nodes = (
(277,426,ls),
(281,426,o),
(284,430,o),
(284,440,cs),
(284,450,o),
(281,454,o),
(277,454,cs),
(35,454,ls),
(30,454,o),
(28,450,o),
(28,440,cs),
(28,430,o),
(30,426,o),
(35,426,cs)
);
}
);
width = 312;
},
{
layerId = "70B83247-6FA0-4662-9656-C86DD2A17D3B";
shapes = (
{
closed = 1;
nodes = (
(220,422,ls),
(223,422,o),
(225,427,o),
(225,440,cs),
(225,453,o),
(223,459,o),
(220,459,cs),
(24,459,ls),
(21,459,o),
(20,453,o),
(20,440,cs),
(20,427,o),
(21,422,o),
(24,422,cs)
);
}
);
width = 244;
},
{
layerId = "9E6FDE2E-55A6-44A9-9556-F1822294BF26";
shapes = (
{
closed = 1;
nodes = (
(328,426,ls),
(334,426,o),
(337,431,o),
(337,440,cs),
(337,449,o),
(334,454,o),
(328,454,cs),
(38,454,ls),
(32,454,o),
(29,450,o),
(29,440,cs),
(29,430,o),
(32,426,o),
(38,426,cs)
);
}
);
width = 366;
},
{
layerId = "00F4936D-6309-4DEC-83B3-42806ED1A477";
shapes = (
{
closed = 1;
nodes = (
(274,424,ls),
(278,424,o),
(281,429,o),
(281,440,cs),
(281,451,o),
(278,457,o),
(274,457,cs),
(31,457,ls),
(27,457,o),
(24,451,o),
(24,440,cs),
(24,429,o),
(27,424,o),
(31,424,cs)
);
}
);
width = 305;
}
);
unicode = 8315;
userData = {
KernOnSpecialSpacing = {
L = NoKerning;
R = NoKerning;
};
};
}
{
glyphname = Fturned;
layers = (
{
layerId = master01;
shapes = (
{
closed = 1;
nodes = (
(122,-2,o),
(176,-2,o),
(228,-1,cs),
(280,0,o),
(333,0,o),
(390,0,cs),
(446,0,o),
(493,0,o),
(530,-2,c),
(540,-2,o),
(540,35,o),
(530,35,cs),
(469,35,o),
(439,53,o),
(439,88,cs),
(439,570,ls),
(439,608,o),
(468,627,o),
(527,627,cs),
(536,627,o),
(536,664,o),
(527,664,c),
(499,662,o),
(456,661,o),
(398,661,cs),
(341,661,o),
(298,662,o),
(269,664,c),
(260,664,o),
(260,627,o),
(269,627,cs),
(330,627,o),
(361,608,o),
(361,570,cs),
(361,348,l),
(267,348,ls),
(225,348,o),
(210,364,o),
(210,411,cs),
(210,468,ls),
(210,477,o),
(176,477,o),
(176,468,c),
(178,445,o),
(180,398,o),
(180,329,cs),
(180,259,o),
(178,213,o),
(176,190,c),
(176,181,o),
(210,182,o),
(210,190,cs),
(210,248,ls),
(210,295,o),
(220,311,o),
(267,311,cs),
(361,311,l),
(361,55,ls),
(361,42,o),
(354,35,o),
(341,35,c),
(194,40,ls),
(109,42,o),
(67,84,o),
(67,167,cs),
(67,180,o),
(30,179,o),
(30,167,cs),
(30,9,ls),
(30,1,o),
(43,-2,o),
(66,-2,cs)
);
}
);
width = 571;
},
{
layerId = "75918100-ED89-42A8-B0FE-888EB9C86810";
shapes = (
{
closed = 1;
nodes = (
(95,-3,o),
(151,-2,o),
(224,-1,cs),
(296,0,o),
(356,0,o),
(403,0,cs),
(450,0,o),
(497,0,o),
(543,-3,cs),
(553,-3,o),
(552,42,o),
(543,42,cs),
(487,42,o),
(459,61,o),
(459,96,cs),
(459,561,ls),
(459,599,o),
(485,618,o),
(538,618,cs),
(548,618,o),
(548,663,o),
(538,663,cs),
(504,663,o),
(458,660,o),
(399,660,cs),
(340,660,o),
(296,662,o),
(265,663,cs),
(256,664,o),
(256,618,o),
(265,618,cs),
(315,618,o),
(340,599,o),
(340,561,cs),
(340,351,l),
(260,351,ls),
(230,351,o),
(215,366,o),
(215,395,cs),
(215,465,ls),
(215,475,o),
(164,474,o),
(164,465,c),
(166,442,o),
(167,397,o),
(167,330,cs),
(167,262,o),
(166,217,o),
(164,195,c),
(164,185,o),
(215,186,o),
(215,195,cs),
(215,262,ls),
(215,292,o),
(230,306,o),
(260,306,cs),
(340,306,l),
(340,62,ls),
(340,49,o),
(336,42,o),
(327,42,c),
(182,47,ls),
(125,49,o),
(73,103,o),
(73,171,cs),
(73,183,o),
(24,183,o),
(24,171,cs),
(24,22,ls),
(24,5,o),
(34,-3,o),
(53,-3,cs)
);
}
);
width = 577;
},
{
layerId = "6ABD9449-5E80-4451-809E-12ADEB9E9AB4";
shapes = (
{
closed = 1;
nodes = (
(132,-4,o),
(186,-2,o),
(230,-1,cs),
(275,-1,o),
(327,0,o),
(386,0,cs),
(445,0,o),
(492,0,o),
(527,-2,cs),
(537,-3,o),
(536,32,o),
(527,32,cs),
(464,32,o),
(433,50,o),
(433,85,cs),
(433,573,ls),
(433,611,o),
(463,630,o),
(524,630,cs),
(533,630,o),
(532,664,o),
(524,664,cs),
(498,664,o),
(456,661,o),
(399,661,cs),
(342,661,o),
(300,661,o),
(271,664,cs),
(262,665,o),
(262,630,o),
(271,630,cs),
(336,630,o),
(369,611,o),
(369,573,cs),
(369,347,l),
(270,347,ls),
(224,347,o),
(209,363,o),
(209,416,cs),
(209,468,ls),
(209,478,o),
(181,477,o),
(181,468,c),
(183,445,o),
(185,398,o),
(185,328,cs),
(185,258,o),
(183,211,o),
(181,188,c),
(181,180,o),
(209,180,o),
(209,188,cs),
(209,243,ls),
(209,296,o),
(218,313,o),
(270,313,cs),
(369,313,l),
(369,52,ls),
(369,39,o),
(361,32,o),
(346,32,c),
(199,37,ls),
(105,40,o),
(66,78,o),
(66,166,cs),
(66,178,o),
(33,178,o),
(33,166,cs),
(33,5,ls),
(33,0,o),
(47,-2,o),
(71,-2,cs)
);
}
);
width = 571;
},
{
layerId = "70B83247-6FA0-4662-9656-C86DD2A17D3B";
shapes = (
{
closed = 1;
nodes = (
(90,-2,o),
(138,-2,o),
(185,-1,cs),
(231,0,o),
(272,0,o),
(319,0,cs),
(361,0,o),
(398,0,o),
(431,-2,c),
(439,-2,o),
(438,37,o),
(431,37,cs),
(384,37,o),
(360,55,o),
(360,91,cs),
(360,567,ls),
(360,605,o),
(383,625,o),
(428,625,cs),
(436,625,o),
(436,664,o),
(428,664,c),
(404,662,o),
(363,661,o),
(322,661,cs),
(279,661,o),
(241,662,o),
(217,664,c),
(210,664,o),
(210,625,o),
(217,625,cs),
(263,625,o),
(286,605,o),
(286,567,cs),
(286,349,l),
(215,349,ls),
(181,349,o),
(173,371,o),
(173,406,cs),
(173,467,ls),
(173,477,o),
(140,476,o),
(140,467,c),
(142,444,o),
(143,401,o),
(143,329,cs),
(143,258,o),
(142,214,o),
(140,192,c),
(140,183,o),
(173,183,o),
(173,192,cs),
(173,252,ls),
(173,298,o),
(186,310,o),
(215,310,cs),
(286,310,l),
(286,57,ls),
(286,44,o),
(281,37,o),
(271,37,c),
(155,42,ls),
(95,44,o),
(59,90,o),
(59,168,cs),
(59,181,o),
(26,180,o),
(26,168,cs),
(26,13,ls),
(26,3,o),
(33,-2,o),
(52,-2,cs)
);
}
);
width = 466;
},
{
layerId = "9E6FDE2E-55A6-44A9-9556-F1822294BF26";
shapes = (
{
closed = 1;
nodes = (
(156,-2,o),
(216,-2,o),
(273,-1,cs),
(330,0,o),
(396,0,o),
(462,0,cs),
(532,0,o),
(588,0,o),
(631,-2,c),
(643,-2,o),
(642,32,o),
(631,32,cs),
(556,32,o),
(519,50,o),
(519,86,cs),
(519,572,ls),
(519,611,o),
(555,629,o),
(627,629,cs),
(638,629,o),
(637,665,o),
(627,665,c),
(595,662,o),
(549,661,o),
(476,661,cs),
(405,661,o),
(356,662,o),
(322,665,c),
(311,664,o),
(312,629,o),
(322,629,cs),
(398,629,o),
(438,611,o),
(438,572,cs),
(438,347,l),
(321,347,ls),
(270,347,o),
(249,357,o),
(249,416,cs),
(249,468,ls),
(249,478,o),
(213,478,o),
(213,468,c),
(216,445,o),
(218,396,o),
(218,328,cs),
(218,261,o),
(216,213,o),
(213,189,c),
(213,180,o),
(249,181,o),
(249,189,cs),
(249,243,ls),
(249,292,o),
(256,313,o),
(321,313,cs),
(438,313,l),
(438,52,ls),
(438,39,o),
(428,32,o),
(412,32,c),
(234,37,ls),
(125,41,o),
(78,79,o),
(78,167,cs),
(78,179,o),
(36,178,o),
(36,167,cs),
(36,5,ls),
(36,-1,o),
(54,-2,o),
(81,-2,cs)
);
}
);
width = 680;
},
{
layerId = "00F4936D-6309-4DEC-83B3-42806ED1A477";
shapes = (
{
closed = 1;
nodes = (
(122,-2,o),
(176,-2,o),
(228,-1,cs),
(280,0,o),
(333,0,o),
(390,0,cs),
(446,0,o),
(493,0,o),
(530,-2,c),
(540,-2,o),
(540,35,o),
(530,35,cs),
(469,35,o),
(439,53,o),
(439,88,cs),
(439,570,ls),
(439,608,o),
(468,627,o),
(527,627,cs),
(536,627,o),
(536,664,o),
(527,664,c),
(499,662,o),
(456,661,o),
(398,661,cs),
(341,661,o),
(298,662,o),
(269,664,c),
(260,664,o),
(260,627,o),
(269,627,cs),
(330,627,o),
(361,608,o),
(361,570,cs),
(361,348,l),
(267,348,ls),
(225,348,o),
(210,364,o),
(210,411,cs),
(210,468,ls),
(210,477,o),
(176,477,o),
(176,468,c),
(178,445,o),
(180,398,o),
(180,329,cs),
(180,259,o),
(178,213,o),
(176,190,c),
(176,181,o),
(210,182,o),
(210,190,cs),
(210,248,ls),
(210,295,o),
(220,311,o),
(267,311,cs),
(361,311,l),
(361,55,ls),
(361,42,o),
(354,35,o),
(341,35,c),
(194,40,ls),
(109,42,o),
(67,84,o),
(67,167,cs),
(67,180,o),
(30,179,o),
(30,167,cs),
(30,9,ls),
(30,1,o),
(43,-2,o),
(66,-2,cs)
);
}
);
width = 571;
}
);
unicode = 8498;
userData = {
KernOnSpecialSpacing = {
L = NoKerning;
R = NoKerning;
};
};
}
{
glyphname = nine.circled;
layers = (
{
layerId = master01;
shapes = (
{
closed = 1;
nodes = (
(716,-240,o),
(954,-72,o),
(954,212,cs),
(954,428,o),
(785,665,o),
(501,665,cs),
(286,665,o),
(49,497,o),
(49,212,cs),
(49,-3,o),
(217,-240,o),
(501,-240,cs)
);
},
{
closed = 1;
nodes = (
(269,-199,o),
(90,-11,o),
(90,212,cs),
(90,445,o),
(278,624,o),
(501,624,cs),
(733,624,o),
(912,436,o),
(912,212,cs),
(912,-20,o),
(724,-199,o),
(501,-199,cs)
);
},
{
closed = 1;
nodes = (
(476,16,o),
(524,52,o),
(563,98,cs),
(619,162,o),
(647,231,o),
(647,304,cs),
(647,391,o),
(604,469,o),
(516,469,cs),
(433,469,o),
(379,407,o),
(379,319,cs),
(379,255,o),
(427,194,o),
(492,194,cs),
(523,194,o),
(553,210,o),
(583,241,c),
(572,181,o),
(551,134,o),
(521,100,cs),
(491,66,o),
(454,36,o),
(409,9,cs),
(406,7,o),
(407,2,o),
(411,-5,cs),
(415,-11,o),
(418,-14,o),
(421,-12,cs)
);
},
{
closed = 1;
nodes = (
(466,233,o),
(433,285,o),
(433,343,cs),
(433,390,o),
(454,440,o),
(505,440,cs),
(562,440,o),
(589,386,o),
(589,303,cs),
(589,293,o),
(588,282,o),
(587,272,c),
(565,246,o),
(542,233,o),
(515,233,cs)
);
}
);
width = 1002;
},
{
layerId = "75918100-ED89-42A8-B0FE-888EB9C86810";
shapes = (
{
closed = 1;
nodes = (
(694,-242,o),
(932,-73,o),
(932,211,cs),
(932,426,o),
(764,664,o),
(479,664,cs),
(265,664,o),
(27,495,o),
(27,211,cs),
(27,-4,o),
(195,-242,o),
(479,-242,cs)
);
},
{
closed = 1;
nodes = (
(264,-170,o),
(99,4,o),
(99,211,cs),
(99,426,o),
(273,592,o),
(479,592,cs),
(695,592,o),
(860,417,o),
(860,211,cs),
(860,-4,o),
(686,-170,o),
(479,-170,cs)
);
},
{
closed = 1;
nodes = (
(451,15,o),
(503,53,o),
(544,99,cs),
(599,162,o),
(627,229,o),
(627,300,cs),
(627,388,o),
(578,469,o),
(483,469,cs),
(393,469,o),
(332,405,o),
(332,314,cs),
(332,247,o),
(384,188,o),
(459,188,cs),
(482,188,o),
(514,202,o),
(533,220,c),
(518,172,o),
(501,134,o),
(481,106,cs),
(456,72,o),
(421,41,o),
(373,15,cs),
(369,13,o),
(371,5,o),
(375,-3,cs),
(380,-12,o),
(384,-17,o),
(389,-14,cs)
);
},
{
closed = 1;
nodes = (
(441,237,o),
(413,290,o),
(413,337,cs),
(413,379,o),
(426,431,o),
(472,431,cs),
(519,431,o),
(543,387,o),
(543,300,cs),
(543,282,o),
(541,268,o),
(538,258,c),
(524,244,o),
(506,237,o),
(482,237,cs)
);
}
);
width = 959;
},
{
layerId = "6ABD9449-5E80-4451-809E-12ADEB9E9AB4";
shapes = (
{
closed = 1;
nodes = (
(676,-242,o),
(913,-73,o),
(913,211,cs),
(913,426,o),
(745,664,o),
(460,664,cs),
(245,664,o),
(8,495,o),
(8,211,cs),
(8,-4,o),
(176,-242,o),
(460,-242,cs)
);
},
{
closed = 1;
nodes = (
(222,-211,o),
(38,-18,o),
(38,211,cs),
(38,450,o),
(231,633,o),
(460,633,cs),
(699,633,o),
(883,440,o),
(883,211,cs),
(883,-28,o),
(689,-211,o),
(460,-211,cs)
);
},
{
closed = 1;
nodes = (
(437,16,o),
(483,52,o),
(522,97,cs),
(579,162,o),
(606,231,o),
(606,305,cs),
(606,392,o),
(565,469,o),
(479,469,cs),
(399,469,o),
(346,408,o),
(346,321,cs),
(346,258,o),
(394,195,o),
(456,195,cs),
(489,195,o),
(519,212,o),
(552,248,c),
(542,185,o),
(520,135,o),
(487,98,cs),
(455,64,o),
(418,33,o),
(374,8,cs),
(370,6,o),
(371,1,o),
(375,-5,cs),
(379,-11,o),
(382,-13,o),
(384,-12,cs)
);
},
{
closed = 1;
nodes = (
(426,231,o),
(393,283,o),
(393,345,cs),
(393,393,o),
(416,443,o),
(469,443,cs),
(529,443,o),
(556,385,o),
(556,304,cs),
(556,296,o),
(556,287,o),
(555,277,c),
(531,246,o),
(506,231,o),
(479,231,cs)
);
}
);
width = 962;
},
{
layerId = "70B83247-6FA0-4662-9656-C86DD2A17D3B";
shapes = (
{
closed = 1;
nodes = (
(716,-240,o),
(954,-72,o),
(954,212,cs),
(954,427,o),
(786,665,o),
(501,665,cs),
(287,665,o),
(49,497,o),
(49,212,cs),
(49,-2,o),
(217,-240,o),
(501,-240,cs)
);
},
{
closed = 1;
nodes = (
(274,-190,o),
(99,-6,o),
(99,212,cs),
(99,439,o),
(283,614,o),
(501,614,cs),
(729,614,o),
(903,430,o),
(903,212,cs),
(903,-15,o),
(720,-190,o),
(501,-190,cs)
);
},
{
closed = 1;
nodes = (
(484,15,o),
(523,53,o),
(555,98,cs),
(600,162,o),
(622,230,o),
(622,303,cs),
(622,390,o),
(586,469,o),
(513,469,cs),
(445,469,o),
(400,406,o),
(400,317,cs),
(400,253,o),
(440,192,o),
(494,192,cs),
(516,192,o),
(541,207,o),
(562,235,c),
(552,179,o),
(536,134,o),
(515,102,cs),
(493,68,o),
(464,37,o),
(427,11,cs),
(424,9,o),
(425,3,o),
(428,-4,cs),
(432,-12,o),
(435,-14,o),
(438,-13,cs)
);
},
{
closed = 1;
nodes = (
(476,234,o),
(451,286,o),
(451,341,cs),
(451,386,o),
(466,437,o),
(505,437,cs),
(547,437,o),
(568,386,o),
(568,302,cs),
(568,289,o),
(567,277,o),
(565,268,c),
(551,246,o),
(534,234,o),
(513,234,cs)
);
}
);
width = 1003;
},
{
layerId = "9E6FDE2E-55A6-44A9-9556-F1822294BF26";
shapes = (
{
closed = 1;
nodes = (
(716,-240,o),
(953,-72,o),
(953,212,cs),
(953,428,o),
(785,665,o),
(500,665,cs),
(285,665,o),
(49,497,o),
(49,212,cs),
(49,-3,o),
(217,-240,o),
(500,-240,cs)
);
},
{
closed = 1;
nodes = (
(263,-208,o),
(81,-16,o),
(81,212,cs),
(81,450,o),
(272,633,o),
(500,633,cs),
(738,633,o),
(921,441,o),
(921,212,cs),
(921,-25,o),
(729,-208,o),
(500,-208,cs)
);
},
{
closed = 1;
nodes = (
(469,16,o),
(524,52,o),
(572,97,cs),
(639,162,o),
(672,231,o),
(672,305,cs),
(672,392,o),
(622,469,o),
(519,469,cs),
(421,469,o),
(357,409,o),
(357,320,cs),
(357,258,o),
(415,195,o),
(490,195,cs),
(530,195,o),
(565,212,o),
(604,248,c),
(591,184,o),
(566,135,o),
(527,99,cs),
(490,63,o),
(444,34,o),
(392,8,cs),
(388,6,o),
(388,1,o),
(394,-5,cs),
(397,-10,o),
(401,-13,o),
(404,-12,cs)
);
},
{
closed = 1;
nodes = (
(456,231,o),
(416,283,o),
(416,345,cs),
(416,393,o),
(442,442,o),
(506,442,cs),
(577,442,o),
(610,386,o),
(610,304,cs),
(610,296,o),
(609,288,o),
(608,276,c),
(580,246,o),
(549,231,o),
(518,231,cs)
);
}
);
width = 1002;
},
{
layerId = "00F4936D-6309-4DEC-83B3-42806ED1A477";
shapes = (
{
closed = 1;
nodes = (
(716,-240,o),
(954,-72,o),
(954,212,cs),
(954,428,o),
(785,665,o),
(501,665,cs),
(286,665,o),
(49,497,o),
(49,212,cs),
(49,-3,o),
(217,-240,o),
(501,-240,cs)
);
},
{
closed = 1;
nodes = (
(269,-199,o),
(90,-11,o),
(90,212,cs),
(90,445,o),
(278,624,o),
(501,624,cs),
(733,624,o),
(912,436,o),
(912,212,cs),
(912,-20,o),
(724,-199,o),
(501,-199,cs)
);
},
{
closed = 1;
nodes = (
(476,16,o),
(524,52,o),
(563,98,cs),
(619,162,o),
(647,231,o),
(647,304,cs),
(647,391,o),
(604,469,o),
(516,469,cs),
(433,469,o),
(379,407,o),
(379,319,cs),
(379,255,o),
(427,194,o),
(492,194,cs),
(523,194,o),
(553,210,o),
(583,241,c),
(572,181,o),
(551,134,o),
(521,100,cs),
(491,66,o),
(454,36,o),
(409,9,cs),
(406,7,o),
(407,2,o),
(411,-5,cs),
(415,-11,o),
(418,-14,o),
(421,-12,cs)
);
},
{
closed = 1;
nodes = (
(466,233,o),
(433,285,o),
(433,343,cs),
(433,390,o),
(454,440,o),
(505,440,cs),
(562,440,o),
(589,386,o),
(589,303,cs),
(589,293,o),
(588,282,o),
(587,272,c),
(565,246,o),
(542,233,o),
(515,233,cs)
);
}
);
width = 1002;
}
);
unicode = 9320;
userData = {
KernOnSpecialSpacing = {
L = NoKerning;
R = NoKerning;
};
};
}
{
glyphname = l.paren;
layers = (
{
layerId = master01;
shapes = (
{
closed = 1;
nodes = (
(611,-174,o),
(625,-175,o),
(631,-170,cs),
(754,-55,o),
(835,115,o),
(835,287,cs),
(835,479,o),
(773,616,o),
(636,739,cs),
(625,749,o),
(616,751,o),
(605,743,cs),
(594,734,o),
(595,724,o),
(604,715,cs),
(713,601,o),
(767,458,o),
(767,287,cs),
(767,115,o),
(713,-28,o),
(603,-146,cs),
(596,-154,o),
(594,-159,o),
(604,-167,cs)
);
},
{
closed = 1;
nodes = (
(503,62,l),
(503,572,l),
(428,572,l),
(428,62,l)
);
},
{
closed = 1;
nodes = (
(503,555,l),
(503,637,ls),
(503,655,o),
(503,679,o),
(506,712,c),
(506,721,o),
(504,726,o),
(500,726,cs),
(496,726,o),
(489,722,o),
(479,714,cs),
(468,706,o),
(448,694,o),
(431,685,cs),
(414,676,o),
(394,668,o),
(383,668,cs),
(378,668,o),
(375,664,o),
(375,655,cs),
(375,646,o),
(378,641,o),
(383,641,cs),
(413,641,o),
(428,619,o),
(428,574,cs),
(428,555,l)
);
},
{
closed = 1;
nodes = (
(413,-1,o),
(432,0,o),
(466,0,cs),
(500,0,o),
(520,-1,o),
(561,-4,c),
(565,-4,o),
(568,1,o),
(568,10,cs),
(568,20,o),
(565,24,o),
(561,24,cs),
(522,24,o),
(503,37,o),
(503,62,cs),
(503,98,l),
(428,98,l),
(428,62,ls),
(428,37,o),
(409,24,o),
(371,24,cs),
(367,24,o),
(364,20,o),
(364,10,cs),
(364,1,o),
(367,-4,o),
(371,-4,c)
);
},
{
closed = 1;
nodes = (
(319,-159,o),
(317,-149,o),
(309,-141,cs),
(200,-26,o),
(146,116,o),
(146,287,cs),
(146,459,o),
(200,602,o),
(307,715,cs),
(318,726,o),
(318,734,o),
(310,742,cs),
(301,750,o),
(287,750,o),
(277,740,cs),
(159,628,o),
(78,457,o),
(78,287,cs),
(78,96,o),
(140,-42,o),
(277,-165,cs),
(288,-174,o),
(297,-178,o),
(308,-168,cs)
);
}
);
width = 904;
},
{
layerId = "75918100-ED89-42A8-B0FE-888EB9C86810";
shapes = (
{
closed = 1;
nodes = (
(613,-177,o),
(632,-178,o),
(642,-169,cs),
(774,-51,o),
(856,119,o),
(856,287,cs),
(856,514,o),
(769,625,o),
(639,746,cs),
(630,754,o),
(614,751,o),
(605,741,cs),
(597,731,o),
(592,715,o),
(599,708,cs),
(700,611,o),
(751,474,o),
(751,287,cs),
(751,144,o),
(716,-20,o),
(602,-135,cs),
(593,-144,o),
(596,-159,o),
(604,-167,cs)
);
},
{
closed = 1;
nodes = (
(522,70,l),
(522,547,l),
(410,547,l),
(410,70,l)
);
},
{
closed = 1;
nodes = (
(522,529,l),
(522,628,ls),
(522,655,o),
(522,683,o),
(526,713,c),
(526,722,o),
(521,726,o),
(514,726,cs),
(507,726,o),
(502,724,o),
(493,717,cs),
(484,710,o),
(446,688,o),
(424,678,cs),
(401,668,o),
(377,664,o),
(365,664,cs),
(360,664,o),
(358,658,o),
(358,646,cs),
(358,634,o),
(360,628,o),
(365,628,cs),
(395,628,o),
(410,607,o),
(410,567,cs),
(410,529,l)
);
},
{
closed = 1;
nodes = (
(412,-1,o),
(431,0,o),
(465,0,cs),
(500,0,o),
(519,-1,o),
(572,-4,c),
(577,-4,o),
(579,2,o),
(579,15,cs),
(579,27,o),
(577,33,o),
(572,33,cs),
(539,33,o),
(522,44,o),
(522,66,cs),
(522,99,l),
(410,99,l),
(410,66,ls),
(410,44,o),
(392,33,o),
(358,33,cs),
(353,33,o),
(351,27,o),
(351,15,cs),
(351,2,o),
(354,-4,o),
(358,-4,c)
);
},
{
closed = 1;
nodes = (
(318,-153,o),
(318,-136,o),
(312,-129,cs),
(211,-31,o),
(165,105,o),
(165,287,cs),
(165,465,o),
(211,602,o),
(313,704,cs),
(322,713,o),
(323,732,o),
(313,742,cs),
(302,751,o),
(279,748,o),
(272,742,cs),
(143,626,o),
(60,455,o),
(60,287,cs),
(60,87,o),
(125,-31,o),
(272,-167,cs),
(281,-175,o),
(301,-170,o),
(309,-162,cs)
);
}
);
width = 904;
},
{
layerId = "6ABD9449-5E80-4451-809E-12ADEB9E9AB4";
shapes = (
{
closed = 1;
nodes = (
(610,-173,o),
(624,-174,o),
(627,-170,cs),
(749,-55,o),
(828,114,o),
(828,287,cs),
(828,484,o),
(786,604,o),
(635,737,cs),
(624,748,o),
(616,751,o),
(605,743,cs),
(593,735,o),
(596,727,o),
(605,718,cs),
(717,597,o),
(772,453,o),
(772,287,cs),
(772,105,o),
(712,-31,o),
(604,-150,cs),
(597,-157,o),
(593,-159,o),
(604,-167,cs)
);
},
{
closed = 1;
nodes = (
(497,60,l),
(497,580,l),
(435,580,l),
(435,60,l)
);
},
{
closed = 1;
nodes = (
(497,563,l),
(497,640,ls),
(497,655,o),
(497,678,o),
(499,712,c),
(499,721,o),
(498,726,o),
(495,726,cs),
(491,726,o),
(484,722,o),
(474,713,cs),
(463,704,o),
(449,695,o),
(434,687,cs),
(418,679,o),
(400,670,o),
(390,670,cs),
(384,670,o),
(381,666,o),
(381,658,cs),
(381,649,o),
(384,646,o),
(390,646,cs),
(419,646,o),
(435,623,o),
(435,576,cs),
(435,563,l)
);
},
{
closed = 1;
nodes = (
(413,-1,o),
(432,0,o),
(466,0,cs),
(500,0,o),
(520,-1,o),
(557,-4,c),
(562,-4,o),
(564,0,o),
(564,9,cs),
(564,17,o),
(562,21,o),
(557,21,cs),
(517,21,o),
(497,34,o),
(497,61,cs),
(497,98,l),
(435,98,l),
(435,61,ls),
(435,34,o),
(415,21,o),
(375,21,cs),
(371,21,o),
(369,17,o),
(369,9,cs),
(369,0,o),
(371,-4,o),
(375,-4,c)
);
},
{
closed = 1;
nodes = (
(320,-161,o),
(316,-153,o),
(308,-145,cs),
(196,-25,o),
(140,120,o),
(140,287,cs),
(140,458,o),
(196,602,o),
(305,718,cs),
(316,730,o),
(317,735,o),
(309,742,cs),
(300,750,o),
(290,750,o),
(278,740,cs),
(163,627,o),
(84,458,o),
(84,287,cs),
(84,98,o),
(146,-47,o),
(278,-165,cs),
(291,-174,o),
(296,-180,o),
(308,-170,cs)
);
}
);
width = 904;
},
{
layerId = "70B83247-6FA0-4662-9656-C86DD2A17D3B";
shapes = (
{
closed = 1;
nodes = (
(607,-175,o),
(620,-176,o),
(626,-169,cs),
(728,-53,o),
(792,117,o),
(792,287,cs),
(792,490,o),
(732,622,o),
(627,741,cs),
(620,750,o),
(610,751,o),
(602,742,cs),
(594,734,o),
(593,722,o),
(600,713,cs),
(684,604,o),
(727,463,o),
(727,287,cs),
(727,124,o),
(689,-25,o),
(600,-143,cs),
(594,-151,o),
(593,-159,o),
(601,-168,cs)
);
},
{
closed = 1;
nodes = (
(481,65,l),
(481,562,l),
(407,562,l),
(407,65,l)
);
},
{
closed = 1;
nodes = (
(481,544,l),
(481,633,ls),
(481,655,o),
(481,681,o),
(484,712,c),
(484,721,o),
(481,726,o),
(477,726,cs),
(473,726,o),
(466,722,o),
(460,715,cs),
(452,708,o),
(429,692,o),
(413,682,cs),
(399,674,o),
(380,667,o),
(371,667,cs),
(366,667,o),
(365,661,o),
(365,651,cs),
(365,642,o),
(366,636,o),
(371,636,cs),
(395,636,o),
(407,613,o),
(407,571,cs),
(407,544,l)
);
},
{
closed = 1;
nodes = (
(396,-1,o),
(416,0,o),
(445,0,cs),
(474,0,o),
(494,-1,o),
(527,-4,c),
(531,-4,o),
(534,1,o),
(534,10,cs),
(534,20,o),
(531,24,o),
(527,24,cs),
(497,24,o),
(481,37,o),
(481,62,cs),
(481,98,l),
(407,98,l),
(407,62,ls),
(407,37,o),
(392,24,o),
(362,24,cs),
(358,24,o),
(355,20,o),
(355,10,cs),
(355,1,o),
(358,-4,o),
(362,-4,c)
);
},
{
closed = 1;
nodes = (
(260,-157,o),
(259,-145,o),
(253,-138,cs),
(169,-28,o),
(128,112,o),
(128,287,cs),
(128,460,o),
(168,602,o),
(252,711,cs),
(261,722,o),
(262,733,o),
(254,742,cs),
(247,750,o),
(233,750,o),
(226,741,cs),
(126,625,o),
(63,454,o),
(63,287,cs),
(63,94,o),
(113,-39,o),
(226,-166,cs),
(234,-175,o),
(245,-175,o),
(252,-167,cs)
);
}
);
width = 904;
},
{
layerId = "9E6FDE2E-55A6-44A9-9556-F1822294BF26";
shapes = (
{
closed = 1;
nodes = (
(615,-174,o),
(631,-174,o),
(636,-170,cs),
(781,-57,o),
(878,113,o),
(878,287,cs),
(878,467,o),
(815,611,o),
(645,737,cs),
(631,748,o),
(622,751,o),
(608,743,cs),
(594,734,o),
(598,727,o),
(608,718,cs),
(742,597,o),
(808,453,o),
(808,287,cs),
(808,105,o),
(737,-30,o),
(606,-150,cs),
(599,-157,o),
(594,-159,o),
(606,-167,cs)
);
},
{
closed = 1;
nodes = (
(524,59,l),
(524,582,l),
(450,582,l),
(450,59,l)
);
},
{
closed = 1;
nodes = (
(524,565,l),
(524,641,ls),
(524,655,o),
(524,678,o),
(528,712,c),
(528,722,o),
(526,726,o),
(523,726,cs),
(519,726,o),
(512,723,o),
(497,712,cs),
(483,704,o),
(467,697,o),
(449,688,cs),
(429,678,o),
(408,670,o),
(396,670,cs),
(390,670,o),
(385,667,o),
(385,658,cs),
(385,649,o),
(390,646,o),
(396,646,cs),
(432,646,o),
(450,624,o),
(450,576,cs),
(450,565,l)
);
},
{
closed = 1;
nodes = (
(429,-1,o),
(449,0,o),
(488,0,cs),
(527,0,o),
(546,-1,o),
(595,-4,c),
(600,-4,o),
(602,1,o),
(602,10,cs),
(602,20,o),
(600,24,o),
(595,24,cs),
(548,24,o),
(524,37,o),
(524,62,cs),
(524,98,l),
(450,98,l),
(450,62,ls),
(450,37,o),
(426,24,o),
(380,24,cs),
(375,24,o),
(373,20,o),
(373,10,cs),
(373,1,o),
(375,-4,o),
(380,-4,c)
);
},
{
closed = 1;
nodes = (
(378,-160,o),
(375,-153,o),
(365,-145,cs),
(231,-25,o),
(164,120,o),
(164,287,cs),
(164,458,o),
(231,602,o),
(362,719,cs),
(375,730,o),
(375,736,o),
(366,742,cs),
(355,750,o),
(341,750,o),
(328,740,cs),
(192,631,o),
(94,460,o),
(94,287,cs),
(94,98,o),
(167,-46,o),
(328,-165,cs),
(342,-173,o),
(350,-181,o),
(364,-170,cs)
);
}
);
width = 904;
},
{
layerId = "00F4936D-6309-4DEC-83B3-42806ED1A477";
shapes = (
{
closed = 1;
nodes = (
(611,-174,o),
(625,-175,o),
(631,-170,cs),
(754,-55,o),
(835,115,o),
(835,287,cs),
(835,479,o),
(773,616,o),
(636,739,cs),
(625,749,o),
(616,751,o),
(605,743,cs),
(594,734,o),
(595,724,o),
(604,715,cs),
(713,601,o),
(767,458,o),
(767,287,cs),
(767,115,o),
(713,-28,o),
(603,-146,cs),
(596,-154,o),
(594,-159,o),
(604,-167,cs)
);
},
{
closed = 1;
nodes = (
(503,62,l),
(503,572,l),
(428,572,l),
(428,62,l)
);
},
{
closed = 1;
nodes = (
(503,555,l),
(503,637,ls),
(503,655,o),
(503,679,o),
(506,712,c),
(506,721,o),
(504,726,o),
(500,726,cs),
(496,726,o),
(489,722,o),
(479,714,cs),
(468,706,o),
(448,694,o),
(431,685,cs),
(414,676,o),
(394,668,o),
(383,668,cs),
(378,668,o),
(375,664,o),
(375,655,cs),
(375,646,o),
(378,641,o),
(383,641,cs),
(413,641,o),
(428,619,o),
(428,574,cs),
(428,555,l)
);
},
{
closed = 1;
nodes = (
(413,-1,o),
(432,0,o),
(466,0,cs),
(500,0,o),
(520,-1,o),
(561,-4,c),
(565,-4,o),
(568,1,o),
(568,10,cs),
(568,20,o),
(565,24,o),
(561,24,cs),
(522,24,o),
(503,37,o),
(503,62,cs),
(503,98,l),
(428,98,l),
(428,62,ls),
(428,37,o),
(409,24,o),
(371,24,cs),
(367,24,o),
(364,20,o),
(364,10,cs),
(364,1,o),
(367,-4,o),
(371,-4,c)
);
},
{
closed = 1;
nodes = (
(319,-159,o),
(317,-149,o),
(309,-141,cs),
(200,-26,o),
(146,116,o),
(146,287,cs),
(146,459,o),
(200,602,o),
(307,715,cs),
(318,726,o),
(318,734,o),
(310,742,cs),
(301,750,o),
(287,750,o),
(277,740,cs),
(159,628,o),
(78,457,o),
(78,287,cs),
(78,96,o),
(140,-42,o),
(277,-165,cs),
(288,-174,o),
(297,-178,o),
(308,-168,cs)
);
}
);
width = 904;
}
);
unicode = 9383;
userData = {
KernOnSpecialSpacing = {
L = NoKerning;
R = NoKerning;
};
};
}
{
glyphname = d.circled;
layers = (
{
layerId = master01;
shapes = (
{
closed = 1;
nodes = (
(716,-240,o),
(954,-72,o),
(954,212,cs),
(954,428,o),
(785,665,o),
(501,665,cs),
(286,665,o),
(49,497,o),
(49,212,cs),
(49,-3,o),
(217,-240,o),
(501,-240,cs)
);
},
{
closed = 1;
nodes = (
(269,-199,o),
(90,-11,o),
(90,212,cs),
(90,445,o),
(278,624,o),
(501,624,cs),
(733,624,o),
(912,436,o),
(912,212,cs),
(912,-20,o),
(724,-199,o),
(501,-199,cs)
);
},
{
closed = 1;
nodes = (
(589,-4,o),
(619,2,o),
(655,7,cs),
(659,7,o),
(658,14,o),
(657,19,cs),
(656,23,o),
(654,28,o),
(652,27,cs),
(648,26,o),
(643,25,o),
(635,25,cs),
(615,25,o),
(606,42,o),
(606,77,cs),
(606,458,ls),
(606,476,o),
(606,489,o),
(608,514,c),
(608,517,o),
(607,518,o),
(604,518,cs),
(602,518,o),
(597,515,o),
(590,510,cs),
(583,505,o),
(570,498,o),
(554,489,cs),
(537,480,o),
(525,477,o),
(520,477,cs),
(516,477,o),
(514,473,o),
(514,467,cs),
(514,460,o),
(516,457,o),
(520,457,cs),
(541,457,o),
(552,440,o),
(552,408,cs),
(552,304,ls),
(552,298,o),
(550,295,o),
(547,295,cs),
(545,295,o),
(543,296,o),
(541,297,cs),
(530,300,o),
(517,302,o),
(500,302,cs),
(403,302,o),
(333,235,o),
(333,134,cs),
(333,55,o),
(375,-12,o),
(457,-12,cs),
(490,-12,o),
(516,-1,o),
(538,20,cs),
(542,23,o),
(545,24,o),
(548,24,cs),
(550,24,o),
(552,21,o),
(552,16,cs),
(552,2,ls),
(552,-10,o),
(554,-16,o),
(558,-16,c)
);
},
{
closed = 1;
nodes = (
(430,22,o),
(391,81,o),
(391,154,cs),
(391,224,o),
(426,281,o),
(492,281,cs),
(513,281,o),
(530,275,o),
(544,264,cs),
(549,259,o),
(552,249,o),
(552,231,cs),
(552,66,ls),
(552,55,o),
(544,44,o),
(534,37,cs),
(521,28,o),
(506,22,o),
(487,22,cs)
);
}
);
width = 1002;
},
{
layerId = "75918100-ED89-42A8-B0FE-888EB9C86810";
shapes = (
{
closed = 1;
nodes = (
(716,-242,o),
(954,-73,o),
(954,211,cs),
(954,426,o),
(786,664,o),
(501,664,cs),
(287,664,o),
(49,495,o),
(49,211,cs),
(49,-4,o),
(217,-242,o),
(501,-242,cs)
);
},
{
closed = 1;
nodes = (
(286,-170,o),
(121,4,o),
(121,211,cs),
(121,426,o),
(295,592,o),
(501,592,cs),
(717,592,o),
(882,417,o),
(882,211,cs),
(882,-4,o),
(708,-170,o),
(501,-170,cs)
);
},
{
closed = 1;
nodes = (
(566,-8,o),
(610,1,o),
(642,7,cs),
(645,7,o),
(646,13,o),
(643,22,cs),
(641,30,o),
(637,34,o),
(633,33,cs),
(629,31,o),
(625,31,o),
(622,31,cs),
(601,31,o),
(600,55,o),
(600,86,cs),
(600,448,ls),
(600,471,o),
(601,491,o),
(602,507,c),
(602,515,o),
(599,519,o),
(591,519,cs),
(588,519,o),
(584,518,o),
(582,515,cs),
(578,512,o),
(568,505,o),
(552,498,cs),
(520,482,o),
(499,474,o),
(487,474,cs),
(483,474,o),
(481,470,o),
(481,461,cs),
(481,453,o),
(483,448,o),
(487,448,cs),
(508,448,o),
(519,434,o),
(519,404,cs),
(519,309,ls),
(519,303,o),
(519,300,o),
(514,300,cs),
(512,300,o),
(508,300,o),
(504,301,cs),
(498,302,o),
(489,302,o),
(481,302,cs),
(376,302,o),
(301,237,o),
(301,137,cs),
(301,58,o),
(346,-12,o),
(439,-12,cs),
(471,-12,o),
(497,-4,o),
(519,13,cs),
(523,16,o),
(526,18,o),
(529,18,cs),
(531,18,o),
(533,15,o),
(533,10,cs),
(533,0,ls),
(533,-15,o),
(533,-16,o),
(541,-16,c)
);
},
{
closed = 1;
nodes = (
(416,18,o),
(390,81,o),
(390,147,cs),
(390,210,o),
(414,275,o),
(474,275,cs),
(488,275,o),
(501,271,o),
(512,265,cs),
(519,260,o),
(519,256,o),
(519,240,cs),
(519,46,ls),
(519,43,o),
(518,40,o),
(514,36,cs),
(504,23,o),
(487,18,o),
(471,18,cs)
);
}
);
width = 1003;
},
{
layerId = "6ABD9449-5E80-4451-809E-12ADEB9E9AB4";
shapes = (
{
closed = 1;
nodes = (
(716,-242,o),
(954,-73,o),
(954,211,cs),
(954,426,o),
(785,664,o),
(501,664,cs),
(286,664,o),
(49,495,o),
(49,211,cs),
(49,-4,o),
(217,-242,o),
(501,-242,cs)
);
},
{
closed = 1;
nodes = (
(262,-211,o),
(79,-18,o),
(79,211,cs),
(79,450,o),
(272,633,o),
(501,633,cs),
(740,633,o),
(923,440,o),
(923,211,cs),
(923,-28,o),
(730,-211,o),
(501,-211,cs)
);
},
{
closed = 1;
nodes = (
(595,-2,o),
(621,3,o),
(659,7,c),
(662,7,o),
(661,15,o),
(661,18,cs),
(660,21,o),
(659,26,o),
(657,25,c),
(654,24,o),
(648,23,o),
(638,23,cs),
(619,23,o),
(606,38,o),
(606,75,cs),
(606,456,ls),
(606,467,o),
(606,483,o),
(608,508,c),
(608,515,o),
(608,518,o),
(605,518,cs),
(603,518,o),
(598,515,o),
(590,509,cs),
(583,502,o),
(573,496,o),
(562,490,cs),
(550,484,o),
(537,478,o),
(530,478,cs),
(525,478,o),
(523,475,o),
(523,469,cs),
(523,463,o),
(525,460,o),
(530,460,cs),
(551,460,o),
(562,444,o),
(562,410,cs),
(562,303,ls),
(562,297,o),
(560,294,o),
(557,294,cs),
(555,294,o),
(554,294,o),
(551,295,cs),
(540,301,o),
(525,302,o),
(505,302,cs),
(411,302,o),
(343,235,o),
(343,133,cs),
(343,53,o),
(383,-12,o),
(462,-12,cs),
(496,-12,o),
(521,-1,o),
(544,21,cs),
(547,25,o),
(551,26,o),
(554,26,cs),
(556,26,o),
(558,23,o),
(558,18,cs),
(558,2,ls),
(558,-8,o),
(560,-15,o),
(563,-15,c)
);
},
{
closed = 1;
nodes = (
(433,23,o),
(390,81,o),
(390,157,cs),
(390,229,o),
(430,283,o),
(497,283,cs),
(520,283,o),
(540,277,o),
(554,264,cs),
(559,259,o),
(562,246,o),
(562,228,cs),
(562,73,ls),
(562,59,o),
(553,46,o),
(539,37,cs),
(526,28,o),
(511,23,o),
(492,23,cs)
);
}
);
width = 1002;
},
{
layerId = "70B83247-6FA0-4662-9656-C86DD2A17D3B";
shapes = (
{
closed = 1;
nodes = (
(716,-240,o),
(954,-72,o),
(954,212,cs),
(954,427,o),
(786,665,o),
(501,665,cs),
(287,665,o),
(49,497,o),
(49,212,cs),
(49,-2,o),
(217,-240,o),
(501,-240,cs)
);
},
{
closed = 1;
nodes = (
(274,-190,o),
(99,-6,o),
(99,212,cs),
(99,439,o),
(283,614,o),
(501,614,cs),
(729,614,o),
(903,430,o),
(903,212,cs),
(903,-15,o),
(720,-190,o),
(501,-190,cs)
);
},
{
closed = 1;
nodes = (
(563,-10,o),
(593,-2,o),
(619,2,cs),
(622,2,o),
(622,10,o),
(621,15,cs),
(620,20,o),
(617,24,o),
(615,24,cs),
(611,23,o),
(608,22,o),
(603,22,cs),
(585,22,o),
(582,44,o),
(582,75,cs),
(582,450,ls),
(582,470,o),
(582,485,o),
(583,508,c),
(583,512,o),
(583,514,o),
(579,514,cs),
(577,514,o),
(574,511,o),
(569,507,cs),
(563,502,o),
(553,494,o),
(541,487,cs),
(522,475,o),
(511,471,o),
(505,471,cs),
(502,471,o),
(500,467,o),
(500,460,cs),
(500,453,o),
(502,449,o),
(505,449,cs),
(522,449,o),
(531,434,o),
(531,402,cs),
(531,301,ls),
(531,296,o),
(530,292,o),
(527,292,cs),
(525,292,o),
(522,292,o),
(521,293,cs),
(513,295,o),
(505,297,o),
(494,297,cs),
(414,297,o),
(356,231,o),
(356,130,cs),
(356,51,o),
(390,-17,o),
(459,-17,cs),
(485,-17,o),
(507,-7,o),
(524,12,cs),
(527,16,o),
(529,17,o),
(532,17,cs),
(534,17,o),
(535,15,o),
(535,9,cs),
(535,-4,ls),
(535,-15,o),
(536,-21,o),
(540,-21,c)
);
},
{
closed = 1;
nodes = (
(438,16,o),
(411,76,o),
(411,147,cs),
(411,215,o),
(437,274,o),
(487,274,cs),
(502,274,o),
(515,269,o),
(525,259,cs),
(530,254,o),
(531,243,o),
(531,229,cs),
(531,55,ls),
(531,47,o),
(527,39,o),
(520,32,cs),
(509,21,o),
(498,16,o),
(484,16,cs)
);
}
);
width = 1003;
},
{
layerId = "9E6FDE2E-55A6-44A9-9556-F1822294BF26";
shapes = (
{
closed = 1;
nodes = (
(716,-240,o),
(953,-72,o),
(953,212,cs),
(953,428,o),
(785,665,o),
(500,665,cs),
(285,665,o),
(49,497,o),
(49,212,cs),
(49,-3,o),
(217,-240,o),
(500,-240,cs)
);
},
{
closed = 1;
nodes = (
(263,-208,o),
(81,-16,o),
(81,212,cs),
(81,450,o),
(272,633,o),
(500,633,cs),
(738,633,o),
(921,441,o),
(921,212,cs),
(921,-25,o),
(729,-208,o),
(500,-208,cs)
);
},
{
closed = 1;
nodes = (
(615,2,o),
(646,7,o),
(691,12,cs),
(695,12,o),
(694,18,o),
(693,22,cs),
(692,26,o),
(691,31,o),
(689,30,cs),
(686,29,o),
(678,28,o),
(667,28,cs),
(645,28,o),
(630,41,o),
(630,80,cs),
(630,465,ls),
(630,481,o),
(630,492,o),
(633,520,c),
(633,521,o),
(631,522,o),
(630,522,cs),
(627,522,o),
(621,519,o),
(611,514,cs),
(602,508,o),
(588,501,o),
(566,492,cs),
(551,486,o),
(540,482,o),
(534,482,cs),
(529,482,o),
(527,479,o),
(527,474,cs),
(527,467,o),
(529,465,o),
(534,465,cs),
(560,465,o),
(573,447,o),
(573,414,cs),
(573,308,ls),
(573,300,o),
(570,299,o),
(567,299,cs),
(566,299,o),
(563,299,o),
(561,301,cs),
(547,306,o),
(528,307,o),
(507,307,cs),
(392,307,o),
(311,240,o),
(311,138,cs),
(311,59,o),
(359,-7,o),
(455,-7,cs),
(495,-7,o),
(525,4,o),
(552,27,cs),
(556,30,o),
(562,32,o),
(564,32,cs),
(567,32,o),
(569,28,o),
(569,23,cs),
(569,8,ls),
(569,-4,o),
(573,-11,o),
(576,-11,c)
);
},
{
closed = 1;
nodes = (
(421,28,o),
(370,85,o),
(370,161,cs),
(370,233,o),
(416,288,o),
(497,288,cs),
(523,288,o),
(545,282,o),
(564,269,cs),
(568,265,o),
(573,254,o),
(573,233,cs),
(573,77,ls),
(573,63,o),
(562,50,o),
(547,42,cs),
(533,34,o),
(514,28,o),
(491,28,cs)
);
}
);
width = 1002;
},
{
layerId = "00F4936D-6309-4DEC-83B3-42806ED1A477";
shapes = (
{
closed = 1;
nodes = (
(716,-240,o),
(954,-72,o),
(954,212,cs),
(954,428,o),
(785,665,o),
(501,665,cs),
(286,665,o),
(49,497,o),
(49,212,cs),
(49,-3,o),
(217,-240,o),
(501,-240,cs)
);
},
{
closed = 1;
nodes = (
(269,-199,o),
(90,-11,o),
(90,212,cs),
(90,445,o),
(278,624,o),
(501,624,cs),
(733,624,o),
(912,436,o),
(912,212,cs),
(912,-20,o),
(724,-199,o),
(501,-199,cs)
);
},
{
closed = 1;
nodes = (
(589,-4,o),
(619,2,o),
(655,7,cs),
(659,7,o),
(658,14,o),
(657,19,cs),
(656,23,o),
(654,28,o),
(652,27,cs),
(648,26,o),
(643,25,o),
(635,25,cs),
(615,25,o),
(606,42,o),
(606,77,cs),
(606,458,ls),
(606,476,o),
(606,489,o),
(608,514,c),
(608,517,o),
(607,518,o),
(604,518,cs),
(602,518,o),
(597,515,o),
(590,510,cs),
(583,505,o),
(570,498,o),
(554,489,cs),
(537,480,o),
(525,477,o),
(520,477,cs),
(516,477,o),
(514,473,o),
(514,467,cs),
(514,460,o),
(516,457,o),
(520,457,cs),
(541,457,o),
(552,440,o),
(552,408,cs),
(552,304,ls),
(552,298,o),
(550,295,o),
(547,295,cs),
(545,295,o),
(543,296,o),
(541,297,cs),
(530,300,o),
(517,302,o),
(500,302,cs),
(403,302,o),
(333,235,o),
(333,134,cs),
(333,55,o),
(375,-12,o),
(457,-12,cs),
(490,-12,o),
(516,-1,o),
(538,20,cs),
(542,23,o),
(545,24,o),
(548,24,cs),
(550,24,o),
(552,21,o),
(552,16,cs),
(552,2,ls),
(552,-10,o),
(554,-16,o),
(558,-16,c)
);
},
{
closed = 1;
nodes = (
(430,22,o),
(391,81,o),
(391,154,cs),
(391,224,o),
(426,281,o),
(492,281,cs),
(513,281,o),
(530,275,o),
(544,264,cs),
(549,259,o),
(552,249,o),
(552,231,cs),
(552,66,ls),
(552,55,o),
(544,44,o),
(534,37,cs),
(521,28,o),
(506,22,o),
(487,22,cs)
);
}
);
width = 1002;
}
);
unicode = 9427;
userData = {
KernOnSpecialSpacing = {
L = NoKerning;
R = NoKerning;
};
};
}
